/* XPM */
static char *enemy21708548464[] = {
/* columns rows colors chars-per-pixel */
"50 50 113 2 ",
"   c #B40C0C",
".  c #B30F10",
"X  c #AD1617",
"o  c #AE1718",
"O  c #B61011",
"+  c #B91314",
"@  c #B51816",
"#  c #B01D1E",
"$  c #B41F21",
"%  c #AF2223",
"&  c #B22325",
"*  c #B1272A",
"=  c #B32A2B",
"-  c #B63025",
";  c #B2312F",
":  c #B22D30",
">  c #B23235",
",  c #B93235",
"<  c #B13539",
"1  c #B1383C",
"2  c #CC0C0D",
"3  c #D60C0C",
"4  c #D6140D",
"5  c #D71C0C",
"6  c #CD0F10",
"7  c #CD1411",
"8  c #CF1B1C",
"9  c #D51212",
"0  c #D61C17",
"q  c #D31718",
"w  c #D41C1D",
"e  c #D6251D",
"r  c #D51F21",
"t  c #CD2326",
"y  c #CD2C2C",
"u  c #D42426",
"i  c #D52821",
"p  c #D32629",
"a  c #D32C2C",
"s  c #D3322A",
"d  c #CC2D30",
"f  c #D22E31",
"g  c #D23235",
"h  c #D23539",
"j  c #D23A3B",
"k  c #CF470E",
"l  c #CE4B0E",
"z  c #D7420C",
"x  c #D74D0C",
"c  c #D6540C",
"v  c #D75B0C",
"b  c #D64D12",
"n  c #D65010",
"m  c #D65619",
"M  c #D15C1D",
"N  c #D7630C",
"B  c #D76D0C",
"V  c #D77D0C",
"C  c #D45823",
"Z  c #CF642C",
"A  c #D06026",
"S  c #D4652C",
"D  c #D3692B",
"F  c #D06C36",
"G  c #B33D42",
"H  c #CD3D42",
"J  c #D13D41",
"K  c #B24147",
"L  c #B34348",
"P  c #B34C52",
"I  c #B35057",
"U  c #B35359",
"Y  c #B55E66",
"T  c #CC454A",
"R  c #CF484D",
"E  c #D0464C",
"W  c #CF4C52",
"Q  c #CF7140",
"!  c #CC5961",
"~  c #CC6168",
"^  c #D7800C",
"/  c #D79C0C",
"(  c #C97C87",
")  c #BC8590",
"_  c #BA95A2",
"`  c #BD9CAA",
"'  c #BDA1AF",
"]  c #BDA7B6",
"[  c #BCAEBE",
"{  c #BEB0BF",
"}  c #C1838E",
"|  c #C58A96",
" . c #C596A3",
".. c #C49FAC",
"X. c #C4A3AC",
"o. c #C4ACAD",
"O. c #C4B0AF",
"+. c #C3A5B4",
"@. c #C3A8B7",
"#. c #C2ADBC",
"$. c #C3B3B7",
"%. c #C2B1BC",
"&. c #BCB2C2",
"*. c #BDB7C8",
"=. c #BEBDCE",
"-. c #BFBFD0",
";. c #C1B3C3",
":. c #C0BCCD",
">. c #C0BFD0",
",. c #BEC3D4",
"<. c #BEC7D9",
"1. c #BEC8DA",
"2. c #C0C2CF",
/* pixels */
"1.1.1.1.1.1.1.1.1.1.1.1.1.1.1.1.1.1.1.1.1.1.1.1.1.1.1.1.1.1.1.1.1.1.1.1.1.1.1.1.1.1.1.1.1.1.1.1.1.1.",
"1.1.1.1.1.1.1.1.1.1.1.1.1.1.1.1.1.1.1.1.1.1.1.1.1.1.1.1.1.1.1.1.1.1.1.1.1.1.1.1.1.1.1.1.1.1.1.1.1.1.",
"1.1.1.1.1.1.1.1.1.1.1.1.1.1.1.1.1.1.1.1.1.1.1.1.1.1.1.1.1.1.1.1.1.1.1.1.1.1.1.1.1.1.1.1.1.1.1.1.1.1.",
"1.1.1.1.1.1.1.1.1.1.1.1.1.1.1.1.1.1.1.1.1.1.1.1.1.1.1.1.1.1.1.1.1.1.1.1.1.1.1.1.1.1.1.1.1.1.1.1.1.1.",
"1.1.1.1.1.1.1.1.1.1.1.1.1.1.1.1.1.1.1.1.1.1.1.1.1.1.<.<.1.1.1.1.1.1.1.1.1.1.1.1.1.1.1.1.1.1.1.1.1.1.",
"1.1.1.1.1.1.1.1.1.1.1.1.1.1.1.1.1.1.1.1.1.1.1.1.1.1.1.Y [ 1.1.1.1.1.1.1.1.1.1.1.1.1.1.1.1.1.1.1.1.1.",
"1.1.1.1.1.1.1.1.1.1.1.1.1.1.1.1.1.1.1.1.1.1.1.1.1.2.~ ) ! ;.1.1.1.1.1.1.1.1.1.1.1.1.1.1.1.1.1.1.1.1.",
"1.1.1.1.1.1.1.1.1.1.1.1.1.1.1.1.1.1.1.1.1.1.1.1.<.=., &.J #.1.1.1.1.1.1.1.1.1.1.1.1.1.1.1.1.1.1.1.1.",
"1.1.1.1.1.1.1.1.1.1.1.1.1.1.1.1.1.1.1.1.1.1.1.1.1.,.` P } -.1.1.1.1.1.1.1.1.1.1.1.1.1.1.1.1.1.1.1.1.",
"1.1.1.1.1.1.1.1.1.1.1.1.1.1.1.1.1.1.1.1.1.1.1.1.1.1.1._ =.1.1.1.1.1.1.1.1.1.1.1.1.1.1.1.1.1.1.1.1.1.",
"1.1.1.1.1.1.1.1.1.1.1.1.1.1.1.1.1.1.1.1.1.,.Y T #.1.1.1.1.1.1.1.1.1.1.1.1.1.1.1.1.1.1.1.1.1.1.1.1.1.",
"1.1.1.1.1.1.1.1.1.1.1.1.1.1.1.1.1.1.1.1.<.-.> | -.1.1.1.1.1.1.1.1.1.1.1.1.1.1.1.1.1.1.1.1.1.1.1.1.1.",
"1.1.1.1.1.1.1.1.1.1.1.1.1.1.1.1.1.1.1.1.,.U X [ 1.1.1.1.1.1.! =.1.1.1.1.1.1.1.1.1.1.1.1.1.1.1.1.1.1.",
"1.1.1.1.1.1.1.1.1.1.1.1.1.1.1.1.1.1.1.1.,.y 6 &.1.1.1.1.1.1.f ;.1.1.1.1.1.1.1.1.1.1.1.1.1.1.1.1.1.1.",
"1.1.1.1.1.1.1.1.1.1.1.1.1.1.1.1.1.1.1.<.P + 2 #.1.1.1.1.,.I q :.1.1.1.1.1.1.1.1.1.1.1.1.1.1.1.1.1.1.",
"1.1.1.1.1.1.1.1.1.1.1.1.1.1.1.1.1.1.1.T   2 3 ;.1.1.<.<.P 6 | ,.1.1.1.1.1.1.1.1.1.1.1.1.1.1.1.1.1.1.",
"1.1.1.1.1.1.1.1.1.1.1.1.1.1.1.1.1.1.1.a 3 3 3 g @.2.1.2.G 3 +.<.1.1.1.1.1.1.1.1.1.1.1.1.1.1.1.1.1.1.",
"1.1.1.1.1.1.1.1.1.1.1.1.1.1.1.1.1.,.G . 3 3 3 3 p ;.1.1.;.+.>.<.1.1.1.1.1.1.1.1.1.1.1.1.1.1.1.1.1.1.",
"1.1.1.1.1.1.1.1.1.1.1.1.1.1.1.1.1.-.% 2 3 3 3 3 3 J #.2.<.1.<.1.1.1.1.1.1.1.1.1.1.1.1.1.1.1.1.1.1.1.",
"1.1.1.1.1.1.1.1.1.1.1.1.1.1.1.1.1.-.% 2 3 3 3 3 3 3 p f h ;.1.1.1.1.1.1.1.1.1.1.1.1.1.1.1.1.1.1.1.1.",
"1.1.1.1.1.1.1.1.1.1.1.1.1.1.1.1.1.-.$ 2 3 3 3 3 3 3 3 3 ( J ;.1.1.1.1.1.1.1.1.1.1.1.1.1.1.1.1.1.1.1.",
"1.1.1.1.1.1.1.1.1.1.1.1.1.1.1.1.1.K 6 3 3 3 3 3 3 3 3 3 r 9 @.1.1.1.1.1.1.1.1.1.1.1.1.1.1.1.1.1.1.1.",
"1.1.1.1.1.1.1.1.1.1.1.1.1.1.1.1.<.: 2 3 3 3 3 3 3 3 3 3 3 9 @.<.1.1.1.1.1.1.1.1.1.1.1.1.1.1.1.1.1.1.",
"1.1.1.1.1.1.1.1.1.1.1.1.1.1.1.1.<.: 2 3 3 3 3 3 3 3 3 3 9 | :.<.1.1.1.1.1.1.1.1.1.1.1.1.1.1.1.1.1.1.",
"1.1.1.1.1.1.1.1.1.1.1.1.1.1.1.1.2.= 3 3 3 3 3 4 3 3 3 3 3 g g :.1.1.1.1.1.1.1.1.1.1.1.1.1.1.1.1.1.1.",
"1.1.1.1.1.1.1.1.1.1.1.1.1.1.1.1.2., 3 3 x x x 4 3 3 z 4 3 3 3 ;.1.1.1.1.1.1.1.1.1.1.1.1.1.1.1.1.1.1.",
"1.1.1.1.1.1.1.1.1.1.1.1.1.1.1.1.1., 3 3 5 5 5 4 3 3 5 3 3 3 3 g #.2.,.,.1.1.1.1.1.1.1.1.1.1.1.1.1.1.",
"1.1.1.1.1.1.1.1.1.1.1.1.1.1.1.1.2.&.r 4 x x x x x x x 4 4 3 3 3 X.Q s j @.<.1.1.1.1.1.1.1.1.1.1.1.1.",
"1.1.1.1.1.1.1.1.1.1.1.1.1.1.1.1.1.-.t s v v v v v v v x x 4 3 4 ..- 3  .W ;.1.1.1.1.1.1.1.1.1.1.1.1.",
"1.1.1.1.1.1.1.1.1.1.1.1.1.1.1.1.G ' e c v v v v v v v v v x 4 4 X.C 5 ;.;.h p >.1.1.1.1.1.1.1.1.1.1.",
"1.1.1.1.1.1.1.1.1.1.1.1.1.1.1.1.* ` u x v V N v v v V v v v 5 4 ..a b q r ;.>.1.1.1.1.1.1.1.1.1.1.1.",
"1.1.1.1.1.1.1.1.1.1.1.1.1.1.1.1.a X.u x v V B v v v ^ v v v x 4 +.;.= 3 | ;.<.1.1.1.1.1.1.1.1.1.1.1.",
"1.1.1.1.1.1.1.1.1.1.1.1.1.1.1.1.S o.u x v / B v v v / N v v v 5 @.2.: 9 w w ;.1.1.1.1.1.1.1.1.1.1.1.",
"1.1.1.1.1.1.1.1.1.1.1.1.1.K { 1.a ..u x v / B v v N / N v v c 4 +.2.S 9 3 3 @.<.1.1.1.1.1.1.1.1.1.1.",
"1.1.1.1.1.1.1.1.1.1.1.1.1.> ] ,.a X.u x v / B v v N / B v v 5 3 ..g + n 5 3 #.1.1.1.1.1.1.1.1.1.1.1.",
"1.1.1.1.1.1.1.1.1.1.1.1.1.j u u b o.u x v ^ N v v v ^ v v c 5 r @.;.&.D 5 3 %.1.1.1.1.1.1.1.1.1.1.1.",
"1.1.1.1.1.1.1.1.1.1.1.1.1.*.u   c o.p x v v v v v v v v v 5 3 #.2.1.1.:.= 3 #.1.1.1.1.1.1.1.1.1.1.1.",
"1.1.1.1.1.1.1.1.1.1.1.1.1.,.& 2 5 @.=.g x v v v c v v c c 5 3 ;.1.1.1.1.F c $.<.1.1.1.1.1.1.1.1.1.1.",
"1.1.1.1.1.1.1.1.1.1.1.1.<.,.% 3 m $.1.2.a x v 4 4 x x 4 3 3 3 %.1.1.1.1.=.% 3 :.1.1.1.1.1.1.1.1.1.1.",
"1.1.1.1.1.1.1.1.1.1.1.<.<.,.* 2 +.2.*.*.o.j u 9 3 4 4 e w e 3 C X.1.1.1.=.% 2 =.1.1.1.1.1.1.1.1.1.1.",
"1.1.1.1.1.1.1.1.1.1.1.1.1.,.u 3 ;.-.* o C +.>.p 3 9 4 ] :.*.= 3 r ;.1.1.-.% 3 =.1.1.1.1.1.1.1.1.1.1.",
"1.1.1.1.1.1.1.1.1.1.1.1.1.,.p q ;.>.f 3 c O.2.;.:.>.:.,.*.> l 4 9 &.1.1.-.% 7 -.1.1.1.1.1.1.1.1.1.1.",
"1.1.1.1.1.1.1.1.1.1.1.1.<.,.& ` <.1.1.* 3 x c e +.2.1.% x c c 4 9 ;.1.1.=.t ..1.1.1.1.1.1.1.1.1.1.1.",
"1.1.1.1.1.1.1.1.1.1.1.1.<.,.u w ;.1.1.* 2 4 4 X.1.1.1.> 7 4 4 3 9 ;.1.,.-.$ w >.1.1.1.1.1.1.1.1.1.1.",
"1.1.1.1.1.1.1.1.1.1.1.1.<.,.p 3 ;.2.1.f 3 3 3 #.1.1.1.-.h   2 3 q ;.1.1.=.# 7 -.1.1.1.1.1.1.1.1.1.1.",
"1.1.1.1.1.1.1.1.1.1.1.1.1.,.g 3 ;.1.1.>.$ 3 q ;.1.1.1.1.=.> 2 3 ..2.1.1.G w @.1.1.1.1.1.1.1.1.1.1.1.",
"1.1.1.1.1.1.1.1.1.1.1.1.1.1.<.E ;.1.,.;.# d +.1.1.1.1.1.1.<.: 9 @.1.1.1.<.<.1.1.1.1.1.1.1.1.1.1.1.1.",
"1.1.1.1.1.1.1.1.1.1.1.1.1.<.<.:.<.1.1.j . ` ,.1.1.1.1.1.1.<.: 3 @.1.1.1.1.1.1.1.1.1.1.1.1.1.1.1.1.1.",
"1.1.1.1.1.1.1.1.1.1.1.1.1.1.1.1.1.1.1.d 9 @.1.1.1.1.1.1.1.1.: f #.2.1.1.1.1.1.1.1.1.1.1.1.1.1.1.1.1.",
"1.1.1.1.1.1.1.1.1.1.1.1.1.1.1.1.1.1.2.1 9 #.1.1.1.1.1.1.1.1.f ;.1.1.1.1.1.1.1.1.1.1.1.1.1.1.1.1.1.1."
};
