/* XPM */
static char *enemy41708548465[] = {
/* columns rows colors chars-per-pixel */
"50 50 124 2 ",
"   c #B50C0C",
".  c #BC0B0B",
"X  c #B1140E",
"o  c #B90F10",
"O  c #AF1011",
"+  c #AF1C1E",
"@  c #B31617",
"#  c #B31C1B",
"$  c #AF1F21",
"%  c #B11F21",
"&  c #AF2224",
"*  c #AF272A",
"=  c #B22325",
"-  c #B82225",
";  c #B62F25",
":  c #B1272A",
">  c #B1292B",
",  c #B12E31",
"<  c #B23236",
"1  c #B13539",
"2  c #B3393E",
"3  c #CD0D0D",
"4  c #D60C0C",
"5  c #D6130C",
"6  c #D71B0C",
"7  c #CD0F10",
"8  c #D10F10",
"9  c #CE1516",
"0  c #CF1718",
"q  c #CF1C1D",
"w  c #D51414",
"e  c #D61B14",
"r  c #D61718",
"t  c #D51D1E",
"y  c #D43F0C",
"u  c #D5241D",
"i  c #C81E20",
"p  c #D51E20",
"a  c #CE2325",
"s  c #CD2629",
"d  c #D42325",
"f  c #D52923",
"g  c #D22628",
"h  c #D32A2C",
"j  c #D2342B",
"k  c #CD2E31",
"l  c #D32E30",
"z  c #CF373B",
"x  c #D23135",
"c  c #D23E37",
"v  c #D2363A",
"b  c #D1393D",
"n  c #CD450E",
"m  c #D7440C",
"M  c #D74D0C",
"N  c #D7540C",
"B  c #D75B0C",
"V  c #D65313",
"C  c #D65E16",
"Z  c #D6541A",
"A  c #D6591A",
"S  c #D7630C",
"D  c #D76B0C",
"F  c #D7700C",
"G  c #D77E0C",
"H  c #D5611B",
"J  c #D36224",
"K  c #D4672A",
"L  c #D36E31",
"P  c #D0673A",
"I  c #D2743D",
"U  c #B23E43",
"Y  c #CD3D42",
"T  c #D13C41",
"R  c #B24147",
"E  c #B24449",
"W  c #B5545B",
"Q  c #B5646C",
"!  c #CC4146",
"~  c #CD464C",
"^  c #D14045",
"/  c #D0454A",
"(  c #CE5259",
")  c #D17540",
"_  c #CD5A61",
"`  c #D7830C",
"'  c #D79B0C",
"]  c #D7A10C",
"[  c #D7AC0C",
"{  c #B9919D",
"}  c #BC9FAD",
"|  c #BCA5B3",
" . c #BBA8B7",
".. c #BCABBA",
"X. c #C8818B",
"o. c #C18793",
"O. c #C78995",
"+. c #C78D9A",
"@. c #C5929F",
"#. c #C597A4",
"$. c #C599A7",
"%. c #C49EAC",
"&. c #C4A2AB",
"*. c #C4ADAC",
"=. c #C3A5B3",
"-. c #C3AAB2",
";. c #C2ACBB",
":. c #C3B3B5",
">. c #C2B0BF",
",. c #C2B9BF",
"<. c #BDB3C4",
"1. c #BFB8C3",
"2. c #BDBDCE",
"3. c #BEBFD0",
"4. c #C1B2C2",
"5. c #C1BDC6",
"6. c #C1B7C8",
"7. c #C0BCCD",
"8. c #C0BFD0",
"9. c #BFC2CF",
"0. c #BEC2D3",
"q. c #BEC7D9",
"w. c #BEC8DA",
"e. c #C0C2CF",
/* pixels */
"w.w.w.w.w.w.w.w.w.w.w.w.w.w.w.w.w.w.w.w.w.w.w.w.w.w.w.{ 2.w.w.w.w.w.w.w.w.w.w.w.w.w.w.w.w.w.w.w.w.w.",
"w.w.w.w.w.w.w.w.w.w.w.w.w.w.w.w.w.w.w.w.w.w.w.w.w.w.w.w.q.w.w.w.w.w.w.w.w.w.w.w.w.w.w.w.w.w.w.w.w.w.",
"w.w.w.w.w.w.w.w.w.w.w.w.w.w.w.w.w.w.w.w.w.w.w.w.w.w.w.w.w.w.w.w.w.w.w.w.w.w.w.w.w.w.w.w.w.w.w.w.w.w.",
"w.w.w.w.w.w.w.w.w.w.w.w.w.w.w.w.w.w.w.w.w.w.w.w.w.w.w.w.w.w.w.Q <.w.w.w.w.w.w.w.w.w.w.w.w.w.w.w.w.w.",
"w.w.w.w.w.w.w.w.w.w.w.w.w.w.w.w.w.w.w.w.w.w.w.w.w.w.w.w.w.w.w.$ | w.w.w.w.w.w.w.w.w.w.w.w.w.w.w.w.w.",
"w.w.w.w.w.w.w.w.w.w.w.w.w.w.w.w.w.w.w.w.w.w.w.w.w.w.w.w.w.w.w.i ~ 6.w.w.w.w.w.w.w.w.w.w.w.w.w.w.w.w.",
"w.w.w.w.w.w.w.w.w.w.w.w.w.w.w.w.w.w.w.w.w.w.w.w.w.w.w.w.w.w.w.@.l 4.w.w.w.w.w.w.w.w.w.w.w.w.w.w.w.w.",
"w.w.w.w.w.w.w.w.w.w.w.w.w.w.w.w.w.w.w.w.w.w.w.w.w.w.w.w.w.w.w.q.=.e.w.w.w.w.w.w.w.w.w.w.w.w.w.w.w.w.",
"w.w.w.w.w.w.w.w.w.w.w.w.w.w.w.w.w.w.w.w.w.w.w.w.w.w.w.w.w.w.w.w.w.w.w.w.w.w.w.w.w.w.w.w.w.w.w.w.w.w.",
"w.w.w.w.w.w.w.w.w.w.w.w.w.w.w.w.w.w.w.w.w.w.w.w.w.w.w.w.w.w.w.w.w.w.w.w.w.w.w.w.w.w.w.w.w.w.w.w.w.w.",
"w.w.w.w.w.w.w.w.w.w.w.w.w.w.w.w.w.w.w.w.w.w.w.w.q.w.w.w.w.w.w.w.w.w.w.w.w.w.w.w.w.w.w.w.w.w.w.w.w.w.",
"w.w.w.w.w.w.w.w.w.w.w.w.w.w.w.w.w.w.w.w.w.w.w.w.W ! ;.q._ 4.w.w.w.w.w.w.w.w.w.w.w.w.w.w.w.w.w.w.w.w.",
"w.w.w.w.w.w.w.w.w.w.w.w.w.w.w.w.w.w.w.w.w.w.w.w.1 8 b 6.&.0.w.w.w.w.w.w.w.w.w.w.w.w.w.w.w.w.w.w.w.w.",
"w.w.w.w.w.w.w.w.w.w.w.w.w.w.w.w.w.w.w.w.w.3.( l o.d 4 4.w.w.w.w.w.w.w.w.w.w.w.w.w.w.w.w.w.w.w.w.w.w.",
"w.w.w.w.w.w.w.w.w.w.w.w.w.w.w.w.w.w.w.w.0.W t 4 %.%.#.0.w.w.w.w.w.w.w.w.w.w.w.w.w.w.w.w.w.w.w.w.w.w.",
"w.w.w.w.w.w.w.w.w.w.w.w.w.w.w.w.w.w.w.q.U O 3 4 %.q.w.w.w.w.w.w.w.w.w.w.w.w.w.w.w.w.w.w.w.w.w.w.w.w.",
"w.w.w.w.w.w.w.w.w.w.w.w.w.w.w.w.w.w.w.q.% 3 4 4 l T T <.w.w.w.w.w.w.w.w.w.w.w.w.w.w.w.w.w.w.w.w.w.w.",
"w.w.w.w.w.w.w.w.w.w.w.w.w.w.w.w.w.w.w.E 4 4 4 4 4 r O.T ;.w.w.w.w.w.w.w.w.w.w.w.w.w.w.w.w.w.w.w.w.w.",
"w.w.w.w.w.w.w.w.w.w.w.w.w.w.w.w.w.w.q.: 4 4 4 4 4 4 x +.8.w.w.w.w.w.w.w.w.w.w.w.w.w.w.w.w.w.w.w.w.w.",
"w.w.w.w.w.w.w.w.w.w.w.w.w.w.w.w.w.e.T 7 4 4 4 4 4 . 4 l ;.w.w.w.w.w.w.w.w.w.w.w.w.w.w.w.w.w.w.w.w.w.",
"w.w.w.w.w.w.w.w.w.w.w.w.w.w.w.w.w.0.- 4 4 4 4 4 4 4 4 4 x 4.3.w.w.w.w.w.w.w.w.w.w.w.w.w.w.w.w.w.w.w.",
"w.w.w.w.w.w.w.w.w.w.w.w.w.w.w.w.w.3.$ 3 4 4 4 4 4 4 4 4 w 4.w.w.w.w.w.w.w.w.w.w.w.w.w.w.w.w.w.w.w.w.",
"w.w.w.w.w.w.w.w.w.w.w.w.w.w.w.w.w.0.= 4 4 4 4 4 4 4 4 4 4 x 4.w.w.w.w.w.w.w.w.w.w.w.w.w.w.w.w.w.w.w.",
"w.w.w.w.w.w.w.w.w.w.w.w.w.w.w.w.w.3.s 4 4 4 4 4 4 4 4 4 4 4 %.8.q.w.w.w.w.w.w.w.w.w.w.w.w.w.w.w.w.w.",
"w.w.w.w.w.w.w.w.w.w.w.w.w.w.w.w.q.3.d 4 4 4 4 4 4 4 4 4 4 4 l v ;.w.w.w.w.w.w.w.w.w.w.w.w.w.w.w.w.w.",
"w.w.w.w.w.w.w.w.w.w.w.w.w.w.w.w.w.0.= 4 4 m 6 M 5 4 m 5 4 4 4 %./ 6.w.w.w.w.w.w.w.w.w.w.w.w.w.w.w.w.",
"w.w.w.w.w.w.w.w.w.w.w.w.w.w.w.w.w.0.= 4 m N 6 6 4 5 6 4 4 4 4 l p ;.e.q.w.w.w.w.w.w.w.w.w.w.w.w.w.w.",
"w.w.w.w.w.w.w.w.w.w.w.w.w.w.w.w.q.3.k m 6 6 m M M M M 6 4 4 m 6 X.b h 7.w.w.w.w.w.w.w.w.w.w.w.w.w.w.",
"w.w.w.w.w.w.w.w.w.w.w.w.w.w.w.w.w.q. .; 5 m N B B B B M 5 4 5 m j X 4 7.w.w.w.w.w.w.w.w.w.w.w.w.w.w.",
"w.w.w.w.w.w.w.w.w.w.w.w.w.w.w.w.b ;.w.* m B B B B B B B N 6 4 5 4 4   <.q.w.w.w.w.w.w.w.w.w.w.w.w.w.",
"w.w.w.w.w.w.w.w.w.w.w.w.w.w.w.w.:  .0.h N B G S B B B G S N 6 4 4 N N + ..w.w.w.w.w.w.w.w.w.w.w.w.w.",
"w.w.w.w.w.w.w.w.w.w.w.w.w.w.w.w.* } b 5 N B G B B B B ` S B N 5 w &.c w %.q.w.w.w.w.w.w.w.w.w.w.w.w.",
"w.w.w.w.w.w.w.w.w.w.w.w.w.w.w.w.> %.d M B B ' S B B B ] D B B 5 r 4.8.A ; <.w.w.w.w.w.w.w.w.w.w.w.w.",
"w.w.w.w.w.w.w.w.w.w.w.w.w.R <.w.h %.d M B ' [ S B S ' [ D B N 5 $.e.e.H 5 q p 3.w.w.w.w.w.w.w.w.w.w.",
"w.w.w.w.w.w.w.w.w.w.w.w.w.1 | 7.K *.d N B ' F B B S ' S B B 6 4 ;.e.) H 6   8 4.0.q.q.q.w.w.w.w.w.w.",
"w.w.w.w.w.w.w.w.w.w.w.w.w.Y d d V *.d m B ` S B B B G S B B 6 p ;.e.e.4.P X 4 x Y ;.q.q.w.w.w.w.w.w.",
"w.w.w.w.w.w.w.w.w.w.w.w.w.4.g 4 V *.f 5 N B B B B B B B B B 6 ;.e.w.w.w.7.= 5 4.;.h 4.w.w.w.w.w.w.w.",
"w.w.w.w.w.w.w.w.w.w.w.w.w.0.: 4 V :.7.h M B B B N N B B N 6 w 6.w.w.w.w.9.K 5 4./ ;.q.w.w.w.w.w.w.w.",
"w.w.w.w.w.w.w.w.w.w.w.w.q.0.& 7 A :.e.v 5 M N 5 5 M N N 6 r %.e.e.w.w.w.e.J 5 t ;.w.w.w.w.w.w.w.w.w.",
"w.w.w.w.w.w.w.w.w.w.w.w.q.0.& m -.e.7.-.h d e 4 4 5 u f f &.) J -.e.w.w.e.f X ;.q.w.w.w.w.w.w.w.w.w.",
"w.w.w.w.w.w.w.w.w.w.w.w.w.3.g 5 4.2.l Z :.<.v 5 4 t $.2.2.q.L 5 t 4.w.w.2.d   2.w.w.w.w.w.w.w.w.w.w.",
"w.w.w.w.w.w.w.w.w.w.w.w.w.b r r ;.U 4 5 Z :.8.8.2.9.q.0.5.L 6 4 r 4.w.w.2.d @ 0.w.w.w.w.w.w.w.w.w.w.",
"w.w.w.w.w.w.w.w.w.w.w.w.q.1 | 0.w.3.& 3 4 Z *.w.w.w.w.& n N 6 4 w 4.q.w.<.= ..w.w.w.w.w.w.w.w.w.w.w.",
"w.w.w.w.w.w.w.w.w.w.w.w.q., q ;.q.3.1 w 4 e %.w.w.w.w.1 X 5 4 4 r ;.q.q.2 3 ;.w.w.w.w.w.w.w.w.w.w.w.",
"w.w.w.w.w.w.w.w.w.w.w.w.w.1 4 =.w.w.0.h 4 r %.w.w.w.w.2.1 8   4 w 4.e.0.> w ;.w.w.w.w.w.w.w.w.w.w.w.",
"w.w.w.w.w.w.w.w.w.w.w.w.w.2., 9 ..w.w.0.% 0 %.w.w.w.w.w.0.3.2 4 w 4.w., s ;.w.w.w.w.w.w.w.w.w.w.w.w.",
"w.w.w.w.w.w.w.w.w.w.w.w.w.q.q.E <.w.w.q.- 0 %.w.w.w.w.w.w.w.q.% 9 4.w.w.q.w.w.w.w.w.w.w.w.w.w.w.w.w.",
"w.w.w.w.w.w.w.w.w.w.w.w.w.q.q.2.q.w.w.q.t r %.w.w.w.w.w.w.w.<.# s 4.w.w.w.w.w.w.w.w.w.w.w.w.w.w.w.w.",
"w.w.w.w.w.w.w.w.w.w.w.w.w.w.w.w.w.w.w.q.a k =.w.w.w.w.w.w.w.1 k =.q.w.w.w.w.w.w.w.w.w.w.w.w.w.w.w.w.",
"w.w.w.w.w.w.w.w.w.w.w.w.w.w.w.w.w.w.w.q.&  .q.w.w.w.w.w.w.w., <.w.w.w.w.w.w.w.w.w.w.w.w.w.w.w.w.w.w."
};
