/* XPM */
static char *enemy31708548465[] = {
/* columns rows colors chars-per-pixel */
"50 50 112 2 ",
"   c #B20C0C",
".  c #B80D0D",
"X  c #AE1718",
"o  c #B01213",
"O  c #B51719",
"+  c #B7181A",
"@  c #B61F21",
"#  c #AF2426",
"$  c #AF272A",
"%  c #AF282B",
"&  c #B32326",
"*  c #B82225",
"=  c #B5272A",
"-  c #B2292C",
";  c #B2312F",
":  c #B22D30",
">  c #B23236",
",  c #B13539",
"<  c #B23A3E",
"1  c #CE0E0F",
"2  c #D60D0C",
"3  c #D7130C",
"4  c #D71B0C",
"5  c #CD0F10",
"6  c #D10F10",
"7  c #CB1513",
"8  c #CF1C1D",
"9  c #D51313",
"0  c #D51718",
"q  c #D51C1C",
"w  c #D7250C",
"e  c #D73D0C",
"r  c #D5231D",
"t  c #CD2123",
"y  c #CA2528",
"u  c #D32325",
"i  c #D52821",
"p  c #D22629",
"a  c #D32B2C",
"s  c #CB2E31",
"d  c #D32E31",
"f  c #CD3134",
"g  c #CA363A",
"h  c #CC3A3F",
"j  c #D23235",
"k  c #D2363A",
"l  c #CF470E",
"z  c #D7440C",
"x  c #D74D0C",
"c  c #D7540C",
"v  c #D75A0C",
"b  c #D55313",
"n  c #D65719",
"m  c #D55D1D",
"M  c #D7620C",
"N  c #D76B0C",
"B  c #D77E0C",
"V  c #D15A25",
"C  c #D46126",
"Z  c #D4662D",
"A  c #D36B2C",
"S  c #D26D39",
"D  c #B33F44",
"F  c #D13D42",
"G  c #B54146",
"H  c #B34449",
"J  c #B3494F",
"K  c #B34B51",
"L  c #B35157",
"P  c #B4585F",
"I  c #B5656E",
"U  c #CD4246",
"Y  c #D14045",
"T  c #CF4B51",
"R  c #CB6972",
"E  c #D7820C",
"W  c #D79B0C",
"Q  c #D7A30C",
"!  c #BE838E",
"~  c #BE95A2",
"^  c #BA9AA7",
"/  c #BC9DAB",
"(  c #BBA1AF",
")  c #BDA4B2",
"_  c #BBA8B7",
"`  c #BCADBC",
"'  c #C6828E",
"]  c #C88590",
"[  c #C5929F",
"{  c #C595A2",
"}  c #C499A6",
"|  c #C39EAB",
" . c #C5A2A3",
".. c #C4A2AC",
"X. c #C4B0AE",
"o. c #C3A5B3",
"O. c #C3A8B7",
"+. c #C2ADBD",
"@. c #C3B4B5",
"#. c #C2B0BF",
"$. c #BDB5C5",
"%. c #BDB7C8",
"&. c #BEBCCC",
"*. c #BEBFD0",
"=. c #C1B3C2",
"-. c #C1BBC4",
";. c #C1B7C8",
":. c #C0BCCC",
">. c #C0BFD0",
",. c #BEC3D4",
"<. c #BEC7D9",
"1. c #BEC8DA",
/* pixels */
"1.1.1.1.1.1.1.1.1.1.1.1.1.1.1.1.1.1.1.1.1.1.1.1.1.1.1.1.1.1.1.1.1.1.1.1.1.1.1.1.1.1.1.1.1.1.1.1.1.1.",
"1.1.1.1.1.1.1.1.1.1.1.1.1.1.1.1.1.1.1.1.1.1.1.1.1.1.1.1.1.1.1.1.1.1.1.1.1.1.1.1.1.1.1.1.1.1.1.1.1.1.",
"1.1.1.1.1.1.1.1.1.1.1.1.1.1.1.1.1.1.1.1.1.1.1.1.1.1.1.1.1.1.1.1.1.1.1.1.1.1.1.1.1.1.1.1.1.1.1.1.1.1.",
"1.1.1.1.1.1.1.1.1.1.1.1.1.1.1.1.1.1.1.1.1.1.1.1.1.1.1.R =.1.1.1.1.1.1.1.1.1.1.1.1.1.1.1.1.1.1.1.1.1.",
"1.1.1.1.1.1.1.1.1.1.1.1.1.1.1.1.1.1.1.1.1.1.1.1.1.1.1.{ :.1.1.1.1.1.1.1.1.1.1.1.1.1.1.1.1.1.1.1.1.1.",
"1.1.1.1.1.1.1.1.1.1.1.1.1.1.1.1.1.1.1.1.1.1.1.1.1.,.I %.R ;.1.1.1.1.1.1.1.1.1.1.1.1.1.1.1.1.1.1.1.1.",
"1.1.1.1.1.1.1.1.1.1.1.1.1.1.1.1.1.1.1.1.1.1.1.1.1.,.^ ,.} ,.1.1.1.1.1.1.1.1.1.1.1.1.1.1.1.1.1.1.1.1.",
"1.1.1.1.1.1.1.1.1.1.1.1.1.1.1.1.1.1.1.1.1.1.1.1.1.1.1.1.1.1.1.1.1.1.1.1.1.1.1.1.1.1.1.1.1.1.1.1.1.1.",
"1.1.1.1.1.1.1.1.1.1.1.1.1.1.1.1.1.1.1.1.1.1.1.1.1.1.1.1.1.1.1.1.1.1.1.1.1.1.1.1.1.1.1.1.1.1.1.1.1.1.",
"1.1.1.1.1.1.1.1.1.1.1.1.1.1.1.1.1.1.1.1.1.1.1.1.1.1.1.1.1.1.1.1.1.1.1.1.1.1.1.1.1.1.1.1.1.1.1.1.1.1.",
"1.1.1.1.1.1.1.1.1.1.1.1.1.1.1.1.1.1.1.1.1.1.1.1.1.<.<.1.1.1.1.L ` 1.1.1.1.1.1.1.1.1.1.1.1.1.1.1.1.1.",
"1.1.1.1.1.1.1.1.1.1.1.1.1.1.1.1.1.1.1.1.1.1.1.K g D _ 1.1.1.1.t O.1.1.1.1.1.1.1.1.1.1.1.1.1.1.1.1.1.",
"1.1.1.1.1.1.1.1.1.1.1.1.1.1.1.1.1.1.1.1.1.1.1.y 6 ! *.1.1.1.P 9 o.1.1.1.1.1.1.1.1.1.1.1.1.1.1.1.1.1.",
"1.1.1.1.1.1.1.1.1.1.1.1.1.1.1.1.1.1.1.1.1.*.L 9 ] ,.1.1.1.1.: 2 d =.1.1.1.1.1.1.1.1.1.1.1.1.1.1.1.1.",
"1.1.1.1.1.1.1.1.1.1.1.1.1.1.1.1.1.1.1.1.1.:.g ' &.1.1.1.1.1.( { d =.1.1.1.1.1.1.1.1.1.1.1.1.1.1.1.1.",
"1.1.1.1.1.1.1.1.1.1.1.1.1.1.1.1.1.1.1.1.1.H 7 d O.1.1.1.1.1.1.1.+.<.1.1.1.1.1.1.1.1.1.1.1.1.1.1.1.1.",
"1.1.1.1.1.1.1.1.1.1.1.1.1.1.1.1.1.1.1.1.H 5 6 2 k =.1.1.1.1.1.1.1.1.1.1.1.1.1.1.1.1.1.1.1.1.1.1.1.1.",
"1.1.1.1.1.1.1.1.1.1.1.1.1.1.1.1.1.1.1.H 2 2 2 2 2 j O.1.1.1.1.1.1.1.1.1.1.1.1.1.1.1.1.1.1.1.1.1.1.1.",
"1.1.1.1.1.1.1.1.1.1.1.1.1.1.1.1.1.1.,.% 2 2 2 2 2 2 j F O.1.1.1.1.1.1.1.1.1.1.1.1.1.1.1.1.1.1.1.1.1.",
"1.1.1.1.1.1.1.1.1.1.1.1.1.1.1.1.1.,.F 7 2 2 2 2 2 2 2 { T =.1.1.1.1.1.1.1.1.1.1.1.1.1.1.1.1.1.1.1.1.",
"1.1.1.1.1.1.1.1.1.1.1.1.1.1.1.1.1.*.@ 2 2 2 2 2 2 2 2 j q =.>.1.1.1.1.1.1.1.1.1.1.1.1.1.1.1.1.1.1.1.",
"1.1.1.1.1.1.1.1.1.1.1.1.1.1.1.1.1.H 2 2 2 2 2 2 2 2 2 2 0 =.1.1.1.1.1.1.1.1.1.1.1.1.1.1.1.1.1.1.1.1.",
"1.1.1.1.1.1.1.1.1.1.1.1.1.1.1.1.,.s 2 2 2 2 2 2 2 2 2 2 2 =.1.1.1.1.1.1.1.1.1.1.1.1.1.1.1.1.1.1.1.1.",
"1.1.1.1.1.1.1.1.1.1.1.1.1.1.1.1.1.: 2 2 2 2 2 2 2 2 2 2 9 o.>.1.1.1.1.1.1.1.1.1.1.1.1.1.1.1.1.1.1.1.",
"1.1.1.1.1.1.1.1.1.1.1.1.1.1.1.1.<.: 2 2 2 2 2 2 2 2 2 2 2 d j :.1.1.1.1.1.1.1.1.1.1.1.1.1.1.1.1.1.1.",
"1.1.1.1.1.1.1.1.1.1.1.1.1.1.1.1.<.s 2 2 2 z x x 3 2 2 2 2 2 2 =.1.1.1.1.1.1.1.1.1.1.1.1.1.1.1.1.1.1.",
"1.1.1.1.1.1.1.1.1.1.1.1.1.1.1.1.<.> 2 e 3 4 4 w 2 2 e 3 3 e 4 j +.>.,.,.1.1.1.1.1.1.1.1.1.1.1.1.1.1.",
"1.1.1.1.1.1.1.1.1.1.1.1.1.1.1.1.1.O.i 3 3 3 z x x x w 3 2 3 3 3 ..h - > ) 1.1.1.1.1.1.1.1.1.1.1.1.1.",
"1.1.1.1.1.1.1.1.1.1.1.1.1.1.1.1.1.>.@ 6 x x c v v v x x 3 2 2 2 | p 2 ~ K %.1.1.1.1.1.1.1.1.1.1.1.1.",
"1.1.1.1.1.1.1.1.1.1.1.1.1.1.1.1.D | @ 2 x v v v v v v v c 3 2 2 ..C 3 u | 1.1.1.1.1.1.1.1.1.1.1.1.1.",
"1.1.1.1.1.1.1.1.1.1.1.1.1.1.1.1.- / y x v v B v v v v B M 4 2 3 ..A 4   _ 1.1.1.1.1.1.1.1.1.1.1.1.1.",
"1.1.1.1.1.1.1.1.1.1.1.1.1.1.1.1.- / u x v v E M v c v E M x 4 2 O.-.a . ^ %.,.1.1.1.1.1.1.1.1.1.1.1.",
"1.1.1.1.1.1.1.1.1.1.1.1.1.1.1.1.p | p x v M W M v v v Q N v 4 2 O.<.Z 3 O q ` 1.1.1.1.1.1.1.1.1.1.1.",
"1.1.1.1.1.1.1.1.1.1.1.1.1.D $.1.Z @.:.a v v W N v v v Q N v c 3 u +.Z 3 2   ` 1.1.1.1.1.1.1.1.1.1.1.",
"1.1.1.1.1.1.1.1.1.1.1.1.1.g o.>.A @.<.a x M W M v v v Q N v c 3 2 q n 3 2   ` 1.1.1.1.1.1.1.1.1.1.1.",
"1.1.1.1.1.1.1.1.1.1.1.1.1.F u u b @.1.a x v B M v v v E M v w 2 u | -.q 2   ` 1.1.1.1.1.1.1.1.1.1.1.",
"1.1.1.1.1.1.1.1.1.1.1.1.1.;.& 6 b @.1.a x v v v v v v v v v 4 3 } <.1.m 4 . ` <.1.1.1.1.1.1.1.1.1.1.",
"1.1.1.1.1.1.1.1.1.1.1.1.1.>.# 1 c @.1.a x v v v v x v v v 4 9 0 O.<.<.>.a 2 O $.<.1.1.1.1.1.1.1.1.1.",
"1.1.1.1.1.1.1.1.1.1.1.1.1.*.# 2 n @.1.j 3 3 z v 4 3 z v 4 0 | :.<.<.<.<.S r 2 o ( 1.1.1.1.1.1.1.1.1.",
"1.1.1.1.1.1.1.1.1.1.1.1.1.*.& 1 ..,.%.o.r q 9 3 2 3 r r u | < V  .<.<.<.-.-.u   g O.<.1.1.1.1.1.1.1.",
"1.1.1.1.1.1.1.1.1.1.1.1.1.*.a 6 =.*.: X b } k 9 3 0 } %.&.<.: 2 q =.1.1.1.1.p   [ a =.1.1.1.1.1.1.1.",
"1.1.1.1.1.1.1.1.1.1.1.1.1.*.u 0 =.*.% 5 c X.-.=.:.,.<.,.&.; z 3 9 ` 1.1.1.*.p 0 a #.1.1.1.1.1.1.1.1.",
"1.1.1.1.1.1.1.1.1.1.1.1.1.*.& / ,.1.1.a 2 x b r o.1.1.# l c 3 2 0 =.1.1.=.u   :.1.1.1.1.1.1.1.1.1.1.",
"1.1.1.1.1.1.1.1.1.1.1.1.1.*.& 8 =.1.1.- 2 3 r o.,.1.1.> 7 3 2 2 9 =.1.<.F . t &.1.1.1.1.1.1.1.1.1.1.",
"1.1.1.1.1.1.1.1.1.1.1.1.1.*.p 6 =.<.<.% 2 0 { 1.1.1.1.&.> 6 2 2 0 =.<.>.- 9 ) 1.1.1.1.1.1.1.1.1.1.1.",
"1.1.1.1.1.1.1.1.1.1.1.1.1.D 6 o.1.1.1.= 2 u ..1.1.1.1.1.>.> 6 2 | 1.1.: # ` 1.1.1.1.1.1.1.1.1.1.1.1.",
"1.1.1.1.1.1.1.1.1.1.1.1.1.>.F =.1.1.1.a 5 [ ,.1.1.1.1.1.1.1.> 6 o.1.1.1.1.1.1.1.1.1.1.1.1.1.1.1.1.1.",
"1.1.1.1.1.1.1.1.1.1.1.1.1.<.>.>.1.1.1.F   t ..1.1.1.1.1.1.1.F 6 { 1.1.1.1.1.1.1.1.1.1.1.1.1.1.1.1.1.",
"1.1.1.1.1.1.1.1.1.1.1.1.1.1.1.1.1.1.1.>.@ j o.1.1.1.1.1.1.1.>.q k =.1.1.1.1.1.1.1.1.1.1.1.1.1.1.1.1.",
"1.1.1.1.1.1.1.1.1.1.1.1.1.1.1.1.1.1.1.1.p o.<.1.1.1.1.1.1.1.<.u o.1.1.1.1.1.1.1.1.1.1.1.1.1.1.1.1.1."
};
