/* XPM */
static char *enemy61708548465[] = {
/* columns rows colors chars-per-pixel */
"50 50 110 2 ",
"   c #AF0A0A",
".  c #B40D0C",
"X  c #BA0C0C",
"o  c #B4110C",
"O  c #BB1413",
"+  c #B21F1E",
"@  c #BC1A1C",
"#  c #AF1E20",
"$  c #B21F21",
"%  c #AF2325",
"&  c #AF282B",
"*  c #B22325",
"=  c #B82225",
"-  c #B32B2A",
";  c #B22E30",
":  c #B92D30",
">  c #B23235",
",  c #BB3033",
"<  c #B13A3F",
"1  c #CC0D0D",
"2  c #D60C0C",
"3  c #CE140C",
"4  c #D6150D",
"5  c #D71C0C",
"6  c #D70F10",
"7  c #CD1415",
"8  c #C61B1C",
"9  c #CF1B1C",
"0  c #D51313",
"q  c #D61911",
"w  c #D61718",
"e  c #D61B1C",
"r  c #D7230C",
"t  c #D5231C",
"y  c #D51E20",
"u  c #CD2323",
"i  c #CD2A2C",
"p  c #D42425",
"a  c #D52A24",
"s  c #D12629",
"d  c #D32B2D",
"f  c #CD2E31",
"g  c #D32E31",
"h  c #CB3236",
"j  c #CE3438",
"k  c #CE3B3F",
"l  c #D23235",
"z  c #D2363A",
"x  c #D1393C",
"c  c #CD470E",
"v  c #D6430C",
"b  c #D64D0C",
"n  c #D7550C",
"m  c #D75B0C",
"M  c #D65213",
"N  c #D7630C",
"B  c #D76D0C",
"V  c #D77D0C",
"C  c #D45B26",
"Z  c #D1662C",
"A  c #D26A2F",
"S  c #D26735",
"D  c #D26936",
"F  c #B43E42",
"G  c #CC3E43",
"H  c #D13F44",
"J  c #B2464B",
"K  c #B4555D",
"L  c #B56169",
"P  c #CE474D",
"I  c #D04449",
"U  c #CF4C52",
"Y  c #CE5057",
"T  c #CB5D64",
"R  c #D7800C",
"E  c #D79C0C",
"W  c #C87F8B",
"Q  c #B98490",
"!  c #BC96A3",
"~  c #BD9DAB",
"^  c #BDA5B3",
"/  c #BDAEBD",
"(  c #C6838F",
")  c #C68691",
"_  c #C78995",
"`  c #C596A3",
"'  c #C499A6",
"]  c #C49DAB",
"[  c #C4A1AE",
"{  c #C4ABAF",
"}  c #C4B0AE",
"|  c #C3A5B3",
" . c #C3A8B7",
".. c #C2ADBC",
"X. c #C3B2B4",
"o. c #C2B0BF",
"O. c #C2B9BF",
"+. c #BEB3C4",
"@. c #BEBCCD",
"#. c #BEBFD0",
"$. c #C1B3C2",
"%. c #C2BAC4",
"&. c #C1B7C8",
"*. c #C0BCCD",
"=. c #C0BFD0",
"-. c #BFC1CF",
";. c #BEC3D4",
":. c #BEC7D9",
">. c #BEC8DA",
",. c #C0C1CD",
/* pixels */
">.>.>.>.>.>.>.>.>.>.>.>.>.>.>.>.>.>.>.>.>.>.>.>.>.>.>.>.>.>.>.>.>.>.>.>.>.>.>.>.>.>.>.>.>.>.>.>.>.>.",
">.>.>.>.>.>.>.>.>.>.>.>.>.>.>.>.>.>.>.>.>.>.>.>.>.>.>.>.>.>.>.>.>.>.>.>.>.>.>.>.>.>.>.>.>.>.>.>.>.>.",
">.>.>.>.>.>.>.>.>.>.>.>.>.>.>.>.>.>.>.>.>.>.>.>.>.>.>.>.>.>.>.>.>.>.>.>.>.>.>.>.>.>.>.>.>.>.>.>.>.>.",
">.>.>.>.>.>.>.>.>.>.>.>.>.>.>.>.>.>.>.>.>.>.>.>.>.>.>.>.>.>.>.>.>.>.>.>.>.>.>.>.>.>.>.>.>.>.>.>.>.>.",
">.>.>.>.>.>.>.>.>.>.>.>.>.>.>.>.>.>.>.>.>.>.>.>.>.>.>.>.>.>.>.>.>.>.>.>.>.>.>.>.>.>.>.>.>.>.>.>.>.>.",
">.>.>.>.>.>.>.>.>.>.>.>.>.>.>.>.>.>.>.>.>.>.>.>.>.>.>.>.>.>.>.>.>.>.>.>.>.>.>.>.>.>.>.>.>.>.>.>.>.>.",
">.>.>.>.>.>.>.>.>.>.>.>.>.>.>.>.>.>.>.>.>.>.>.>.>.>.>.>.>.>.>.>.>.>.>.>.>.>.>.>.>.>.>.>.>.>.>.>.>.>.",
">.>.>.>.>.>.>.>.>.>.>.>.>.>.>.>.>.>.>.>.>.>.>.>.>.>.>.>.>.>.>.>.>.>.>.>.>.>.>.>.>.>.>.>.>.>.>.>.>.>.",
">.>.>.>.>.>.>.>.>.>.>.>.>.>.>.>.>.>.>.>.>.>.>.>.>.>.:.K / >.>.>.>.>.>.>.>.>.>.>.>.>.>.>.>.>.>.>.>.>.",
">.>.>.>.>.>.>.>.>.>.>.>.>.>.>.>.>.>.>.>.>.>.>.>.:.;.L Q Y @.>.>.>.>.>.>.>.>.>.>.>.>.>.>.>.>.>.>.>.>.",
">.>.>.>.>.>.>.>.>.>.>.>.>.>.>.>.>.>.>.>.>.>.>.>.:.@.h ..k ..>.>.>.>.>.>.>.>.>.>.>.>.>.>.>.>.>.>.>.>.",
">.>.>.>.>.>.>.>.>.>.>.>.>.>.>.>.>.>.>.>.>.>.>.>.K G _ P @ / >.>.>.>.>.>.>.>.>.>.>.>.>.>.>.>.>.>.>.>.",
">.>.>.>.>.>.>.>.>.>.>.>.>.>.>.>.>.>.>.>.>.;.T F 8 ) #.' ! ;.:.>.>.>.>.>.>.>.>.>.>.>.>.>.>.>.>.>.>.>.",
">.>.>.>.>.>.>.>.>.>.>.>.>.>.>.>.>.>.>.>.:.P O 1 ) ;.>.>.:.>.>.>.>.>.>.>.>.>.>.>.>.>.>.>.>.>.>.>.>.>.",
">.>.>.>.>.>.>.>.>.>.>.>.>.>.>.>.>.>.>.:.U O 1 ) @.:.>.>.>.>.>.>.>.>.>.>.>.>.>.>.>.>.>.>.>.>.>.>.>.>.",
">.>.>.>.>.>.>.>.>.>.>.>.>.>.>.>.>.>.>.J . 7 ) ;.>.:.>.>.>.>.>.>.>.>.>.>.>.>.>.>.>.>.>.>.>.>.>.>.>.>.",
">.>.>.>.>.>.>.>.>.>.>.>.>.>.>.>.>.>.>.& 1 2 f $.,.>.>.>.>.>.>.>.>.>.>.>.>.>.>.>.>.>.>.>.>.>.>.>.>.>.",
">.>.>.>.>.>.>.>.>.>.>.>.>.>.>.>.>.;.G 6 2 2 2 s ..>.,.F f g $.>.>.>.>.>.>.>.>.>.>.>.>.>.>.>.>.>.>.>.",
">.>.>.>.>.>.>.>.>.>.>.>.>.>.>.>.>.#.= X 2 2 2 2 , G G 1 2 2 [ :.>.>.>.>.>.>.>.>.>.>.>.>.>.>.>.>.>.>.",
">.>.>.>.>.>.>.>.>.>.>.>.>.>.>.>.>.#.% 1 2 2 2 2 6 2 2 2 2 2 s &.>.>.>.>.>.>.>.>.>.>.>.>.>.>.>.>.>.>.",
">.>.>.>.>.>.>.>.>.>.>.>.>.>.>.>.>.;.u 2 2 2 2 1 2 2 2 2 6 _ [ =.>.>.>.>.>.>.>.>.>.>.>.>.>.>.>.>.>.>.",
">.>.>.>.>.>.>.>.>.>.>.>.>.>.>.>.;.P 6 2 2 2 2 2 2 2 2 2 2 y g g ..>.>.>.>.>.>.>.>.>.>.>.>.>.>.>.>.>.",
">.>.>.>.>.>.>.>.>.>.>.>.>.>.>.>.:.: 2 2 2 2 2 2 2 2 2 2 2 2 W ] Y $.>.>.>.>.>.>.>.>.>.>.>.>.>.>.>.>.",
">.>.>.>.>.>.>.>.>.>.>.>.>.>.>.>.:.- 1 2 2 2 2 2 2 2 2 2 2 2 y $.z o.>.>.>.>.>.>.>.>.>.>.>.>.>.>.>.>.",
">.>.>.>.>.>.>.>.>.>.>.>.>.>.>.>.,.; 2 2 2 2 2 2 2 2 2 2 2 2 2 g e o.>.>.>.>.>.>.>.>.>.>.>.>.>.>.>.>.",
">.>.>.>.>.>.>.>.>.>.>.>.>.>.>.>.>.- 2 2 b n b 5 v v 5 b b 5 2 ] / :.>.>.>.>.>.>.>.>.>.>.>.>.>.>.>.>.",
">.>.>.>.>.>.>.>.>.>.>.>.>.>.>.>.:.h 2 2 b r 5 6 4 5 6 5 r v 4 g ..:.:.>.>.>.>.>.>.>.>.>.>.>.>.>.>.>.",
">.>.>.>.>.>.>.>.>.>.>.>.>.>.>.>.:...t 2 5 5 v b b b b b 5 b 5 6 ] < s @.>.>.>.>.>.>.>.>.>.>.>.>.>.>.",
">.>.>.>.>.>.>.>.>.>.>.>.>.>.>.>.>.;.C 4 v b n m m m m m b r 6 6 ] % 1 @.>.>.:.:.>.>.>.>.>.>.>.>.>.>.",
">.>.>.>.>.>.>.>.>.>.>.>.,.U $.,.>.=.a b m n m m m m m n m n 5 6 ] % 2 +.:.,.:.:.>.>.>.>.>.>.>.>.>.>.",
">.>.>.>.>.>.>.>.>.>.>.>.>.=.g ..>.,.p b m V N m m m V N m m n 4 ] p 2 w e y y p  .:.>.>.>.>.>.>.>.>.",
">.>.>.>.>.>.>.>.>.>.>.>.>.#.> ~ >.,.p b N V N m n N V N m n m 5 [ S b 0 ) | ..] U @.>.>.>.>.>.>.>.>.",
">.>.>.>.>.>.>.>.>.>.>.>.>.>.@.G $.=.p b m E B m m N E N m m m q | ,.- . w e / d | :.>.>.>.>.>.>.>.>.",
">.>.>.>.>.>.>.>.>.>.>.>.z  .#.: +.,.p b m E B m m m E N m m n 4 | ,.Z 4 2 6 p ..:.:.>.>.>.>.>.>.>.>.",
">.>.>.>.>.>.>.>.>.>.>.>.# ~ #.S O.,.p b m E B m m N E N m m 5 6 ] z M o 1 2  .>.:.>.>.>.>.>.>.>.>.>.",
">.>.>.>.>.>.>.>.>.>.>.>.> f s M { ,.p b m V N m m m V N m m 5 y  .$.%.i X 2 ..>.:.>.>.>.>.>.>.>.>.>.",
">.>.>.>.>.>.>.>.>.>.>.>.@.+.% c t [ p b m m m m m m m m m m q  .:.:.>.&.s 2 ..>.>.>.>.>.>.>.>.>.>.>.",
">.>.>.>.>.>.>.>.>.>.>.>.:.#.s X b ..=.d b m m n n m m m n 5 0 &.>.:.:.:.D 4  .>.>.>.>.>.>.>.>.>.>.>.",
">.>.>.>.>.>.>.>.>.>.>.>.:.;.& 1 y  .,.l 4 b n 5 6 b n n 5 w | #.=.:.:.:.-.# 0 @.>.>.>.>.>.>.>.>.>.>.",
">.>.>.>.>.>.>.>.>.>.>.>.>.;.* 2 [ ,.*.| e t q 6 6 4 t t a [ ,.z d | :.:.#.p 2 @.>.>.>.>.>.>.>.>.>.>.",
">.>.>.>.>.>.>.>.>.>.>.>.>.;.s 2 ..#.g w 6 ` x 6 0 e ' @.*.:.:.# v e $.>.*.p 2 *.>.>.>.>.>.>.>.>.>.>.",
">.>.>.>.>.>.>.>.>.>.>.>.>.;.* 7 $.;.g 6 M } %.$.*.@.:.-.-.-.j b 5 w ..>.#.p w @.>.>.>.>.>.>.>.>.>.>.",
">.>.>.>.>.>.>.>.>.>.>.>.>.,.s ' :.>.>.s b n n t | :.>.* c n n 4 0 o.>.>.$.# / :.>.>.>.>.>.>.>.>.>.>.",
">.>.>.>.>.>.>.>.>.>.>.>.>.;.& 9 $.>.>.- 4 4 4 [ :.:.>.j O 3 4 2 w o.>.,.G . / >.>.>.>.>.>.>.>.>.>.>.",
">.>.>.>.>.>.>.>.>.>.>.>.>.;.% 2 $.:.>.& 2 2 2 ..:.>.>.*.>     2 w $.:.;.g 0 ..>.>.>.>.>.>.>.>.>.>.>.",
">.>.>.>.>.>.>.>.>.>.>.>.>.;.> 1 ..>.>.;.# 2 w o.:.>.>.>.#.f . 6 [ :.:.d = / :.:.>.>.>.>.>.>.>.>.>.>.",
">.>.>.>.>.>.>.>.>.>.>.>.>.:.:.J +.:.:.:.% 7 ] >.>.>.>.>.>.:.f 6  .>.>.>.:.>.>.>.>.>.>.>.>.>.>.>.>.>.",
">.>.>.>.>.>.>.>.>.>.>.>.>.:.:.@.:.>.>.:.* 7 ] >.>.>.>.>.:.:.; 6 | >.>.>.>.>.>.>.>.>.>.>.>.>.>.>.>.>.",
">.>.>.>.>.>.>.>.>.>.>.>.>.>.>.>.>.>.>.:.u j | >.>.>.>.>.>.>.; f  .>.>.>.>.>.>.>.>.>.>.>.>.>.>.>.>.>.",
">.>.>.>.>.>.>.>.>.>.>.>.>.>.>.>.>.>.>.:.% ^ >.>.>.>.>.>.>.>.; +.>.>.>.>.>.>.>.>.>.>.>.>.>.>.>.>.>.>."
};
