/* XPM */
static char *enemy11708548464[] = {
/* columns rows colors chars-per-pixel */
"50 50 111 2 ",
"   c #B20B0B",
".  c #BE0B0B",
"X  c #B3120B",
"o  c #AD1111",
"O  c #B91010",
"+  c #B21F21",
"@  c #BA1F21",
"#  c #AF2225",
"$  c #AF292C",
"%  c #B32325",
"&  c #B02629",
"*  c #B12A2D",
"=  c #B92A2C",
"-  c #B22D30",
";  c #B92D30",
":  c #B33235",
">  c #BA3235",
",  c #B43539",
"<  c #B43B3F",
"1  c #CE0D0D",
"2  c #D60D0C",
"3  c #D7140D",
"4  c #D71B0C",
"5  c #D10F10",
"6  c #CD1415",
"7  c #CF1C1D",
"8  c #D41313",
"9  c #D61912",
"0  c #D61718",
"q  c #D51A1C",
"w  c #D73E0C",
"e  c #D5241C",
"r  c #D41F20",
"t  c #CE2325",
"y  c #CC2628",
"u  c #CA2B2E",
"i  c #D42325",
"p  c #D42924",
"a  c #D22629",
"s  c #D42B2D",
"d  c #D3312E",
"f  c #CA2E31",
"g  c #D22E32",
"h  c #CB3336",
"j  c #CC3539",
"k  c #D23235",
"l  c #D2353A",
"z  c #D13A3E",
"x  c #CF450E",
"c  c #CF4C0E",
"v  c #D6440C",
"b  c #D64D0C",
"n  c #D7550C",
"m  c #D75B0C",
"M  c #CF5619",
"N  c #D05417",
"B  c #D7630C",
"V  c #D76D0C",
"C  c #D77D0C",
"Z  c #D6621D",
"A  c #D35A29",
"S  c #D1403F",
"D  c #CF612B",
"F  c #D4652C",
"G  c #D46B2C",
"H  c #D36E31",
"J  c #B33D42",
"K  c #D13F44",
"L  c #B34247",
"P  c #B24449",
"I  c #B44C51",
"U  c #B4565D",
"Y  c #B5636C",
"T  c #CE484E",
"R  c #D14045",
"E  c #D0454A",
"W  c #CD4E55",
"Q  c #CE545A",
"!  c #CD585F",
"~  c #D17540",
"^  c #CD5960",
"/  c #D7800C",
"(  c #D79C0C",
")  c #BB9AA7",
"_  c #BEB0BF",
"`  c #C6818C",
"'  c #C8828D",
"]  c #C48E9A",
"[  c #C6909C",
"{  c #C594A1",
"}  c #C599A6",
"|  c #C49EAC",
" . c #C4A2AD",
".. c #C4ABAC",
"X. c #C3A6B4",
"o. c #C2A8B6",
"O. c #C2ADBC",
"+. c #C3B2B1",
"@. c #C2B9BF",
"#. c #BCB3C3",
"$. c #BDB7C8",
"%. c #BEBCCC",
"&. c #BEBFD0",
"*. c #C1B3C3",
"=. c #C1B9C4",
"-. c #C1B7C8",
";. c #C0BDCD",
":. c #C0BFD0",
">. c #BEC3D4",
",. c #BEC7D9",
"<. c #BEC8DA",
/* pixels */
"<.<.<.<.<.<.<.<.<.<.<.<.<.<.<.<.<.<.<.<.<.<.<.<.<.<.<.<.<.<.<.<.<.<.<.<.<.<.<.<.<.<.<.<.<.<.<.<.<.<.",
"<.<.<.<.<.<.<.<.<.<.<.<.<.<.<.<.<.<.<.<.<.<.<.<.<.<.<.<.<.<.<.<.<.<.<.<.<.<.<.<.<.<.<.<.<.<.<.<.<.<.",
"<.<.<.<.<.<.<.<.<.<.<.<.<.<.<.<.<.<.<.<.<.<.<.<.<.<.<.<.<.<.<.<.<.<.<.<.<.<.<.<.<.<.<.<.<.<.<.<.<.<.",
"<.<.<.<.<.<.<.<.<.<.<.<.<.<.<.<.<.<.<.<.<.<.<.<.<.<.<.<.<.<.<.<.<.<.<.<.<.<.<.<.<.<.<.<.<.<.<.<.<.<.",
"<.<.<.<.<.<.<.<.<.<.<.<.<.<.<.<.<.<.<.<.<.<.<.<.<.<.<.<.<.<.<.<.<.<.<.<.<.<.<.<.<.<.<.<.<.<.<.<.<.<.",
"<.<.<.<.<.<.<.<.<.<.<.<.<.<.<.<.<.<.<.<.<.<.<.<.<.<.<.<.<.<.<.<.<.<.<.<.<.<.<.<.<.<.<.<.<.<.<.<.<.<.",
"<.<.<.<.<.<.<.<.<.<.<.<.<.<.<.<.<.<.<.<.<.<.<.<.<.<.<.! O.<.<.<.<.<.<.<.<.<.<.<.<.<.<.<.<.<.<.<.<.<.",
"<.<.<.<.<.<.<.<.<.<.<.<.<.<.<.<.<.<.<.<.<.<.<.<.<.:.^ ] Q *.<.<.<.<.<.<.<.<.<.<.<.<.<.<.<.<.<.<.<.<.",
"<.<.<.<.<.<.<.<.<.<.<.<.<.<.<.<.<.<.<.<.<.<.<.<.<.%.> #.l O.<.<.<.<.<.<.<.<.<.<.<.<.<.<.<.<.<.<.<.<.",
"<.<.<.<.<.<.<.<.<.<.<.<.<.<.<.<.<.<.<.<.<.>.Y T O.,.) W r O.<.<.<.<.<.<.<.<.<.<.<.<.<.<.<.<.<.<.<.<.",
"<.<.<.<.<.<.<.<.<.<.<.<.<.<.<.<.<.<.<.<.<.%.j ` ;.,.<.} { >.<.<.<.<.<.<.<.<.<.<.<.<.<.<.<.<.<.<.<.<.",
"<.<.<.<.<.<.<.<.<.<.<.<.<.<.<.<.<.<.<.<.<.I 6 O.,.,.<.<.<.<.<.<.<.<.<.<.<.<.<.<.<.<.<.<.<.<.<.<.<.<.",
"<.<.<.<.<.<.<.<.<.<.<.<.<.<.<.<.<.<.<.<.,.u 2 *.<.<.<.<.<.<.<.<.<.<.<.<.<.<.<.<.<.<.<.<.<.<.<.<.<.<.",
"<.<.<.<.<.<.<.<.<.<.<.<.<.<.<.<.<.<.<.<.R r ` >.<.<.<.<.<.<.I ;.<.<.<.<.<.<.<.<.<.<.<.<.<.<.<.<.<.<.",
"<.<.<.<.<.<.<.<.<.<.<.<.<.<.<.<.<.<.<.>.O q | <.<.<.<.<.,.,.f *.<.<.<.<.<.<.<.<.<.<.<.<.<.<.<.<.<.<.",
"<.<.<.<.<.<.<.<.<.<.<.<.<.<.<.<.<.<.<.T 6 0 | <.<.<.<.<.>.P 8 -.<.<.<.<.<.<.<.<.<.<.<.<.<.<.<.<.<.<.",
"<.<.<.<.<.<.<.<.<.<.<.<.<.<.<.<.<.<.<.s 2 2 s -.<.<.<.,.U o 1 -.<.<.<.<.<.<.<.<.<.<.<.<.<.<.<.<.<.<.",
"<.<.<.<.<.<.<.<.<.<.<.<.<.<.<.<.<.>.K O 2 2 2 i X.<.<.J 8 2 2 -.<.<.<.<.<.<.<.<.<.<.<.<.<.<.<.<.<.<.",
"<.<.<.<.<.<.<.<.<.<.<.<.<.<.<.<.,.:.i 1 2 2 2 2 k E o.} ; 5 ` >.<.<.<.<.<.<.<.<.<.<.<.<.<.<.<.<.<.<.",
"<.<.<.<.<.<.<.<.<.<.<.<.<.<.<.<.,.&.% 1 2 2 2 2 2 2 i k ] o.&.<.<.<.<.<.<.<.<.<.<.<.<.<.<.<.<.<.<.<.",
"<.<.<.<.<.<.<.<.<.<.<.<.<.<.<.<.<.>.# 1 2 2 2 2 2 2 2 2 g z z %.,.,.<.<.<.<.<.<.<.<.<.<.<.<.<.<.<.<.",
"<.<.<.<.<.<.<.<.<.<.<.<.<.<.<.<.,.E 5 2 2 2 2 2 2 2 2 2 2 2 ] l O.<.<.<.<.<.<.<.<.<.<.<.<.<.<.<.<.<.",
"<.<.<.<.<.<.<.<.<.<.<.<.<.<.<.<.>.; 2 2 2 2 2 2 2 2 1 1 2 2 X.r o.,.<.<.<.<.<.<.<.<.<.<.<.<.<.<.<.<.",
"<.<.<.<.<.<.<.<.<.<.<.<.<.<.<.<.,.* 2 2 2 2 2 2 2 2 2 2 2 2 i q o.<.<.<.<.<.<.<.<.<.<.<.<.<.<.<.<.<.",
"<.<.<.<.<.<.<.<.<.<.<.<.<.<.<.<.,.; 2 2 2 2 2 2 2 2 2 2 2 2 2 [ >.,.<.<.<.<.<.<.<.<.<.<.<.<.<.<.<.<.",
"<.<.<.<.<.<.<.<.<.<.<.<.<.<.<.<.,.f 2 w n 4 w 3 w 2 2 v 4 2 2 *.<.,.<.<.<.<.<.<.<.<.<.<.<.<.<.<.<.<.",
"<.<.<.<.<.<.<.<.<.<.<.<.<.<.<.<.,.h 3 9 4 3 4 3 4 3 2 4 w 3 2 d O.>.>.,.<.<.<.<.<.<.<.<.<.<.<.<.<.<.",
"<.<.<.<.<.<.<.<.<.<.<.<.<.<.<.<.<.o.q 3 w n b b b b b 4 4 2 2 3 | J & %.<.<.<.<.<.<.<.<.<.<.<.<.<.<.",
"<.<.<.<.<.<.<.<.<.<.<.<.<.<.,.,.<.:.i v n m m m m m m b v 3 2 2 | t   %.<.<.<.<.<.<.<.<.<.<.<.<.<.<.",
"<.<.<.<.<.<.<.<.<.<.<.<.<.<.<.R *.:.i b m n m m m m m n m n 4 2 | % 1 #.J & r :.,.<.<.<.<.<.<.<.<.<.",
"<.<.<.<.<.<.<.<.<.<.<.<.<.<.<.l o.:.i b B C B m m m C B m m 4 3 | $ 2 0  .%.i r O.<.<.<.<.<.<.<.<.<.",
"<.<.<.<.<.<.<.<.<.<.<.<.<.<.<.*.R X.i b m C B m n B C B m n n 3 o.#.A 5 { , r o.>.<.<.<.<.<.<.<.<.<.",
"<.<.<.<.<.<.<.<.<.<.<.<.<.<.<.<.F ..p b m ( V m m m ( B m m m 3 X.<.d 2 q 2 ) <.<.<.<.<.<.<.<.<.<.<.",
"<.<.<.<.<.<.<.<.<.<.<.<.<.L O.<.G ..i b m ( V m m B ( B m m n 9 X.>.G . 2 2 *.<.<.<.<.<.<.<.<.<.<.<.",
"<.<.<.<.<.<.<.<.<.<.<.<.<.z o.:.F ..p b m ( V m m B ( B m m 4 2 | : N X 5 2 O.<.<.<.<.<.<.<.<.<.<.<.",
"<.<.<.<.<.<.<.<.<.<.<.<.<.J t p 9 | p b m C B m m m / B m m 4 r o.#.=.F 4 2 O.,.<.<.<.<.<.<.<.<.<.<.",
"<.<.<.<.<.<.<.<.<.<.<.<.<.$.% v 4 | i b m m m m m m m m m m 4 o.,.,.<.%.F 3 O.,.<.<.<.<.<.<.<.<.<.<.",
"<.<.<.<.<.<.<.<.<.<.<.<.<.>.# c 4 X.;.s n m m n n m m m n 4 0 -.<.,.,.,.: 2 O.<.<.<.<.<.<.<.<.<.<.<.",
"<.<.<.<.<.<.<.<.<.<.,.<.,.>.& c e X.<.k b m n 3 2 b n n 4 0  .;.,.,.<.<.%.i 2 %.<.<.<.<.<.<.<.<.<.<.",
"<.<.<.<.<.<.<.<.<.<.,.,.,.>.y 4  .,.$.o.e e 9 2 2 3 e p p | ~ p } ,.<.<.&.% 2 %.<.<.<.<.<.<.<.<.<.<.",
"<.<.<.<.<.<.<.<.<.<.<.<.<.>.% c =.>.$ M 9 { z 3 3 q } %.;.,.H 3 q *.<.<.&.+ 3 ;.<.<.<.<.<.<.<.<.<.<.",
"<.<.<.<.<.<.<.<.<.<.<.<.<.>.a 9 O.>.* c 9  .=.$.;.%.,.>.$.- v 3 0 *.<.<.&.i 0 ;.<.<.<.<.<.<.<.<.<.<.",
"<.<.<.<.<.<.<.<.<.<.<.<.,.>.y } ,.,.,.* 3 b n Z +.<.<.# v 3 2 2 8 *.<.<.#.r O.<.<.<.<.<.<.<.<.<.<.<.",
"<.<.<.<.<.<.<.<.<.<.<.<.,.>.% 7 *.,.,.* 2 3 3  .,.<.<.h 9 2 2 2 8 O.,.>.K 5 O.<.<.<.<.<.<.<.<.<.<.<.",
"<.<.<.<.<.<.<.<.<.<.<.<.<.>.a 2 O.,.,.g 2 2 2 O.,.<.<.;., 2 2 2 0 *.<.:.s 8 O.<.<.<.<.<.<.<.<.<.<.<.",
"<.<.<.<.<.<.<.<.<.<.<.<.<.>.k 2 *.<.<.:.+ 2 0 *.<.<.<.<.&.- 1 5  .<.,.g i O.<.<.<.<.<.<.<.<.<.<.<.<.",
"<.<.<.<.<.<.<.<.<.<.<.<.<.<.,.E *.<.,.,.+ 6 | ,.<.<.<.<.<.,.- 2 X.<.<.,.<.<.<.<.<.<.<.<.<.<.<.<.<.<.",
"<.<.<.<.<.<.<.<.<.<.<.<.<.<.<.;.,.<.<.,.% 6 | <.<.<.<.<.<.<.; 5 X.<.<.<.<.<.<.<.<.<.<.<.<.<.<.<.<.<.",
"<.<.<.<.<.<.<.<.<.<.<.<.<.<.<.<.<.<.<.,.i k X.<.<.<.<.<.<.<.g g O.<.<.<.<.<.<.<.<.<.<.<.<.<.<.<.<.<.",
"<.<.<.<.<.<.<.<.<.<.<.<.<.<.<.<.<.<.<.<.i X.<.<.<.<.<.<.<.<.g *.,.<.<.<.<.<.<.<.<.<.<.<.<.<.<.<.<.<."
};
