/* XPM */
static char *enemy51708548465[] = {
/* columns rows colors chars-per-pixel */
"50 50 106 2 ",
"   c #AE0A0A",
".  c #B40D0D",
"X  c #BA0C0C",
"o  c #B0140E",
"O  c #AE1C1E",
"+  c #B41213",
"@  c #AF1F21",
"#  c #B11E20",
"$  c #AF2223",
"%  c #AF282B",
"&  c #B22224",
"*  c #B82224",
"=  c #B2292C",
"-  c #B22E31",
";  c #B13335",
":  c #B3363A",
">  c #B43A3E",
",  c #CB0D0D",
"<  c #D60C0C",
"1  c #CF110E",
"2  c #D7140D",
"3  c #D71C0C",
"4  c #D20F10",
"5  c #CB1213",
"6  c #D51313",
"7  c #D71911",
"8  c #D41718",
"9  c #D41B1C",
"0  c #D7260C",
"q  c #D5241D",
"w  c #D52B1F",
"e  c #D51E20",
"r  c #CD2325",
"t  c #D42325",
"y  c #D32A25",
"u  c #D22628",
"i  c #D22A2D",
"p  c #CD2F32",
"a  c #D22E32",
"s  c #CB3033",
"d  c #CB393E",
"f  c #D23235",
"g  c #D23A36",
"h  c #D2363A",
"j  c #CF4C0E",
"k  c #D7430C",
"l  c #D74D0C",
"z  c #D7550D",
"x  c #D75B0C",
"c  c #CF5519",
"v  c #D65517",
"b  c #D7630C",
"n  c #D76D0C",
"m  c #D77D0C",
"M  c #D55E22",
"N  c #D4662D",
"B  c #D46B2B",
"V  c #D36630",
"C  c #D2743D",
"Z  c #B43C40",
"A  c #D13D42",
"S  c #B24147",
"D  c #B3454A",
"F  c #B3494F",
"G  c #B35157",
"H  c #B35158",
"J  c #B55D65",
"K  c #D04247",
"L  c #D0454A",
"P  c #CF4D53",
"I  c #CC5056",
"U  c #CE545B",
"Y  c #CC656D",
"T  c #D7800C",
"R  c #D79C0C",
"E  c #BA9BA9",
"W  c #BDA5B4",
"Q  c #BDA8B7",
"!  c #BCACBB",
"~  c #C6828D",
"^  c #C78590",
"/  c #C78A96",
"(  c #C5929F",
")  c #C495A2",
"_  c #C59AA7",
"`  c #C49DAB",
"'  c #C4A1AE",
"]  c #C4ACAD",
"[  c #C3A5B4",
"{  c #C3AAB5",
"}  c #C2ADBC",
"|  c #C3B2B4",
" . c #C2B0BF",
".. c #BDB3C3",
"X. c #BDB7C8",
"o. c #BEBCCD",
"O. c #BEBFD0",
"+. c #C1B3C3",
"@. c #C2BAC4",
"#. c #C1B7C8",
"$. c #C0BCCC",
"%. c #C0BFD0",
"&. c #BFC1CF",
"*. c #BEC3D4",
"=. c #BEC7D9",
"-. c #BEC8DA",
/* pixels */
"-.-.-.-.-.-.-.-.-.-.-.-.-.-.-.-.-.-.-.-.-.-.-.-.-.-.-.-.-.-.-.-.-.-.-.-.-.-.-.-.-.-.-.-.-.-.-.-.-.-.",
"-.-.-.-.-.-.-.-.-.-.-.-.-.-.-.-.-.-.-.-.-.-.-.-.-.-.-.-.-.-.-.-.-.-.-.-.-.-.-.-.-.-.-.-.-.-.-.-.-.-.",
"-.-.-.-.-.-.-.-.-.-.-.-.-.-.-.-.-.-.-.-.-.-.-.-.-.-.-.-.-.-.-.-.=.-.-.-.-.-.-.-.-.-.-.-.-.-.-.-.-.-.",
"-.-.-.-.-.-.-.-.-.-.-.-.-.-.-.-.-.-.-.-.-.-.-.-.-.-.-.-.-.-.-.Y #.-.-.-.-.-.-.-.-.-.-.-.-.-.-.-.-.-.",
"-.-.-.-.-.-.-.-.-.-.-.-.-.-.-.-.-.-.-.-.-.-.-.-.-.-.-.-.-.-.-.) $.-.-.-.-.-.-.-.-.-.-.-.-.-.-.-.-.-.",
"-.-.-.-.-.-.-.-.-.-.-.-.-.-.-.-.-.-.-.-.-.-.-.-.-.-.-.-.-.-.-.=.-.-.-.-.-.-.-.-.-.-.-.-.-.-.-.-.-.-.",
"-.-.-.-.-.-.-.-.-.-.-.-.-.-.-.-.-.-.-.-.-.-.-.-.-.-.-.-.-.-.-.-.-.-.-.-.-.-.-.-.-.-.-.-.-.-.-.-.-.-.",
"-.-.-.-.-.-.-.-.-.-.-.-.-.-.-.-.-.-.-.-.-.-.-.-.-.-.-.-.-.-.-.-.-.-.-.-.-.-.-.-.-.-.-.-.-.-.-.-.-.-.",
"-.-.-.-.-.-.-.-.-.-.-.-.-.-.-.-.-.-.-.-.-.-.-.-.-.-.-.-.-.-.-.-.-.-.-.-.-.-.-.-.-.-.-.-.-.-.-.-.-.-.",
"-.-.-.-.-.-.-.-.-.-.-.-.-.-.-.-.-.-.-.-.-.-.-.-.-.-.-.-.-.-.-.-.-.-.-.-.-.-.-.-.-.-.-.-.-.-.-.-.-.-.",
"-.-.-.-.-.-.-.-.-.-.-.-.-.-.-.-.-.-.-.-.-.-.-.-.-.-.=.-.-.-.-.-.-.-.-.-.-.-.-.-.-.-.-.-.-.-.-.-.-.-.",
"-.-.-.-.-.-.-.-.-.-.-.-.-.-.-.-.-.-.-.-.-.-.-.-.-.O.U #.-.-.-.-.-.-.-.-.-.-.-.-.-.-.-.-.-.-.-.-.-.-.",
"-.-.-.-.-.-.-.-.-.-.-.-.-.-.-.-.-.-.-.-.-.-.-.=.J > 8 A } -.-.-.-.-.-.-.-.-.-.-.-.-.-.-.-.-.-.-.-.-.",
"-.-.-.-.-.-.-.-.-.-.-.-.-.-.-.-.-.-.-.-.-.-.-.L + , < ) *.-.-.-.=.=.-.-.-.-.-.-.-.-.-.-.-.-.-.-.-.-.",
"-.-.-.-.-.-.-.-.-.-.-.-.-.-.-.-.-.-.-.-.-.O.J 6 5 ~ ) *.*.I } -.*.G ..-.-.-.-.-.-.-.-.-.-.-.-.-.-.-.",
"-.-.-.-.-.-.-.-.-.-.-.-.-.-.-.-.-.-.-.-.*.F 5 2 ~ *.=.=.G ) D o.=.Q *.-.-.-.-.-.-.-.-.-.-.-.-.-.-.-.",
"-.-.-.-.-.-.-.-.-.-.-.-.-.-.-.-.-.-.-.-.L 5 < < a L } *.d } p #.-.-.-.-.-.-.-.-.-.-.-.-.-.-.-.-.-.-.",
"-.-.-.-.-.-.-.-.-.-.-.-.-.-.-.-.-.-.-.S . , < < < 9 [ =.} A ( *.-.-.-.-.-.-.-.-.-.-.-.-.-.-.-.-.-.-.",
"-.-.-.-.-.-.-.-.-.-.-.-.-.-.-.-.-.-.-.%   < < < < 4 a +.*.' O.-.-.-.-.-.-.-.-.-.-.-.-.-.-.-.-.-.-.-.",
"-.-.-.-.-.-.-.-.-.-.-.-.-.-.-.-.-.-.-.% < < < < , , < a } -.-.-.-.-.-.-.-.-.-.-.-.-.-.-.-.-.-.-.-.-.",
"-.-.-.-.-.-.-.-.-.-.-.-.-.-.-.-.-.*.F 5 < < < X < < < < h +.=.=.-.-.-.-.-.-.-.-.-.-.-.-.-.-.-.-.-.-.",
"-.-.-.-.-.-.-.-.-.-.-.-.-.-.-.-.-.O.@ < < < < < < < < < 4 +.=.=.-.-.-.-.-.-.-.-.-.-.-.-.-.-.-.-.-.-.",
"-.-.-.-.-.-.-.-.-.-.-.-.-.-.-.-.=.P + , < < < < < < < < < f +.%.=.-.-.-.-.-.-.-.-.-.-.-.-.-.-.-.-.-.",
"-.-.-.-.-.-.-.-.-.-.-.-.-.-.-.-.=.- , < < < < < < < < < < < ` L [ =.-.-.-.-.-.-.-.-.-.-.-.-.-.-.-.-.",
"-.-.-.-.-.-.-.-.-.-.-.-.-.-.-.-.=.- < < < < < < < < < < < < i ( I #.-.-.-.-.-.-.-.-.-.-.-.-.-.-.-.-.",
"-.-.-.-.-.-.-.-.-.-.-.-.-.-.-.-.=.- . < < k z l 2 < k 2 < < < +.h  .-.-.-.-.-.-.-.-.-.-.-.-.-.-.-.-.",
"-.-.-.-.-.-.-.-.-.-.-.-.-.-.-.-.=.W E # k 0 0 3 2 2 3 < < k 2 f 9 +.*.=.=.-.-.-.-.-.-.-.-.-.-.-.-.-.",
"-.-.-.-.-.-.-.-.-.-.-.-.-.-.-.-.=.*.A 2 3 k l l l l l 3 2 3 < < 9 +.K i } -.-.-.-.-.-.-.-.-.-.-.-.-.",
"-.-.-.-.-.-.-.-.-.-.-.-.-.=.-.=.=.*.r < k z x x x x x l k 2 < 2 / =.i X } -.-.-.-.-.-.-.-.-.-.-.-.-.",
"-.-.-.-.-.-.-.-.-.-.-.-.-.*.> $ ..O.u k x z x x x x x z x z 2 < [ -.i 4 [ -.-.-.-.-.-.-.-.-.-.-.-.-.",
"-.-.-.-.-.-.-.-.-.-.-.-.-.-.O.f { o.u l x m b x x x m b x x z 2 [ -.f . O ..=.-.-.-.-.-.-.-.-.-.-.-.",
"-.-.-.-.-.-.-.-.-.-.-.-.-.-.-.+.> W t l b m b x z b m b x x x 7 [ -.{ 8 + W $.#.=.-.-.-.-.-.-.-.-.-.",
"-.-.-.-.-.-.-.-.-.-.-.-.-.-.-.-.y ` t l x R n x x x R b x x x 2 [ -.C 2 . 8 e e } -.-.-.-.-.-.-.-.-.",
"-.-.-.-.-.-.-.-.-.-.-.-.-.S ..-.N ] t l x R n x x b R b x z z 7 [ *.B 2 . < _ e } -.-.-.-.-.-.-.-.-.",
"-.-.-.-.-.-.-.-.-.-.-.-.=.: W O.B ] t l x R n x x b R n x x 3 < ` f v z 3 < 9 #.=.-.-.-.-.-.-.-.-.-.",
"-.-.-.-.-.-.-.-.-.-.-.-.-.s e y M | t k x T b x x x T x x x 3 e { #.@.B z 2 ` =.=.-.-.-.-.-.-.-.-.-.",
"-.-.-.-.-.-.-.-.-.-.-.-.-.- < l | $.t 2 z x x x x x x x x x 3 } =.=.-.$.B 2 } -.-.-.-.-.-.-.-.-.-.-.",
"-.-.-.-.-.-.-.-.-.-.-.-.-.- , <  .-.&.y l x x x z x x x z 3 6 #.-.=.=.=.g l | =.-.-.-.-.-.-.-.-.-.-.",
"-.-.-.-.-.-.-.-.-.-.-.-.=.- < 8 } -.-.f 2 l z 2 < l z 2 < 7 ` %.=.=.=.-.$.& 6 o.-.-.-.-.-.-.-.-.-.-.",
"-.-.-.-.-.-.-.-.-.-.-.-.-.p < ) =.=.o.{ 9 9 7 < < 2 q t t ` Z y ` =.-.-.$.* < o.-.-.-.-.-.-.-.-.-.-.",
"-.-.-.-.-.-.-.-.-.-.-.-.-.a < [ -.*.- c 7 ) h 6 4 9 _ o.$.=.f l w +.-.-.O.t < %.-.-.-.-.-.-.-.-.-.-.",
"-.-.-.-.-.-.-.-.-.-.-.-.-.> < } =.O.= 1 2 [ @.X.$.O.=.=.O.&.V z 2 6 } =.o.t 8 O.-.-.-.-.-.-.-.-.-.-.",
"-.-.-.-.-.-.-.-.-.-.-.-.-.O.t ` =.=.=.= l z z q [ =.-.=.; l 3 < < < } =.+.@ ! -.-.-.-.-.-.-.-.-.-.-.",
"-.-.-.-.-.-.-.-.-.-.-.-.-.*.u 9 +.=.=.= 2 2 2 ` *.=.=.=.S o < < < < ! *.A . ! -.-.-.-.-.-.-.-.-.-.-.",
"-.-.-.-.-.-.-.-.-.-.-.-.-.O.% < } =.=.a < < < +.=.-.-.-.o.$ , < 6 6 } %.- 4 +.-.-.-.-.-.-.-.-.-.-.-.",
"-.-.-.-.-.-.-.-.-.-.-.-.-.*.- , +.-.-.*.# < 6 +.-.-.-.-.*.f 4 < ` %.=.- r } *.-.-.-.-.-.-.-.-.-.-.-.",
"-.-.-.-.-.-.-.-.-.-.-.-.-.-.-.F ..-.=.=.# 8 ` -.-.-.-.-.-.=.- < [ -.=.=.=.-.-.-.-.-.-.-.-.-.-.-.-.-.",
"-.-.-.-.-.-.-.-.-.-.-.-.-.-.-.X.=.-.=.=.t 8 ` -.-.-.-.-.-.=.- 4 [ -.-.=.-.-.-.-.-.-.-.-.-.-.-.-.-.-.",
"-.-.-.-.-.-.-.-.-.-.-.-.-.-.-.-.-.-.-.=.r p [ -.-.-.-.-.-.-.- a } -.-.-.-.-.-.-.-.-.-.-.-.-.-.-.-.-.",
"-.-.-.-.-.-.-.-.-.-.-.-.-.-.-.-.-.-.-.=.& W -.-.-.-.-.-.-.-.p +.=.-.-.-.-.-.-.-.-.-.-.-.-.-.-.-.-.-."
};
