/* XPM */
static char *a828da141c624caeaec08b6a72c7d696W9ES0bdMCwD2LdHg[] = {
/* columns rows colors chars-per-pixel */
"50 50 163 2 ",
"   c #010101",
".  c #0B0403",
"X  c #0B0805",
"o  c #0C0C0C",
"O  c #120504",
"+  c #1D0807",
"@  c #130E0C",
"#  c #17120C",
"$  c #1C150E",
"%  c #131212",
"&  c #191613",
"*  c #1F1A13",
"=  c #151618",
"-  c #1B1B1C",
";  c #210807",
":  c #2D0C0A",
">  c #240A09",
",  c #350E0D",
"<  c #380F0D",
"1  c #23140F",
"2  c #311806",
"3  c #3E110F",
"4  c #211313",
"5  c #221B13",
"6  c #341414",
"7  c #3C1C1B",
"8  c #2C231A",
"9  c #26211E",
"0  c #32271B",
"q  c #362A1F",
"w  c #1E1F21",
"e  c #1D2021",
"r  c #232526",
"t  c #2A2521",
"y  c #2E2923",
"u  c #242729",
"i  c #272A2C",
"p  c #292B2C",
"a  c #322C25",
"s  c #3A2E22",
"d  c #322728",
"f  c #362D2B",
"g  c #3E3022",
"h  c #3B342C",
"j  c #2F2F31",
"k  c #343435",
"l  c #353739",
"z  c #3A3B3C",
"x  c #3A3838",
"c  c #461311",
"v  c #4A1412",
"b  c #531613",
"n  c #571815",
"m  c #5D1916",
"M  c #581E1A",
"N  c #621A16",
"B  c #6A1C19",
"V  c #661B18",
"C  c #751E1A",
"Z  c #781F1B",
"A  c #760B0B",
"S  c #402F1D",
"D  c #582A08",
"F  c #76300B",
"G  c #7C201C",
"H  c #6D3D19",
"J  c #433425",
"K  c #493523",
"L  c #4A3927",
"P  c #403428",
"I  c #47382A",
"U  c #4D3B2A",
"Y  c #523F29",
"T  c #543E26",
"R  c #594127",
"E  c #57412A",
"W  c #5C452B",
"Q  c #43403D",
"!  c #534B3F",
"~  c #60472B",
"^  c #63492C",
"/  c #44484E",
"(  c #46464A",
")  c #574A4E",
"_  c #494E52",
"`  c #4C5156",
"'  c #4E5359",
"]  c #515157",
"[  c #585857",
"{  c #58575C",
"}  c #52565C",
"|  c #6D4448",
" . c #655748",
".. c #6E6253",
"X. c #716453",
"o. c #7D6F5D",
"O. c #5A5F66",
"+. c #545960",
"@. c #5D636A",
"#. c #606168",
"$. c #66696D",
"%. c #646A72",
"&. c #696F78",
"*. c #6E757D",
"=. c #707479",
"-. c #A5100F",
";. c #83221D",
":. c #8D241E",
">. c #96251F",
",. c #D51413",
"<. c #D31E1E",
"1. c #CF3031",
"2. c #CA3D3F",
"3. c #9C4A0E",
"4. c #844314",
"5. c #A5430F",
"6. c #D55713",
"7. c #D56414",
"8. c #CF7739",
"9. c #AA744E",
"0. c #995F66",
"q. c #897A66",
"w. c #C96267",
"e. c #C8676D",
"r. c #C7737B",
"t. c #91816D",
"y. c #9B8A73",
"u. c #A18F77",
"i. c #A5937B",
"p. c #B6947F",
"a. c #C98767",
"s. c #767C85",
"d. c #7D848E",
"f. c #818791",
"g. c #848C97",
"h. c #868D99",
"j. c #8A919D",
"k. c #B29F86",
"l. c #AA949F",
"z. c #B5A28A",
"x. c #B9A68D",
"c. c #8E96A2",
"v. c #939CA8",
"b. c #98A1AE",
"n. c #9FA8B5",
"m. c #9BA3B1",
"M. c #AEA8B6",
"N. c #A3ACBB",
"B. c #A5A4B1",
"V. c #C19CA7",
"C. c #C2ADA7",
"Z. c #C0A3AF",
"A. c #C1B3B0",
"S. c #A7B0C0",
"D. c #AAB3C2",
"F. c #B3BDCD",
"G. c #BFB8C8",
"H. c #B5BFD0",
"J. c #BEBFD0",
"K. c #B7C1D2",
"L. c #BAC4D5",
"P. c #BDC7D8",
"I. c #BEC8DA",
/* pixels */
"I.I.I.I.I.I.I.I.I.I.I.I.I.I.I.I.I.I.I.I.I.P.D.D.D.D.D.D.D.D.D.L.I.I.I.I.I.I.I.I.I.I.I.I.I.I.I.I.I.I.",
"I.I.I.I.I.I.I.I.I.I.I.I.I.I.I.I.I.I.I.I.I.D.p = = = = = = = = c.I.I.I.I.I.I.I.I.I.I.I.I.I.I.I.I.I.I.",
"I.I.I.I.I.I.I.I.I.I.I.I.I.I.I.I.I.I.L.O.O.{ M b b b b b b b b ) &.P.I.I.I.I.I.I.I.I.I.I.I.I.I.I.I.I.",
"I.I.I.I.I.I.I.I.I.I.I.I.I.I.I.I.I.I.F.    O ;.>.>.>.>.>.>.>.>.: e L.I.I.I.I.I.I.I.I.I.I.I.I.I.I.I.I.",
"I.I.I.I.I.I.I.I.I.I.I.I.I.I.I.I.I.` @ :.:.:.>.>.>.>.>.>.>.>.>.>.G o *.I.I.I.I.I.I.I.I.I.I.I.I.I.I.I.",
"I.I.I.I.I.I.I.I.I.I.I.I.I.I.I.I.I./ . >.>.>.>.>.>.>.>.>.:.:.:.:.C   &.I.I.I.I.I.I.I.I.I.I.I.I.I.I.I.",
"I.I.I.I.I.I.I.I.I.I.I.I.I.I.I.P.F.( O >.>.>.>.>.>.>.>.>.;.G G G B . %.F.P.I.I.I.I.I.I.I.I.I.I.I.I.I.",
"I.I.I.I.I.I.I.I.I.I.I.I.I.I.I.b.= m ;.>.>.>.>.>.>.>.:.G G G G G G B 7 r D.I.I.I.I.I.I.I.I.I.I.I.I.I.",
"I.I.I.I.I.I.I.I.I.I.I.I.I.I.I.v.  N >.>.>.>.>.>.:.:.:.G G G G G G G < o D.I.I.I.I.I.I.I.I.I.I.I.I.I.",
"I.I.I.I.I.I.I.I.I.I.I.I.I.I.I.v.  N >.>.>.>.>.:.G G G G G G G G G G < o D.I.I.I.I.I.I.I.I.I.I.I.I.I.",
"I.I.I.I.I.I.I.I.I.I.I.I.I.I._ f C :.>.;.;.;.;.G G G G G G G G G G G < o D.I.I.I.I.I.I.I.I.I.I.I.I.I.",
"I.I.I.I.I.I.I.I.I.I.I.I.I.I.i ; >.>.>.G G G G G G G G G G G G G G G c 4 j.D.I.I.I.I.I.I.I.I.I.I.I.I.",
"I.I.I.I.I.I.I.I.I.I.I.I.I.I.i + G G G G G G G G G G G G G G G G G G G C . ' I.I.I.I.I.I.I.I.I.I.I.I.",
"I.I.I.I.I.I.I.I.I.I.I.I.I.I.i + G G G G G G G G G G G G G G G G G G G C . ' I.I.I.I.I.I.I.I.I.I.I.I.",
"I.I.I.I.I.I.I.I.I.I.I.I.H.m.d : G G G G G G G G G G G G G G G Z C C C B . ' I.I.I.I.I.I.I.I.I.I.I.I.",
"I.I.I.I.I.I.I.I.I.I.I.I.c.  N G G G G G G G G G G G G G G G G V m m m n . ' I.I.I.I.I.I.I.I.I.I.I.I.",
"I.I.I.I.I.I.I.I.I.I.I.I.c.  N G G G G G G G G G G B B B B B B N m m m n . ' I.I.I.I.I.I.I.I.I.I.I.I.",
"I.I.I.I.I.I.I.I.I.I.I.I.c.  N G G G G G G G G G Z N m m m m m m m m m n . ' I.I.I.I.I.I.I.I.I.I.I.I.",
"I.I.I.I.I.I.I.I.I.I.I.I.c.  N G G G G m m m m m m m m m m m m m m m m n . ' I.I.I.I.I.I.I.I.I.I.I.I.",
"I.I.I.I.I.I.I.I.I.I.I.I.c.  N Z B B B m m m m m m m m m m m m m m m m n . ' I.I.I.I.I.I.I.I.I.I.I.I.",
"I.I.I.I.I.I.I.I.I.I.I.I.c.  N C m m m m m m m m m m m m m m m m m m m n . ' I.I.I.I.I.I.I.I.I.I.I.I.",
"I.I.I.I.I.I.I.I.I.I.I.I.c.  v m m m m m m m m m m m m m m m m m m m m n . ' I.I.I.I.I.I.I.I.I.I.I.I.",
"I.I.I.I.I.I.I.I.I.I.I.I.N.+.7 3 m m m m m m m m m m m m m m m m m m c 6 ] f.I.I.I.I.I.I.I.I.I.I.I.I.",
"I.I.I.I.I.I.I.I.I.I.I.I.P.G.l 4 n n n m m m m m m m m m n n n n n n 6 w M.J.I.I.I.I.I.I.I.I.I.I.I.I.",
"I.I.I.I.I.I.I.I.I.I.I.I.Z.1.l.f.. . O m m m m m m m m m > . . . . . #.B.2.r.I.I.I.I.I.I.I.I.I.I.I.I.",
"I.I.I.I.I.I.I.I.I.I.I.I.V.,.e.0.  % - , , , , , , , , , 1 #   % =   | r.<.w.I.I.I.I.I.I.I.I.I.I.I.I.",
"I.I.I.I.I.I.I.I.I.I.I.I.V.,.,.-.  u l                   8 q   p k   A ,.,.w.I.I.I.I.I.I.I.I.I.I.I.I.",
"I.I.I.I.I.I.I.I.I.I.I.I.C.6.6.5.  % -   $ q q q q q q q g q   & -   F 6.6.a.I.I.I.I.I.I.I.I.I.I.I.I.",
"I.I.I.I.I.I.I.I.I.I.I.A.p.3.3.4.a h h   5 J L J J J J L J q   y h a H 3.3.9.C.P.I.I.I.I.I.I.I.I.I.I.",
"I.I.I.I.I.I.I.I.I.I.I.8.3.    t x.i.t.  5 J ~ Y J J U ^ L q   X.u.x.!     D 7.L.I.I.I.I.I.I.I.I.I.I.",
"I.I.I.I.I.I.I.I.I.I.I.U K t.t.y.x.i.t.  5 J L Y W W E L J q   X.u.x.i.t.t. .2 L.I.I.I.I.I.I.I.I.I.I.",
"I.I.I.I.I.I.I.I.I.I.I.u a x.z.k.k.q...l f 0 L E ^ ^ W L q a l  .o.k.k.k.x...  L.I.I.I.I.I.I.I.I.I.I.",
"I.I.I.I.I.I.I.I.I.I.I.u a x.i.y.y.h o I.%.X R ^ ^ ^ ^ ^ $ p I.z & y.y.y.z...  L.I.I.I.I.I.I.I.I.I.I.",
"I.I.I.I.I.I.I.I.I.I.I.c.=.h a a a $.h.I.%.X J E ^ ^ W U # p I.v.s.a a a h [ g.P.I.I.I.I.I.I.I.I.I.I.",
"I.I.I.I.I.I.I.I.I.I.I.I.v.- - - - g.I.I.%.X g Y ^ ^ W J @ p I.I.N.- - - - @.I.I.I.I.I.I.I.I.I.I.I.I.",
"I.I.I.I.I.I.I.I.I.I.I.I.P.K.K.K.K.P.I.I.%.X R ^ ^ ^ ^ ^ $ p I.I.P.L.K.K.K.L.I.I.I.I.I.I.I.I.I.I.I.I.",
"I.I.I.I.I.I.I.I.I.I.I.I.I.I.I.I.I.I.L.` z 8 L E ^ ^ W U 0 y ` n.I.I.I.I.I.I.I.I.I.I.I.I.I.I.I.I.I.I.",
"I.I.I.I.I.I.I.I.I.I.I.I.I.I.I.I.I.I.F.  * P P Y ~ ~ E P P a   j.I.I.I.I.I.I.I.I.I.I.I.I.I.I.I.I.I.I.",
"I.I.I.I.I.I.I.I.I.I.I.I.I.I.I.I.I.I.F.  - z z h J J h z z j   j.I.I.I.I.I.I.I.I.I.I.I.I.I.I.I.I.I.I.",
"I.I.I.I.I.I.I.I.I.I.I.I.I.I.I.I.I.I.F.  - z z p 5 5 t z z j   j.I.I.I.I.I.I.I.I.I.I.I.I.I.I.I.I.I.I.",
"I.I.I.I.I.I.I.I.I.I.I.I.I.I.I.I.I.I.F.  - z z w     % z z j   j.I.I.I.I.I.I.I.I.I.I.I.I.I.I.I.I.I.I.",
"I.I.I.I.I.I.I.I.I.I.I.I.I.I.I.I.I.' % l z z y %     o t k z l - p L.I.I.I.I.I.I.I.I.I.I.I.I.I.I.I.I.",
"I.I.I.I.I.I.I.I.I.I.I.I.I.I.I.I.I./   z z z t %     o 9 k z z % w L.I.I.I.I.I.I.I.I.I.I.I.I.I.I.I.I.",
"I.I.I.I.I.I.I.I.I.I.I.I.I.I.I.I.I./   z z z t & o o % 9 k z z % w L.I.I.I.I.I.I.I.I.I.I.I.I.I.I.I.I.",
"I.I.I.I.I.I.I.I.I.I.I.I.I.I.I.I.I./   W Y s o } S.S.s.  0 I W $ w L.I.I.I.I.I.I.I.I.I.I.I.I.I.I.I.I.",
"I.I.I.I.I.I.I.I.I.I.I.I.I.I.I.F.d.Q 5 ^ Y s   O.I.I.g.  8 L ^ 0 a d.N.I.I.I.I.I.I.I.I.I.I.I.I.I.I.I.",
"I.I.I.I.I.I.I.I.I.I.I.I.I.I.I.v.  S ^ ^ Y s   O.I.I.g.  8 L ^ ^ T   &.I.I.I.I.I.I.I.I.I.I.I.I.I.I.I.",
"I.I.I.I.I.I.I.I.I.I.I.I.I.I.I.v.  0 L L J s   O.I.I.g.  8 J L L g   &.I.I.I.I.I.I.I.I.I.I.I.I.I.I.I.",
"I.I.I.I.I.I.I.I.I.I.I.I.I.I.I.v.  & 8 8 8 5   O.I.I.g.  * 8 8 8 5   &.I.I.I.I.I.I.I.I.I.I.I.I.I.I.I.",
"I.I.I.I.I.I.I.I.I.I.I.I.I.I.I.v.              O.I.I.g.              &.I.I.I.I.I.I.I.I.I.I.I.I.I.I.I."
};
