/* XPM */
static char *f84dcaa304424aacc5acd89b69342a4aRMSZyrp9yDqBjZAX[] = {
/* columns rows colors chars-per-pixel */
"50 50 186 2 ",
"   c #010101",
".  c #0A0504",
"X  c #0B0906",
"o  c #0C0B0B",
"O  c #150605",
"+  c #1A0606",
"@  c #1E0807",
"#  c #1D0A09",
"$  c #110D09",
"%  c #1A140E",
"&  c #15100C",
"*  c #121213",
"=  c #1C1612",
"-  c #1E1915",
";  c #161819",
":  c #1D1B1A",
">  c #161817",
",  c #220908",
"<  c #2B0C0A",
"1  c #340C0A",
"2  c #3D110F",
"3  c #241D17",
"4  c #231E1B",
"5  c #261B16",
"6  c #371917",
"7  c #22190F",
"8  c #2B2117",
"9  c #26211D",
"0  c #29221E",
"q  c #31271C",
"w  c #3A2B1B",
"e  c #38241C",
"r  c #1D1F20",
"t  c #1E2022",
"y  c #212324",
"u  c #2B2420",
"i  c #2B2C2D",
"p  c #2C2925",
"a  c #332D27",
"s  c #312D2C",
"d  c #362823",
"f  c #3D3127",
"g  c #2E3234",
"h  c #323436",
"j  c #37383A",
"k  c #3A3B3D",
"l  c #3A3837",
"z  c #42110E",
"x  c #451412",
"c  c #4C1513",
"v  c #541613",
"b  c #5D1916",
"n  c #581B17",
"m  c #611A17",
"M  c #6D1B17",
"N  c #631D1A",
"B  c #6C1C19",
"V  c #731E1A",
"C  c #7A1F1B",
"Z  c #741916",
"A  c #7C201C",
"S  c #5E2621",
"D  c #423425",
"F  c #4B3926",
"G  c #41392D",
"H  c #4D3B28",
"J  c #423728",
"K  c #533E27",
"L  c #403436",
"P  c #503131",
"I  c #702F27",
"U  c #6E322F",
"Y  c #733D31",
"T  c #682421",
"R  c #574308",
"E  c #5A4914",
"W  c #56422B",
"Q  c #5C452C",
"!  c #4A443C",
"~  c #504639",
"^  c #5F4B3A",
"/  c #63492C",
"(  c #61472C",
")  c #734335",
"_  c #393D41",
"`  c #3C4045",
"'  c #4A4948",
"]  c #554D44",
"[  c #5B5245",
"{  c #5E5348",
"}  c #4D5257",
"|  c #4D5157",
" . c #6C5D4A",
".. c #715C47",
"X. c #796B59",
"o. c #595D62",
"O. c #5E636A",
"+. c #65696F",
"@. c #6C737B",
"#. c #73777F",
"$. c #7F7467",
"%. c #82211C",
"&. c #8D231E",
"*. c #96251F",
"=. c #9E261A",
"-. c #AF2010",
";. c #B92417",
":. c #95362E",
">. c #96322B",
",. c #A7372F",
"<. c #9B1411",
"1. c #D51414",
"2. c #D52E13",
"3. c #D12728",
"4. c #CE3C3F",
"5. c #96473C",
"6. c #A8433C",
"7. c #AF5410",
"8. c #D55113",
"9. c #D56413",
"0. c #D15B24",
"q. c #D26827",
"w. c #C76E2C",
"e. c #CD3F41",
"r. c #82715C",
"t. c #B85E63",
"y. c #827462",
"u. c #887B69",
"i. c #9B7C63",
"p. c #B66166",
"a. c #CB4E53",
"s. c #C2716C",
"d. c #BC9111",
"f. c #D58D13",
"g. c #D19D13",
"h. c #C49812",
"j. c #D5A513",
"k. c #AB915B",
"l. c #928068",
"z. c #9C896F",
"x. c #8D8171",
"c. c #9D8B73",
"v. c #A38A6A",
"b. c #A1846A",
"n. c #BA8E67",
"m. c #A6947A",
"M. c #A9967C",
"N. c #AB8E75",
"B. c #BAA274",
"V. c #C78F54",
"C. c #C89574",
"Z. c #717781",
"A. c #7C838D",
"S. c #808792",
"D. c #838B96",
"F. c #88909B",
"G. c #82848E",
"H. c #AD9B82",
"J. c #B29C84",
"K. c #BA9C86",
"L. c #B5A28A",
"P. c #B9A68D",
"I. c #B5A187",
"U. c #B7A197",
"Y. c #919AA6",
"T. c #959DAA",
"R. c #9DA6B4",
"E. c #9FA8B6",
"W. c #A0A9B7",
"Q. c #A4ADBB",
"!. c #A7B0BF",
"~. c #C48B95",
"^. c #CA8380",
"/. c #C4A798",
"(. c #C1B6B5",
"). c #C6B6A2",
"_. c #ABB5C4",
"`. c #AFB9C9",
"'. c #B2BCCC",
"]. c #B5BFD0",
"[. c #BFC2CC",
"{. c #BBC3D4",
"}. c #BDC7D9",
"|. c #BEC8DA",
" X c #B6C0D1",
".X c #FFFFFE",
/* pixels */
"|.|.|.|.|.|.|.|.|.|.|.|.|.|.|.|.|.|.|.|.|.{.{.{.{.{.{.{.{.{.{.|.|.|.|.|.|.|.|.|.|.|.|.|.|.|.|.|.|.|.",
"|.|.|.|.|.|.|.|.|.|.|.|.|.|.|.|.|.|.|.|.|.+.t t t t t t t t ' |.|.|.|.|.|.|.|.|.|.|.|.|.|.|.|.|.|.|.",
"|.|.|.|.|.|.|.|.|.|.|.|.|.|.|.|.|.|.D.@.@.P z z z z z z z z P @.W.|.|.|.|.|.|.|.|.|.|.|.|.|.|.|.|.|.",
"|.|.|.|.|.|.|.|.|.|.|.|.|.|.|.|.|.|._     v *.*.*.*.*.*.*.*.V   A.|.|.|.|.|.|.|.|.|.|.|.|.|.|.|.|.|.",
"|.|.|.|.|.|.|.|.|.|.|.|.|.|.|.|.Q.t N %.%.&.*.*.*.*.*.*.*.*.*.%.6 g |.|.|.|.|.|.|.|.|.|.|.|.|.|.|.|.",
"|.|.|.|.|.|.|.|.|.|.|.|.|.|.|.|.E.  M *.*.*.*.*.*.*.*.*.&.&.&.&.< ; |.|.|.|.|.|.|.|.|.|.|.|.|.|.|.|.",
"|.|.|.|.|.|.|.|.|.|.|.|.|.|.|.}.R.  M *.*.*.*.*.*.*.*.&.A A C A < > }.}.|.|.|.|.|.|.|.|.|.|.|.|.|.|.",
"|.|.|.|.|.|.|.|.|.|.|.|.|.|.|.| u C &.*.*.*.*.*.*.&.< O O B A A B N t F.|.|.|.|.|.|.|.|.|.|.|.|.|.|.",
"|.|.|.|.|.|.|.|.|.|.|.|.|.|.|.h + *.*.*.*.*.*.M M B e 0 0 v m A A B   A.|.|.|.|.|.|.|.|.|.|.|.|.|.|.",
"|.|.|.|.|.|.|.|.|.|.|.|.|.|.|.h + *.*.*.*.*.*.    o r.v.v.- @ A A B   A.|.|.|.|.|.|.|.|.|.|.|.|.|.|.",
"|.|.|.|.|.|.|.|.|.|.|.|.|.T.` S M *.&.%.%.v < ......) Y Y ..^ < v b   A.|.|.|.|.|.|.|.|.|.|.|.|.|.|.",
"|.|.|.|.|.|.|.|.|.|.|.|.|.S.  M *.*.%.C B 2 O b.v.b.I T U i.X.  2 v . #._.}.|.|.|.|.|.|.|.|.|.|.|.|.",
"|.|.|.|.|.|.|.|.|.|.|.|.|.S.  b A A A B   m ,.v.M.K.6.^..X).u.  2 b b , ; ].|.|.|.|.|.|.|.|.|.|.|.|.",
"|.|.|.|.|.|.|.|.|.|.|.|.|.S.  b A A A B   v *.J.I.K.:.6.s.K.u.  2 b b , ; ].|.|.|.|.|.|.|.|.|.|.|.|.",
"|.|.|.|.|.|.|.|.|.|.|.|.!.#.O m A C B b = S :.L.L.J.5.:.,.b.X.. x b b , ; ].|.|.|.|.|.|.|.|.|.|.|.|.",
"|.|.|.|.|.|.|.|.|.|.|.|.; < C A C b @ 3 L.L.L.c.c.c.J.L.L.9 # b b b b , ; ].|.|.|.|.|.|.|.|.|.|.|.|.",
"|.|.|.|.|.|.|.|.|.|.|.|.* < A V B b @ - P.P.P.M.M.H.L.P.P.4 O b b b b , ; ].|.|.|.|.|.|.|.|.|.|.|.|.",
"|.|.|.|.|.|.|.|.|.|.|.|.* < A N b b @ 3 J.L.P.P.P.P.P.L.H.4 + b b b b , ; ].|.|.|.|.|.|.|.|.|.|.|.|.",
"|.|.|.|.|.|.|.|.|.|.|.|.* , m b b b v c * X.P.P.P.P.P.X.* x v b b b b , ; ].|.|.|.|.|.|.|.|.|.|.|.|.",
"|.|.|.|.|.|.|.|.|.|.|.|.* @ b b b b 2 6 ~ ] [ [ [ [ [ ] ~ 6 2 b b b b , ; ].|.|.|.|.|.|.|.|.|.|.|.|.",
"|.|.|.|.|.|.|.|.|.|.|.|.* , b b b b @ = z.G           G z.- O b b b b , ; ].|.|.|.|.|.|.|.|.|.|.|.|.",
"|.|.|.|.|.|.|.|.|.|.|.|.* @ b b c . i ' L.m.l.l.l.l.l.c.L.' i . z b b , ; ].|.|.|.|.|.|.|.|.|.|.|.|.",
"|.|.|.|.|.|.|.|.|.|.|.|.} L 2 v c   i ' x.c.m.m.m.m.m.c.x.' i   2 b 2 L } {.|.|.|.|.|.|.|.|.|.|.|.|.",
"|.|.|.|.|.|.|.|.|.|.|.|.{.G.X x c . i k j $.L.P.P.P.L.y.j k i   2 v X A.{.|.|.|.|.|.|.|.|.|.|.|.|.|.",
"|.|.|.|.|.|.|.|.|.|.|.|.a.t.Y.s # i j h o a ! L.P.J.{ a o h j i - 5 Y.p.a.{.|.|.|.|.|.|.|.|.|.|.|.|.",
"|.|.|.|.|.|.|.|.|.|.|.|.3.4.~.u X k i y X - u y.u.y.f - X y i k > * ~.e.3.{.|.|.|.|.|.|.|.|.|.|.|.|.",
"|.|.|.|.|.|.|.|.|.|.|.|.3.1.1.1 X k * . - 4 0 u u u 0 4 - . o k > + 1.1.3.{.}.|.|.|.|.|.|.|.|.|.|.|.",
"|.|.|.|.|.|.|.|.|.|.|.|.0.8.8.-.<.9 X . - 4 0 0 0 0 0 4 - . X y Z -.8.8.0.{.}.}.|.|.|.|.|.|.|.|.|.|.",
"|.|.|.|.|.|.|.|.|.|.[.(.q.9.9.2.;.a o . : 4 0 u u u 0 4 : . o a =.2.9.9.q.(.[.|.|.|.|.|.|.|.|.|.|.|.",
"|.|.|.|.|.|.|.|.|.|./.9.9.9.9.9.q.c.p . 0 0 0 D D f u 0 0 . 9 c.w.9.9.9.9.9.C.|.|.|.|.|.|.|.|.|.|.|.",
"|.|.|.|.|.|.|.|.|.|./.9.f.f.f.V.n.c.p   o 9 f W W W f 9 o   9 c.n.V.f.f.f.9.C.|.|.|.|.|.|.|.|.|.|.|.",
"|.|.|.|.|.|.|.|.|.|.U.7.g.j.j.B.H.$.l r   8 F ( ( ( H 8   : l $.m.B.j.j.g.7.N.|.|.|.|.|.|.|.|.|.|.|.",
"|.|.|.|.|.|.|.|.|.|.S.  h.j.j.k.y.  F.E.  w ( ( ( ( ( w   R.Y.   .v.j.j.d.. O.|.|.|.|.|.|.|.|.|.|.|.",
"|.|.|.|.|.|.|.|.|.|.Q.Z.E R R F ! Z._.W.  8 H ( ( ( W 8   R._.Z.] G R R E @.T.|.|.|.|.|.|.|.|.|.|.|.",
"|.|.|.|.|.|.|.|.|.|.|.|.y * * * g |.|.W.  5 D ( / ( F 8   R.|.|.} * * * i  X|.|.|.|.|.|.|.|.|.|.|.|.",
"|.|.|.|.|.|.|.|.|.|.|.|.'.`.`.`.'.|.|.W.  w ( ( / / ( w   R.|.|.'.`.`.`.'.}.|.|.|.|.|.|.|.|.|.|.|.|.",
"|.|.|.|.|.|.|.|.|.|.|.|.|.|.|.|.|.|.S.o.- w K ( / ( W f - o.A.|.|.|.|.|.|.|.|.|.|.|.|.|.|.|.|.|.|.|.",
"|.|.|.|.|.|.|.|.|.|.|.|.|.|.|.|.|.|._ X D D D ( ( ( D D D X g |.|.|.|.|.|.|.|.|.|.|.|.|.|.|.|.|.|.|.",
"|.|.|.|.|.|.|.|.|.|.|.|.|.|.|.|.|.|._ X k k k D D D l k k X g |.|.|.|.|.|.|.|.|.|.|.|.|.|.|.|.|.|.|.",
"|.|.|.|.|.|.|.|.|.|.|.|.|.|.|.|.|.|._ X k k k 3 3 8 l k k X g |.|.|.|.|.|.|.|.|.|.|.|.|.|.|.|.|.|.|.",
"|.|.|.|.|.|.|.|.|.|.|.|.|.|.|.|.|.|._ X k k k     . h k k X g |.|.|.|.|.|.|.|.|.|.|.|.|.|.|.|.|.|.|.",
"|.|.|.|.|.|.|.|.|.|.|.|.|.|.|.|.Q.y i h k s p     . 9 s k h i t F.|.|.|.|.|.|.|.|.|.|.|.|.|.|.|.|.|.",
"|.|.|.|.|.|.|.|.|.|.|.|.|.|.|.|.E.  i k k s 0       4 s k k i   A.|.|.|.|.|.|.|.|.|.|.|.|.|.|.|.|.|.",
"|.|.|.|.|.|.|.|.|.|.|.|.|.|.|.|.E.  i k k s 9     . 4 a k k i   A.|.|.|.|.|.|.|.|.|.|.|.|.|.|.|.|.|.",
"|.|.|.|.|.|.|.|.|.|.|.|.|.|.|.|.E.  D W J - X R.E.Y.y - J W D   A.|.|.|.|.|.|.|.|.|.|.|.|.|.|.|.|.|.",
"|.|.|.|.|.|.|.|.|.|.|.|.|.|.|.R.A.% F Q D =   {.|.`.y % D Q K % +.T.|.|.|.|.|.|.|.|.|.|.|.|.|.|.|.|.",
"|.|.|.|.|.|.|.|.|.|.|.|.|.|.|.h $ ( ( Q D =   {.|.`.y % D Q ( ( 7 ; |.|.|.|.|.|.|.|.|.|.|.|.|.|.|.|.",
"|.|.|.|.|.|.|.|.|.|.|.|.|.|.|.h X F H F D =   {.|.`.y % D F H H % ; |.|.|.|.|.|.|.|.|.|.|.|.|.|.|.|.",
"|.|.|.|.|.|.|.|.|.|.|.|.|.|.|.h . q q q q &   {.|.`.y & q q q q $ ; |.|.|.|.|.|.|.|.|.|.|.|.|.|.|.|.",
"|.|.|.|.|.|.|.|.|.|.|.|.|.|.|.h               {.|.`.y             ; |.|.|.|.|.|.|.|.|.|.|.|.|.|.|.|."
};
