/* XPM */
static char *_7e161e87a1248debdf0ffec573a8a6dor0p44soTc9nKBjy[] = {
/* columns rows colors chars-per-pixel */
"50 50 191 2 ",
"   c #010101",
".  c #0A0505",
"X  c #0A0907",
"o  c #0B0B0B",
"O  c #1A0706",
"+  c #1E0807",
"@  c #100D0B",
"#  c #1C0B0B",
"$  c #140504",
"%  c #0E100F",
"&  c #15120E",
"*  c #0F1111",
"=  c #141312",
"-  c #1D1917",
";  c #151618",
":  c #1B1C1D",
">  c #181716",
",  c #210908",
"<  c #2B0C0A",
"1  c #220907",
"2  c #330D0B",
"3  c #360807",
"4  c #3C170A",
"5  c #261E16",
"6  c #291E12",
"7  c #221C19",
"8  c #271A1A",
"9  c #3C1B18",
"0  c #25211E",
"q  c #28221F",
"w  c #292016",
"e  c #392A19",
"r  c #352A1E",
"t  c #232425",
"y  c #2C2522",
"u  c #2C2C2C",
"i  c #232528",
"p  c #342B23",
"a  c #392E23",
"s  c #372727",
"d  c #39322A",
"f  c #2B2E31",
"g  c #2E3033",
"h  c #3C3631",
"j  c #333639",
"k  c #3A3B3C",
"l  c #363636",
"z  c #461311",
"x  c #4B1411",
"c  c #4A1C18",
"v  c #561714",
"b  c #5B1713",
"n  c #5D1916",
"m  c #651A16",
"M  c #6E1B17",
"N  c #691D19",
"B  c #641B18",
"V  c #751E1A",
"C  c #72120A",
"Z  c #41271F",
"A  c #51211B",
"S  c #442307",
"D  c #65221F",
"F  c #7C201C",
"G  c #422220",
"H  c #413425",
"J  c #493724",
"K  c #433229",
"L  c #4F3C29",
"P  c #483A2B",
"I  c #523E29",
"U  c #423A32",
"Y  c #532F2C",
"T  c #6F2923",
"R  c #70382D",
"E  c #753B38",
"W  c #56412A",
"Q  c #5B442C",
"!  c #49433B",
"~  c #52493E",
"^  c #5C4D3C",
"/  c #63492C",
"(  c #48494A",
")  c #4D5156",
"_  c #5B5046",
"`  c #66594A",
"'  c #7E5E4E",
"]  c #6F6253",
"[  c #68625A",
"{  c #786A59",
"}  c #7F705E",
"|  c #79664F",
" . c #5C5D63",
".. c #5C6269",
"X. c #61666D",
"o. c #7D7060",
"O. c #626870",
"+. c #6D737C",
"@. c #787376",
"#. c #AC1010",
"$. c #B81B1B",
"%. c #90390D",
"&. c #83211C",
"*. c #89231E",
"=. c #95251F",
"-. c #96302A",
";. c #9F3C34",
":. c #A73830",
">. c #900D0D",
",. c #CE1913",
"<. c #D53313",
"1. c #D52613",
"2. c #D21F20",
"3. c #D22021",
"4. c #D12B2D",
"5. c #D23E21",
"6. c #CF373A",
"7. c #B44A15",
"8. c #8C4E20",
"9. c #944036",
"0. c #A84037",
"q. c #B3672E",
"w. c #D55713",
"e. c #D56413",
"r. c #D46618",
"t. c #D57313",
"y. c #D1462D",
"u. c #D26B21",
"i. c #D0722B",
"p. c #CF7839",
"a. c #80555B",
"s. c #B04E49",
"d. c #81715C",
"f. c #857867",
"g. c #9C7869",
"h. c #BD6561",
"j. c #B07866",
"k. c #C67A7D",
"l. c #CC4D51",
"z. c #B59029",
"x. c #C79812",
"c. c #D59D13",
"v. c #D5A513",
"b. c #C99F28",
"n. c #C29B2B",
"m. c #CDA32C",
"M. c #9E8667",
"N. c #9F8768",
"B. c #9C8A73",
"V. c #A38A6A",
"C. c #A18F77",
"Z. c #AC947A",
"A. c #A1917B",
"S. c #B5937D",
"D. c #BB8B7B",
"F. c #BAA37A",
"G. c #C79778",
"H. c #C0A671",
"J. c #757C85",
"K. c #7B828C",
"L. c #908C8E",
"P. c #818893",
"I. c #868E99",
"U. c #8B939E",
"Y. c #AD9B83",
"T. c #B19E86",
"R. c #AB818A",
"E. c #B5A28A",
"W. c #B9A68D",
"Q. c #8E96A2",
"!. c #979FAC",
"~. c #99A2AF",
"^. c #9BA4B2",
"/. c #9FA8B7",
"(. c #A3ACBA",
"). c #C48A95",
"_. c #C4A493",
"`. c #C5A18B",
"'. c #C29BA7",
"]. c #C2ABA1",
"[. c #D9A5A3",
"{. c #D7CCBE",
"}. c #ACB5C5",
"|. c #B2BCCC",
" X c #BFBAC9",
".X c #B5BFD0",
"XX c #B7C1D2",
"oX c #BCC4D4",
"OX c #BDC7D8",
"+X c #BEC8DA",
"@X c #FDFDFD",
/* pixels */
"+X+X+X+X+X+X+X+X+X+X+X+X+X+X+X+X+X+X+X+X+XXX|.|.|.|.|.|.|.OX+X+X+X+X+X+X+X+X+X+X+X+X+X+X+X+X+X+X+X+X",
"+X+X+X+X+X+X+X+X+X+X+X+X+X+X+X+X+X+X+X+X+X..: : : : : : : (.+X+X+X+X+X+X+X+X+X+X+X+X+X+X+X+X+X+X+X+X",
"+X+X+X+X+X+X+X+X+X+X+X+X+X+X+X+X+X+XK.O.O.Y x x x x x x x  .K.+X+X+X+X+X+X+X+X+X+X+X+X+X+X+X+X+X+X+X",
"+X+X+X+X+X+X+X+X+X+X+X+X+X+X+X+X+X+Xj     b =.=.=.=.=.=.=.O j +X+X+X+X+X+X+X+X+X+X+X+X+X+X+X+X+X+X+X",
"+X+X+X+X+X+X+X+X+X+X+X+X+X+X+X+X/.; N *.*.=.=.=.=.=.=.=.=.*.N ; I.+X+X+X+X+X+X+X+X+X+X+X+X+X+X+X+X+X",
"+X+X+X+X+X+X+X+X+X+X+X+X+X+X+X+X^.  M =.=.=.=.=.=.=.=.=.=.=.M   P.+X+X+X+X+X+X+X+X+X+X+X+X+X+X+X+X+X",
"+X+X+X+X+X+X+X+X+X+X+X+X+X+X+XoX!.  M =.=.=.=.=.=.=.=.=.=.=.M   K.oX+X+X+X+X+X+X+X+X+X+X+X+X+X+X+X+X",
"+X+X+X+X+X+X+X+X+X+X+X+X+X+X+X( 8 &.=.=.=.=.=.=.=.=.=.n $ $ 2 &.9 j +X+X+X+X+X+X+X+X+X+X+X+X+X+X+X+X",
"+X+X+X+X+X+X+X+X+X+X+X+X+X+X+Xg O =.=.=.=.=.=.=.&.m m A p p Z m 1 : +X+X+X+X+X+X+X+X+X+X+X+X+X+X+X+X",
"+X+X+X+X+X+X+X+X+X+X+X+X+X+X+Xg O =.=.=.=.=.=.=.v     P V.V.|     : +X+X+X+X+X+X+X+X+X+X+X+X+X+X+X+X",
"+X+X+X+X+X+X+X+X+X+X+X+X+XQ.j D V =.*.&.&.&.&.< 2 c { ' R R A     : +X+X+X+X+X+X+X+X+X+X+X+X+X+X+X+X",
"+X+X+X+X+X+X+X+X+X+X+X+X+XK.  V =.=.&.F F V N i G T Z.g.E D x     : +X+X+X+X+X+X+X+X+X+X+X+X+X+X+X+X",
"+X+X+X+X+X+X+X+X+X+X+X+X+XK.  n F F F F F 2 X @X[.:.S.{.@Xs.F     : +X+X+X+X+X+X+X+X+X+X+X+X+X+X+X+X",
"+X+X+X+X+X+X+X+X+X+X+X+X+XK.  n F F F F F 2   h.s.-.S.D.h.-.M     : +X+X+X+X+X+X+X+X+X+X+X+X+X+X+X+X",
"+X+X+X+X+X+X+X+X+X+X+X+X(.+.$ m F V V V N 9 7 0.;.9.Z.j.0.F b .   : +X+X+X+X+X+X+X+X+X+X+X+X+X+X+X+X",
"+X+X+X+X+X+X+X+X+X+X+X+X* < F F V n n x   ] E.W.W.E.C.Z.E.7 O n + : +X+X+X+X+X+X+X+X+X+X+X+X+X+X+X+X",
"+X+X+X+X+X+X+X+X+X+X+X+Xo < F M N n n x   ] W.W.W.W.Y.T.W.7 O n + : +X+X+X+X+X+X+X+X+X+X+X+X+X+X+X+X",
"+X+X+X+X+X+X+X+X+X+X+X+Xo < F B n n n x   ` Y.W.W.W.W.E.Y.7 + n + : +X+X+X+X+X+X+X+X+X+X+X+X+X+X+X+X",
"+X+X+X+X+X+X+X+X+X+X+X+Xo , B n n n n x   X = W.W.W.W.] & x v n + : +X+X+X+X+X+X+X+X+X+X+X+X+X+X+X+X",
"+X+X+X+X+X+X+X+X+X+X+X+Xo , n n n n n x   a ^ ~ ~ ~ ~ K 2 v n n + : +X+X+X+X+X+X+X+X+X+X+X+X+X+X+X+X",
"+X+X+X+X+X+X+X+X+X+X+X+X% , n n n n n x   ` N.        < n n n n + : +X+X+X+X+X+X+X+X+X+X+X+X+X+X+X+X",
"+X+X+X+X+X+X+X+X+X+X+X+XoXK.  x n n O o k f.W.N.M.M.M.^   x z   K.oX+X+X+X+X+X+X+X+X+X+X+X+X+X+X+X+X",
"+X+X+X+X+X+X+X+X+X+X+X+X).a.  x v 2 7 : k [ f.Z.Z.Z.Z.d.! 9 s ) ~.+X+X'.).OX+X+X+X+X+X+X+X+X+X+X+X+X",
"+X+X+X+X+X+X+X+X+X+X+X+X3.>.. z z X u k j k k Y.E.W.W.E.Y.- j +X+XOX Xl.4.oX+X+X+X+X+X+X+X+X+X+X+X+X",
"+X+X+X+X+X+X+X+X+X+X+X+X3.,.#.3 # g j l o : y U { W.W.f.U o j +X+X X6.2.4.oX+X+X+X+X+X+X+X+X+X+X+X+X",
"+X+X+X+X+X+X+X+X+X+X+X+X5.<.<.C x k u t @ - q q ! f.f._ q = u J.R.k.<.<.y.oX+X+X+X+X+X+X+X+X+X+X+X+X",
"+X+X+X+X+X+X+X+X+X+X+X+Xu.e.e.1.$.k = . q q q q q q q q q q -   >.1.e.e.i.oX+X+X+X+X+X+X+X+X+X+X+X+X",
"+X+X+X+X+X+X+X+X+X+X].p.e.e.e.w.7.0 X . q q q q q q q q q q -   %.w.e.e.r.p.`.+X+X+X+X+X+X+X+X+X+X+X",
"+X+X+X+X+X+X+X+X+X+X_.e.t.t.t.i.q.d o . q q q q y y y y q q -   8.i.t.t.t.e.G.+X+X+X+X+X+X+X+X+X+X+X",
"+X+X+X+X+X+X+X+X+X+X_.e.v.v.v.H.E.B.q . q q q q p H H p q q -   o.F.v.v.c.e.G.+X+X+X+X+X+X+X+X+X+X+X",
"+X+X+X+X+X+X+X+X+X+XL.4 x.v.v.H.E.B.q   o w a a J Q Q e o o 0 ] A.F.v.v.x.S @.+X+X+X+X+X+X+X+X+X+X+X",
"+X+X+X+X+X+X+X+X+X+XK.  n.m.b.F.Z.{ k i   5 H J W / / e   i k { A.F.b.m.z.. X.+X+X+X+X+X+X+X+X+X+X+X",
"+X+X+X+X+X+X+X+X+X+XK.  Y.Y.B.B.}   U.^.  5 H / / / / e   /.Q.  ` B.B.T.A.X X.+X+X+X+X+X+X+X+X+X+X+X",
"+X+X+X+X+X+X+X+X+X+X(.K.! U d d ! K.}.^.  5 H L W / / e   /.}.K.( d d U ! J.^.+X+X+X+X+X+X+X+X+X+X+X",
"+X+X+X+X+X+X+X+X+X+X+X+Xt ; ; ; j +X+X^.  5 H H I / / e   /.+X+X) ; ; ; f XX+X+X+X+X+X+X+X+X+X+X+X+X",
"+X+X+X+X+X+X+X+X+X+X+X+X|.|.|.|..X+X+X^.  5 H / / / / e   /.+X+XXX|.|.|.|.+X+X+X+X+X+X+X+X+X+X+X+X+X",
"+X+X+X+X+X+X+X+X+X+X+X+X+X+X+X+X+X+XJ.) 7 r H I Q / / e   /.+X+X+X+X+X+X+X+X+X+X+X+X+X+X+X+X+X+X+X+X",
"+X+X+X+X+X+X+X+X+X+X+X+X+X+X+X+X+X+Xj o H H H H L / / e   /.+X+X+X+X+X+X+X+X+X+X+X+X+X+X+X+X+X+X+X+X",
"+X+X+X+X+X+X+X+X+X+X+X+X+X+X+X+X+X+Xj X k k k k h H H 5   /.+X+X+X+X+X+X+X+X+X+X+X+X+X+X+X+X+X+X+X+X",
"+X+X+X+X+X+X+X+X+X+X+X+X+X+X+X+X+X+Xj X k k k k k h h u :  .K.+X+X+X+X+X+X+X+X+X+X+X+X+X+X+X+X+X+X+X",
"+X+X+X+X+X+X+X+X+X+X+X+X+X+X+X+X+X+Xj X k k k k k k k k k X j +X+X+X+X+X+X+X+X+X+X+X+X+X+X+X+X+X+X+X",
"+X+X+X+X+X+X+X+X+X+X+X+X+X+X+X+X(.> u j k u y X = y k k k X j +X+X+X+X+X+X+X+X+X+X+X+X+X+X+X+X+X+X+X",
"+X+X+X+X+X+X+X+X+X+X+X+X+X+X+X+X^.  u k k u 0   @ y j k k X j +X+X+X+X+X+X+X+X+X+X+X+X+X+X+X+X+X+X+X",
"+X+X+X+X+X+X+X+X+X+X+X+X+X+X+X+X^.  u k k u 0 X = y j k k X j +X+X+X+X+X+X+X+X+X+X+X+X+X+X+X+X+X+X+X",
"+X+X+X+X+X+X+X+X+X+X+X+X+X+X+X+X^.  : a Q w X (.X.X 0 K Q @ j +X+X+X+X+X+X+X+X+X+X+X+X+X+X+X+X+X+X+X",
"+X+X+X+X+X+X+X+X+X+X+X+X+X+X+X+X^.  - p / 6   +X+.  7 H / 6 h I.}.+X+X+X+X+X+X+X+X+X+X+X+X+X+X+X+X+X",
"+X+X+X+X+X+X+X+X+X+X+X+X+X+X+X+X^.  - p / 6   +X+.  7 H / / J   P.+X+X+X+X+X+X+X+X+X+X+X+X+X+X+X+X+X",
"+X+X+X+X+X+X+X+X+X+X+X+X+X+X+X+X^.  - y a &   +X+.  7 y a a w   P.+X+X+X+X+X+X+X+X+X+X+X+X+X+X+X+X+X",
"+X+X+X+X+X+X+X+X+X+X+X+X+X+X+X+X^.  = - - o   +X+.  > - - - =   P.+X+X+X+X+X+X+X+X+X+X+X+X+X+X+X+X+X",
"+X+X+X+X+X+X+X+X+X+X+X+X+X+X+X+X^.            +X+.              P.+X+X+X+X+X+X+X+X+X+X+X+X+X+X+X+X+X"
};
