/* XPM */
static char *_828ca6f74eb422dfa6650110aa8c58dkRjb1LUTqsfEr4Ho[] = {
/* columns rows colors chars-per-pixel */
"50 50 172 2 ",
"   c #0B1017",
".  c #0E141D",
"X  c #10151E",
"o  c #0F1620",
"O  c #0F1824",
"+  c #0E1D2C",
"@  c #111721",
"#  c #131925",
"$  c #161D2B",
"%  c #181F2E",
"&  c #0E1E31",
"*  c #131F31",
"=  c #16202F",
"-  c #18202F",
";  c #0E2334",
":  c #0D2639",
">  c #0E2A3E",
",  c #142233",
"<  c #1A2333",
"1  c #14263A",
"2  c #1C2639",
"3  c #14293D",
"4  c #1D293C",
"5  c #202A3D",
"6  c #0E2C42",
"7  c #132741",
"8  c #142C43",
"9  c #1B2C43",
"0  c #152D4C",
"q  c #1A2E4A",
"w  c #0F3047",
"e  c #0D334C",
"r  c #163047",
"t  c #13334C",
"y  c #1B324B",
"u  c #0E3651",
"i  c #0E3954",
"p  c #0E3D5B",
"a  c #123652",
"s  c #1B3352",
"d  c #143955",
"f  c #193955",
"g  c #123559",
"h  c #1A3559",
"j  c #133C5B",
"k  c #1A3B5C",
"l  c #223149",
"z  c #20395D",
"x  c #143F62",
"c  c #1B3C63",
"v  c #1C3F69",
"b  c #12405F",
"n  c #0D4262",
"m  c #0D4669",
"M  c #0D496D",
"N  c #124263",
"B  c #1A4263",
"V  c #164A64",
"C  c #14466A",
"Z  c #1E406B",
"A  c #12496E",
"S  c #18486D",
"D  c #0D4D73",
"F  c #194270",
"G  c #124D73",
"H  c #194B76",
"J  c #164F79",
"K  c #1C4D7C",
"L  c #0F5077",
"P  c #0D527B",
"I  c #115177",
"U  c #12537D",
"Y  c #19527D",
"T  c #21436D",
"R  c #0E5681",
"E  c #0B5985",
"W  c #0B5985",
"Q  c #0B5B88",
"!  c #0C5D8A",
"~  c #145480",
"^  c #125681",
"/  c #175F87",
"(  c #125986",
")  c #135F8D",
"_  c #1A5D8C",
"`  c #1C5585",
"'  c #205782",
"]  c #215484",
"[  c #245A86",
"{  c #245789",
"}  c #245C8F",
"|  c #1C628B",
" . c #076496",
".. c #086393",
"X. c #0B6394",
"o. c #086699",
"O. c #07689C",
"+. c #09689B",
"@. c #09689C",
"#. c #0A689C",
"$. c #136495",
"%. c #186490",
"&. c #196494",
"*. c #196995",
"=. c #1F7099",
"-. c #236591",
";. c #2A6395",
":. c #256A97",
">. c #286994",
",. c #26679C",
"<. c #2A679C",
"1. c #2B6C98",
"2. c #24719E",
"3. c #20799E",
"4. c #066FA7",
"5. c #0A6DA3",
"6. c #0B6DA2",
"7. c #0674AD",
"8. c #0A72AB",
"9. c #1A76AB",
"0. c #1278AA",
"q. c #197BAA",
"w. c #1373A4",
"e. c #0876B1",
"r. c #0679B6",
"t. c #0A78B5",
"y. c #057FBE",
"u. c #137BB0",
"i. c #197CB1",
"p. c #286CA1",
"a. c #2C79AC",
"s. c #327BA7",
"d. c #2482AE",
"f. c #2382B0",
"g. c #2C84B1",
"h. c #2F8CB7",
"j. c #2F8FBC",
"k. c #3482B3",
"l. c #348CBD",
"z. c #358FBA",
"x. c #2691BC",
"c. c #0689CD",
"v. c #058ED4",
"b. c #0791D4",
"n. c #2391C4",
"m. c #2A9AC9",
"M. c #3495C3",
"N. c #329CCA",
"B. c #31A0CB",
"V. c #3DA5CD",
"C. c #2FA5D3",
"Z. c #36A5D0",
"A. c #3AADDA",
"S. c #2FB1DC",
"D. c #3BB0D7",
"F. c #33B1DB",
"G. c #1AA9E5",
"H. c #24ADE0",
"J. c #439EC5",
"K. c #44AFD4",
"L. c #46B7DC",
"P. c #43BCE1",
"I. c #52BFE1",
"U. c #49C4E6",
"Y. c #4FCBEC",
"T. c #4DCCEE",
"R. c #4DD0EF",
"E. c #5BD5F0",
"W. c #67DAF1",
"Q. c #5FE2F9",
"!. c #66E9FC",
"~. c #64E4F9",
/* pixels */
"% - < < < < 2 < 8 c.P @ @ @ @ o o o @ @ @ E , , = , 1 7 1 $ # o o . i 3 # $ $ $ $ # # # # 3 # # $ $ ",
"- < < < 2 2 2 < 5.n # @ @ @ @ @ @ @ @ @ @ E $ < = % % % $ # # @ @ @ + m # % % % $ $ $ # , a # $ $ % ",
"< < < 2 2 2 < G 8 # # # # # # # # @ @ @ $ D - < < % % $ $ # # # # @ > 8.% $ - < - % % $ M D $ $ % - ",
"< < 2 4 9 4 r m # # # # # # # # # # # # 8 8 2 2 < < % % $ $ # # @ , Q a N , $ % % % % $ D d $ % - < ",
"< 2 2 q Z K X.* $ $ $ $ # # # # # # # # D < 2 2 2 < < = % $ # @ 3 n # @ < U G 3 $ $ % a X.N $ % < < ",
"< 2 2 h l.Y.K 1 = % % $ $ $ $ $ $ # # # R < < < - , 1 1 % # # t G - $ $ % 2 C ..M  .+...E 6.1 $ % < ",
"8 t N ~ a.Z.c 3 < = = % % % % $ $ $ $ % 6.j a d I / ' Y G n ! ) B A a = # # # # # @ @ @ @ , W d % % ",
"e.N 2 9 h ~ 9 2 < < < < = = = % % , 1 C 3 2 < , 8 %.U.C.J 9 < 1 - % % $ $ $ # # # # # # # # # 8 L ! ",
"$ % < < r 8 < 2 < < < < < < < - - 9 1.d.3 = % $ % 0 Y _ q 2 2 < < < - % % $ $ # # # # # # # # # D D ",
"$ $ % = j 8 < 2 2 2 2 2 < < < < - t S.[ 1 % $ # # $ , x 2 2 2 2 2 < < < = % $ $ $ $ # # # # # 1 @.@ ",
"# # $ $ m d < 2 2 2 2 2 2 < < a R q.w.9 1 , $ # @ @ # m L t < - - < < < < - % % $ $ $ $ $ $ $ j i @ ",
"# # # $ C ~ 2 < 4 2 2 2 < < G ! 8 4 N j g 7 $ o e D p = $ n n D L 1 $ $ $ % % - - < , % $ $ $ L + @ ",
"@ @ @ D , , N < - - 2 3 , 3 , < 2 9 c j.V.%.a , 1 $ $ $ # @ @ e d A A P A 1 $ % 3 q q 3 < , G R ; . ",
". X j 2 X # f I ! D 3 # $ % = < < 9 c K.E.:.q 2 < = $ $ # @ @ ; 3 % - % 3 j N a c { { k t 8 % $ : . ",
"e e G C 8 < l N $ @ @ # # $ % = < 2 s &.] c 9 < < % $ # # # @ ; 8 $ % % % % = a _ A.A.` 9 = $ # D  .",
"@ @ # 8 d t G + X X @ @ # # $ % % < < A q 9 2 < = % $ # # @ @ ; M $ $ $ $ $ % 1 c <.n.c 1 $ # # E i ",
"@ # # # $ $ $ t D 6 . X @ # # # # # 8 j 2 2 < - = $ $ # # @ @ 6 u.9 $ # # # $ , 8 s 6.0 % # # 8 e @ ",
"# # # # $ % % % e 6 m > + @ $ u 8 t 8 N < < < - % $ # # # @ # g N.c $ # # # # # % , a t 1 t D m @ @ ",
"# # # $ % % < 2 e # # 3 M P @.u , % # R % < < - $ $ # # @ @ o & A 1 # # # # # # # # # # $ $ W w @ # ",
"# $ $ % - < 9 [ | $ # $ $ 3 m @ # $ # a 1 < < - $ $ # # @ @ . . p @ @ @ @ @ @ @ # # # # # # ..$ # # ",
"$ $ % - < < s J.-., $ $ % - C X @ @ $ 9 x 2 < % $ $ # # @ @ o . M X X X @ @ @ @ @ # # # # # a # # # ",
"% % - < < < 2 =.7 % % - < < d A N u j z.g.9 % % $ $ # # @ @ o . E n O . X X X @ @ @ # # # # n # # $ ",
"% - < < < 2 < G $ % - < < < ( 2 2 9 s >.-.j = % $ $ # # # @ @ , f s d p O . X @ @ @ @ @ # t 8 $ $ $ ",
"< < < < 2 2 < t # % < 2 2 2 t.< 5 5 4 9 4 t N 3 $ # # # # @ $ 2 2 4 2 9 8 6 6 0 * O $ = a 6., $ % % ",
"< < < 2 2 2 2 j $ $ % < 4 9 8.< 5 5 4 2 2 < - G 1 # # # $ 3 2 2 2 2 2 2 2 2 $.B.H 4 9 9 9 C L $ - - ",
"< 2 2 2 2 2 r I X.W 8 - < j y < 4 4 2 2 2 < < % U k f k C C 1 < 2 < 2 2 2 2 s [ S 2 2 2 2 2 U % - < ",
"< 2 2 2 2 4 d $ % 3 j 9 9 G < 4 4 2 2 < < < < 1 ( 9 4 5 4 2 d t 9 2 < < < < 2 4 2 < < 2 2 2 r j < < ",
"2 2 2 2 s N $ $ % - < < < X.< 4 2 2 < < < < 9 ] m.k 9 2 2 2 9 f.s.s < - - < - - < < < < < < < j 2 < ",
"2 2 2 y R , # $ $ % < < < ! < 2 2 < < - % , 0 k.I.T 9 < 2 2 9 ;.L.k , % % % % % - - - < < < < s d < ",
"9 2 k p # # # # $ % - < < j 8 < < < - $ $ % 1 | g.s 2 < < < 2 q U N # $ $ $ $ $ $ % % % - < 3 B G.) ",
"$ A n @ @ # # # $ % - < < 2 t - - - % $ $ # $ j G < % % $ $ = L G N u # # # # # $ $ $ $ $ < c F.*., ",
"$ p @ @ @ @ # # $ $ % < < - N $ - $ $ # # # @ # t $ $ $ , t d 4 < < 8 p , @ # # # # 1 n M 8 ) R.Y , ",
"8 : X @ @ @ # # # $ % < < < 8 # % $ # # # @ @ + 8 # # t t , < < < < < % t i , i i t 8 8 $ # 1 X.u # ",
"n . . . o @ # # # $ % - < < 2 # $ # # # @ @ . 6 3 # # d , - - = = % % % # W 8 % % % $ $ # # # , i X ",
"e . . . . @ # # # $ % - < 2 9 1 * $ # @ @ o . 6 , # @ t $ % % $ $ $ $ $ # r % 2 < < % $ $ $ # # i ! ",
"+ . . . . @ @ # # $ % - 2 9 j N 9 1 $ @ @ . . e , , i ! = $ $ # # # # # , 1 - 2 2 < < % $ $ $ # # 3 ",
"  . . . . o @ # # $ % < 4 s K 9.F 0 , # X . + M t , $ 3 e = # # # @ # @ i < % < < < < - % % $ $ $ % ",
". . . . . @ @ # # $ % < 9 c p.Q.M.S 3 6 e 3 3 - < < - = % t p $ @ @ @ + G A d 8 r % % - - % % $ $ $ ",
". . . . . @ @ # # $ % < 9 v a.!.T.H.b.6.4 < < < < < < < - - $ 5.. . . E d 2 2 < a X.G a 8 1 % $ $ $ ",
". . . . o @ # # # $ % < 9 s i.a.;.T s C j < < < < < < - % $ 1 P ; > i P 2 2 2 < < < - 3 8 3 3 t b C ",
"6 . . o @ @ # # # $ % < 2 t H c c s 9 2 d f < < < < - < I ! ! y y y U t < < < < < - - % % % % , t # ",
"p X X @ @ # # # $ $ - - % C 3 9 9 4 2 2 < G U d 2 t 8 8 1 n d 4 4 4 2 j j % - - % % $ $ $ $ $ 8 $ $ ",
"8 $ @ @ @ # # # $ % - % 8 P % 2 2 < < < < % C y N 1 # # t d 2 2 2 2 2 2 j ! # $ $ $ $ # # # % P @ $ ",
"$ i @ @ # # # $ $ % $ % #.t % - % % % % % = 9 < < % $ j j 2 2 2 < < < < 2 N d # # # # # # # $ p @ @ ",
"p Q E $ # # # $ % % $ G t $ $ $ # # # # # t 4 5 2 1 W t < < < < < - - 2 9 q t p @ @ @ # # # # u ; @ ",
"$ # , M D D t $ $ $ G m # # # # @ e ! D a U 2 5 < C C 3 2 < - - - % - 8 v } d.0.D P 6 @ @ @ @ 1 ..m ",
"# # # $ $ , M 8.R G 8.# # # e  .m + . o . m y 5 2 G h k s 1 , $ $ $ % 0 h.~.j.7 # ; 7.4.6 ; u P u @ ",
"# $ $ % % % % 1 ! v.8 # 1 o. .: . . . . o p _ z y $.2.k.] 0 % # # # 3 d.x.g.K 7 # @ # , e ..R , @ # ",
"# $ $ % - < < < % 8.p t r.m . . . . . X # N P.d.j G M.W.D.f.3.u , #  .1 7 0 8 $ # @ @ @ @ D 6 # # # ",
"$ $ % - < < < 2 < j v.y.; . . . . X X X # g f.c 8 0 K ,.H u V ..O.Q r.# % , $ $ # # # # # m # # # # "
};
