/* XPM */
static char *player_posb1707303801[] = {
/* columns rows colors chars-per-pixel */
"50 50 153 2 ",
"   c #020201",
".  c #0A0504",
"X  c #0B0806",
"o  c #0A0A09",
"O  c #110404",
"+  c #1B0706",
"@  c #100C07",
"#  c #120D0A",
"$  c #17120D",
"%  c #1B120E",
"&  c #151312",
"*  c #1D1711",
"=  c #1F1915",
"-  c #1D1B1A",
";  c #250908",
":  c #2C0C0A",
">  c #330E0C",
",  c #3B0F0D",
"<  c #38110E",
"1  c #231C14",
"2  c #241F1A",
"3  c #292017",
"4  c #22201E",
"5  c #2B2218",
"6  c #31271C",
"7  c #34291D",
"8  c #3A2B1B",
"9  c #1F2021",
"0  c #242526",
"q  c #292523",
"w  c #2F2821",
"e  c #2C2C2D",
"r  c #3D2525",
"t  c #352D25",
"y  c #3B2F22",
"u  c #342F2C",
"i  c #3E362D",
"p  c #2E2F30",
"a  c #353435",
"s  c #3C3632",
"d  c #3E3832",
"f  c #373739",
"g  c #3A3B3C",
"h  c #44110E",
"j  c #451210",
"k  c #4C1412",
"l  c #421C1B",
"z  c #531612",
"x  c #5A1613",
"c  c #5D1916",
"v  c #641A16",
"b  c #6E1B17",
"n  c #661B18",
"m  c #6D1C19",
"M  c #731E1A",
"N  c #781F1B",
"B  c #43321E",
"V  c #7C201C",
"C  c #462423",
"Z  c #4C2D2D",
"A  c #552725",
"S  c #582624",
"D  c #562D2C",
"F  c #423425",
"G  c #4A3722",
"H  c #4A3927",
"J  c #43372B",
"K  c #45382A",
"L  c #4E3B28",
"P  c #52302F",
"I  c #523E29",
"U  c #423B32",
"Y  c #483F35",
"T  c #403D3B",
"R  c #4B3C3D",
"E  c #563636",
"W  c #56412A",
"Q  c #5A442A",
"!  c #4B4237",
"~  c #4D453B",
"^  c #50463C",
"/  c #51483C",
"(  c #60472B",
")  c #63492C",
"_  c #3D3F41",
"`  c #434446",
"'  c #454749",
"]  c #46484A",
"[  c #494B4E",
"{  c #564C41",
"}  c #524D4F",
"|  c #5B5245",
" . c #5E5548",
".. c #515456",
"X. c #5A5655",
"o. c #5B5855",
"O. c #55585A",
"+. c #595C5F",
"@. c #605649",
"#. c #615B5A",
"$. c #635D54",
"%. c #766857",
"&. c #776958",
"*. c #626366",
"=. c #626568",
"-. c #65686B",
";. c #6A6A6B",
":. c #6A6D70",
">. c #6E7174",
",. c #727579",
"<. c #777A7E",
"1. c #797C7F",
"2. c #84211D",
"3. c #8C231E",
"4. c #96251F",
"5. c #8F7F6A",
"6. c #907F6A",
"7. c #94836E",
"8. c #968773",
"9. c #9C8A73",
"0. c #A18F77",
"q. c #A6957D",
"w. c #A9967E",
"e. c #797C80",
"r. c #7E8285",
"t. c #868A8E",
"y. c #898D91",
"u. c #8D9195",
"i. c #92979B",
"p. c #AB9A82",
"a. c #B09E85",
"s. c #B5A38A",
"d. c #B8A58C",
"f. c #BFAB91",
"g. c #979BA0",
"h. c #9DA2A6",
"j. c #9EA3A8",
"k. c #A2A6AB",
"l. c #AAAEB4",
"z. c #ADB2B7",
"x. c #AFB4B9",
"c. c #B0B5BA",
"v. c #B3B8BD",
"b. c #C4B196",
"n. c #B7BDC2",
"m. c #B8BDC2",
"M. c #BBC0C6",
"N. c #BFC5CA",
"B. c #C0C6CB",
"V. c #C3C9CF",
"C. c #C6CCD2",
"Z. c #C9CFD4",
"A. c #CBD1D7",
/* pixels */
"A.A.A.A.A.A.A.A.A.A.A.A.A.A.A.A.A.A.A.A.l._                     ..m.A.A.A.A.A.A.A.A.A.A.A.A.A.A.A.A.",
"A.A.A.A.A.A.A.A.A.A.A.A.A.A.A.A.V.i.>.:.*.D h h h h h k h h h h E ;.g.Z.A.A.A.A.A.A.A.A.A.A.A.A.A.A.",
"A.A.A.A.A.A.A.A.A.A.A.A.A.A.Z.B.l.} O O ; b 4.4.4.4.4.4.4.4.4.4.v + X.c.B.A.A.A.A.A.A.A.A.A.A.A.A.A.",
"A.A.A.A.A.A.A.A.A.A.A.A.A.A.C.e.a S b M M 3.4.4.4.4.4.4.4.4.4.4.2.b A f e.A.A.A.A.A.A.A.A.A.A.A.A.A.",
"A.A.A.A.A.A.A.A.A.A.A.A.A.A.V.+.. x 4.4.4.4.4.4.4.4.4.4.4.3.3.3.3.3.k . *.A.A.A.A.A.A.A.A.A.A.A.A.A.",
"A.A.A.A.A.A.A.A.A.A.A.A.A.Z.B.o.O x 4.4.4.4.4.4.4.4.4.4.3.2.N N V V k   *.C.A.A.A.A.A.A.A.A.A.A.A.A.",
"A.A.A.A.A.A.A.A.A.A.A.A.A.t.` D b 2.4.4.4.4.4.4.4.4.3.3.2.2.2.N V V n x Z ' y.A.A.A.A.A.A.A.A.A.A.A.",
"A.A.A.A.A.A.A.A.A.A.A.A.A.*.. z 4.4.4.4.4.4.4.4.3.3.3.2.N V V N V V V N ,   :.A.A.A.A.A.A.A.A.A.A.A.",
"A.A.A.A.A.A.A.A.A.A.A.A.A.=.  z 4.4.4.4.4.4.3.2.2.N V V V V V V V V V V j   :.A.A.A.A.A.A.A.A.A.A.A.",
"A.A.A.A.A.A.A.A.A.A.A.i...E x N 4.3.2.3.2.3.2.2.V V V V V V V V V V V V ,   :.A.A.A.A.A.A.A.A.A.A.A.",
"A.A.A.A.A.A.A.A.A.A.A.:.  k 4.3.3.3.V V V V V V V V V V V V V V V V V V k + #.k.n.A.A.A.A.A.A.A.A.A.",
"A.A.A.A.A.A.A.A.A.A.A.:.  h V 2.V V V V V V V V V V V V V V V V V V V V M m l 0 r.A.A.A.A.A.A.A.A.A.",
"A.A.A.A.A.A.A.A.A.A.Z.:.  h V V V V V V V V V V V V V V V V V V V V V V V V < o ,.A.A.A.A.A.A.A.A.A.",
"A.A.A.A.A.A.A.A.A.N.z.*.O j V V V V V V V V V V V V V V V V V V V M V M M M < o ,.A.A.A.A.A.A.A.A.A.",
"A.A.A.A.A.A.A.A.A.t.a C v M V V V V V V V V V V V V N V V N V V M n n n n n > o ,.A.A.A.A.A.A.A.A.A.",
"A.A.A.A.A.A.A.A.A.,.o , N N V V V V V V V V V V N M M m M m M M n c c c c c : o ,.A.A.A.A.A.A.A.A.A.",
"A.A.A.A.A.A.A.A.A.,.o , V V V V V V V V V V V V m n c c c c c c c c c c c c : o ,.A.A.A.A.A.A.A.A.A.",
"A.A.A.A.A.A.A.A.A.>.o , V V V V V M n n n n n n n c c c c c c c c c c c c c : o ,.A.A.A.A.A.A.A.A.A.",
"A.A.A.A.A.A.A.A.A.,.o , V V M M m n c c c c c c c c c c c c c c c c c c c c : o ,.A.A.A.A.A.A.A.A.A.",
"A.A.A.A.A.A.A.A.A.,.o , V m c c c c c c c c c c c c c c c c c c c c c c c c : o ,.A.A.A.A.A.A.A.A.A.",
"A.A.A.A.A.A.A.A.A.,.o : n v c c c c c c c c c c c c c c c c c c c c c c c c : o ,.A.A.A.A.A.A.A.A.A.",
"A.A.A.A.A.A.A.A.A.t.g r h z c c c c c c c c c c c c c c c c c c c c c c k h y g t.A.A.A.A.A.A.A.A.A.",
"A.A.A.A.A.A.A.A.Z.V.m.=.. > c c c c c c c c c c c c c c c c c c x c c c < . =.M.N.A.A.A.A.A.A.A.A.A.",
"A.A.A.A.A.A.A.A.A.A.A.k.>.R : : : k c c c c c c c c c c k : : : : : : : R >.j.A.A.A.A.A.A.A.A.A.A.A.",
"A.A.A.A.A.A.A.A.A.A.A.A.A.=.    . > k k k k k k k k k k < + .   X * o   =.A.A.A.A.A.A.A.A.A.A.A.A.A.",
"A.A.A.A.A.A.A.A.A.A.A.A.A.=.  # & # O O O O O O O X O O % 6 = . t %.!   =.A.A.Z.A.A.A.A.A.A.A.A.A.A.",
"A.A.A.A.A.A.A.A.A.A.A.j.>.+./ / / 2 . @ = * = * = = = % 5 y 5 . d 7.&.! o.>.j.Z.A.A.A.A.A.A.A.A.A.A.",
"A.A.A.A.A.A.A.A.A.A.A.:.   .f.w.7.i X 5 F F F y F F F F F y 3 . d 7.0.0.| $ ;.M.V.A.A.A.A.A.A.A.A.A.",
"A.A.A.A.A.A.A.A.A.A.A.;.  @.d.w.5.i . 8 W H y F F W W H i y 5 X ~ a.f.f.p.8.$._ t.A.A.A.A.A.A.A.A.A.",
"A.A.A.A.A.A.A.A.A.A.A.>.  @.d.q.5.i X 7 W W L L W W H H F F 5 . ~ s.b.b.b.b. .o ,.A.A.A.A.A.A.A.A.A.",
"A.A.A.A.A.A.A.A.A.A.A.;.   .s.q.7.i . 3 G W ) ) W H y F F y 5 X ~ q.s.s.s.s./ # <.A.A.A.A.A.A.A.A.A.",
"A.A.A.A.A.A.A.A.A.A.A.>.  / q.9.7.i   X 1 G ) ) Q Q W F 7 * T 1.-.! i d i d *.u.z.A.A.A.A.A.A.A.A.A.",
"A.A.A.A.A.A.A.A.A.A.A.:.  / 9.9.5.i     X B ) ) ( Q W F 5 X [ v.i.[ _ _ _ _ t.A.A.A.A.A.A.A.A.A.A.A.",
"A.A.A.A.A.A.A.A.A.A.A.:.  ^ 9.9.7.s     @ B ) ) Q H F F 5 o [ v.Z.N.N.N.N.N.C.A.A.A.A.A.A.A.A.A.A.A.",
"A.A.A.A.A.A.A.A.A.A.A.k.<.X.U J s *     @ B ( ) Q Q L F 5 . [ c.A.A.A.A.A.A.A.A.A.A.A.A.A.A.A.A.A.A.",
"A.A.A.A.A.A.A.A.A.A.A.A.A.e.p p 0 &   o * F Q Q Q Q W H w & ` u.x.A.A.A.A.A.A.A.A.A.A.A.A.A.A.A.A.A.",
"A.A.A.A.A.A.A.A.A.A.A.A.A.M.x.x.k.] o 9 a J F F H F K s g a e 9 =.M.A.A.A.A.A.A.A.A.A.A.A.A.A.A.A.A.",
"A.A.A.A.A.A.A.A.A.A.A.A.A.A.A.A.M...o 0 g s U s i t u f g g 0 o ..M.A.A.A.A.A.A.A.A.A.A.A.A.A.A.A.A.",
"A.A.A.A.A.A.A.A.A.A.A.A.A.A.A.A.m...o 0 g g _ g a q q a g g q o ..M.A.A.A.A.A.A.A.A.A.A.A.A.A.A.A.A.",
"A.A.A.A.A.A.A.A.A.A.A.A.A.A.A.A.m...o 0 g g g g p & * t i y 5 . ..M.A.A.A.A.A.A.A.A.A.A.A.A.A.A.A.A.",
"A.A.A.A.A.A.A.A.A.A.A.A.A.A.A.A.M...o 0 _ g g g e & $ 7 F y 6 1 T >.h.Z.A.A.A.A.A.A.A.A.A.A.A.A.A.A.",
"A.A.A.A.A.A.A.A.A.A.A.A.A.A.A.A.M...  0 g g g g e o # 7 F F F F 3   +.V.A.A.A.A.A.A.A.A.A.A.A.A.A.A.",
"A.A.A.A.A.A.A.A.A.A.A.A.A.A.A.A.M...  - e a f u 9 o # 6 F F y F 3   +.V.A.A.A.A.A.A.A.A.A.A.A.A.A.A.",
"A.A.A.A.A.A.A.A.A.A.A.A.A.A.A.A.M...o = t i U u 2 o o 1 5 5 5 5 *   +.C.A.A.A.A.A.A.A.A.A.A.A.A.A.A.",
"A.A.A.A.A.A.A.A.A.A.A.A.A.A.A.A.M.... 3 F Q Q H 6 o                 +.V.A.A.A.A.A.A.A.A.A.A.A.A.A.A.",
"A.A.A.A.A.A.A.A.A.A.A.A.A.A.A.A.M...  5 F H H F 6 # 0 -.r.r.r.r.r.r.j.Z.A.A.A.A.A.A.A.A.A.A.A.A.A.A.",
"A.A.A.A.A.A.A.A.A.A.A.A.A.A.A.A.M.... 5 F F F F 6 X g k.A.A.A.A.A.A.A.A.A.A.A.A.A.A.A.A.A.A.A.A.A.A.",
"A.A.A.A.A.A.A.A.A.A.A.A.A.A.A.A.M.... 5 F F F F 6 # g k.A.A.A.A.A.A.A.A.A.A.A.A.A.A.A.A.A.A.A.A.A.A.",
"A.A.A.A.A.A.A.A.A.A.A.A.A.A.A.A.M...  $ % * * = $ . f k.A.A.A.A.A.A.A.A.A.A.A.A.A.A.A.A.A.A.A.A.A.A.",
"A.A.A.A.A.A.A.A.A.A.A.A.A.A.A.A.M...                g k.A.A.A.A.A.A.A.A.A.A.A.A.A.A.A.A.A.A.A.A.A.A."
};
