/* XPM */
static char *player_posa1707303801[] = {
/* columns rows colors chars-per-pixel */
"50 50 143 2 ",
"   c #020202",
".  c #0A0504",
"X  c #0D0906",
"o  c #090909",
"O  c #110404",
"+  c #1B0706",
"@  c #120D0B",
"#  c #15100D",
"$  c #1A130E",
"%  c #111111",
"&  c #1D1712",
"*  c #1B1917",
"=  c #1C1B1B",
"-  c #250908",
";  c #2C0C0A",
":  c #330E0C",
">  c #3B0F0D",
",  c #32110F",
"<  c #38110E",
"1  c #231B13",
"2  c #201D1B",
"3  c #292017",
"4  c #25211F",
"5  c #2C2319",
"6  c #322618",
"7  c #372B1F",
"8  c #3B2C1C",
"9  c #242526",
"0  c #2A2724",
"q  c #292728",
"w  c #2A2A2B",
"e  c #3D2525",
"r  c #342B22",
"t  c #392D21",
"y  c #3B342C",
"u  c #2E2F30",
"i  c #343434",
"p  c #3C3632",
"a  c #3A3837",
"s  c #363738",
"d  c #363839",
"f  c #3A3B3D",
"g  c #44110E",
"h  c #451210",
"j  c #4C1412",
"k  c #421C1B",
"l  c #531612",
"z  c #5A1613",
"x  c #5D1916",
"c  c #641A16",
"v  c #6E1B17",
"b  c #661B18",
"n  c #6D1C19",
"m  c #731E1A",
"M  c #781F1B",
"N  c #42311E",
"B  c #7C201C",
"V  c #462423",
"C  c #4C2D2D",
"Z  c #552725",
"A  c #582624",
"S  c #562D2C",
"D  c #433425",
"F  c #493927",
"G  c #42382F",
"H  c #4D3B29",
"J  c #543E25",
"K  c #52302F",
"L  c #513E28",
"P  c #443C34",
"I  c #4B3C3D",
"U  c #563636",
"Y  c #554029",
"T  c #5B442A",
"R  c #4C4439",
"E  c #60472B",
"W  c #63492C",
"Q  c #3E3F41",
"!  c #434344",
"~  c #454749",
"^  c #4A4C4E",
"/  c #524D4F",
"(  c #595044",
")  c #5B554C",
"_  c #515456",
"`  c #595557",
"'  c #5F5A53",
"]  c #56595B",
"[  c #595C5F",
"{  c #605649",
"}  c #655A4B",
"|  c #615A51",
" . c #60585A",
".. c #716454",
"X. c #7A6E5D",
"o. c #626466",
"O. c #66696B",
"+. c #696B6E",
"@. c #6B6D70",
"#. c #6E7174",
"$. c #717477",
"%. c #727579",
"&. c #777A7E",
"*. c #797C7F",
"=. c #84211D",
"-. c #8C231E",
";. c #96251F",
":. c #817361",
">. c #8C7D69",
",. c #907F6A",
"<. c #93826E",
"1. c #A18F78",
"2. c #A5937C",
"3. c #AA977F",
"4. c #7A7D81",
"5. c #7E8285",
"6. c #83878B",
"7. c #85898D",
"8. c #8A8E92",
"9. c #8D9195",
"0. c #8F9498",
"q. c #92969B",
"w. c #B3A087",
"e. c #B7A48B",
"r. c #B9A68D",
"t. c #979BA0",
"y. c #9A9FA4",
"u. c #9BA0A4",
"i. c #9EA3A8",
"p. c #A0A5AA",
"a. c #A3A8AD",
"s. c #AAAEB4",
"d. c #B0B5BA",
"f. c #B3B8BD",
"g. c #B7BCC1",
"h. c #B8BDC2",
"j. c #BBC0C6",
"k. c #BFC4CA",
"l. c #C1C6CC",
"z. c #C3C9CE",
"x. c #C7CDD3",
"c. c #C9CFD4",
"v. c #CBD1D7",
/* pixels */
"v.v.v.v.v.v.v.v.v.v.v.v.v.v.v.v.v.c.v.v.s.!                     _ h.v.v.v.v.v.v.v.v.v.v.v.v.v.v.v.v.",
"v.v.v.v.v.v.v.v.v.v.v.v.v.v.v.c.x.q.#.$. .S h g g g h g g g g g U O.t.c.v.v.v.v.v.v.v.v.v.v.v.v.v.v.",
"v.v.v.v.v.v.v.v.v.v.v.v.v.v.c.l.s./ O O - v ;.;.;.;.;.;.;.;.;.;.c + ` d.l.v.v.v.v.v.v.v.v.v.v.v.v.v.",
"v.v.v.v.v.v.v.v.v.v.v.v.v.v.x.*.p A v v M -.;.;.;.;.;.;.;.;.;.;.=.m A s 4.v.v.v.v.v.v.v.v.v.v.v.v.v.",
"v.v.v.v.v.v.v.v.v.v.v.v.v.c.z.[ . z ;.;.;.;.;.;.;.;.;.;.;.-.-.-.-.-.j   o.v.v.v.v.v.v.v.v.v.v.v.v.v.",
"v.v.v.v.v.v.v.v.v.v.v.v.v.c.l.] O z ;.;.;.;.;.;.;.;.;.;.-.=.M M B B h . o.c.c.v.v.v.v.v.v.v.v.v.v.v.",
"v.v.v.v.v.v.v.v.v.v.v.v.v.7.! S c =.;.;.;.;.;.;.;.;.-.-.=.=.=.M =.B n l C ~ 8.v.v.v.v.v.v.v.v.v.v.v.",
"v.v.v.v.v.v.v.v.v.v.v.v.v.o.. l ;.;.;.;.;.;.;.;.-.-.-.=.M B B M M M M M g   @.v.v.v.v.v.v.v.v.v.v.v.",
"v.v.v.v.v.v.v.v.v.v.v.v.v.o.  l ;.;.;.;.;.;.;.=.=.M B B B B B B B B B B h   @.v.v.v.v.v.v.v.v.v.v.v.",
"v.v.v.v.v.v.v.v.v.v.v.q.` U z M ;.-.-.=.-.=.=.B B B B B B B B B B B B B >   @.c.v.v.v.v.v.v.v.v.v.v.",
"v.v.v.v.v.v.v.v.v.v.v.@.  h -.;.-.=.B B B B B B B B B B B B B B B B B B j + [ p.h.v.v.v.v.v.v.v.v.v.",
"v.v.v.v.v.v.v.v.v.v.v.@.  h B =.=.B B B B B B B B B B B M B B B B B B B M n k 9 5.v.v.v.v.v.v.v.v.v.",
"v.v.v.v.v.v.v.v.v.v.c.@.  g B B B B B B B B B B B B B B =.B B B B B B B M M < o %.v.v.v.v.v.v.v.v.v.",
"v.v.v.v.v.v.v.v.v.k.d.o.O h B B B B B B B B B B B B B B M B B B M M M M M M < o %.v.v.v.v.v.v.v.v.v.",
"v.v.v.v.v.v.v.v.v.7.i V c m M B B B B B B B B B B B B B B M B B m b b b b b ; o %.v.v.v.v.v.v.v.v.v.",
"v.v.v.v.v.v.v.v.v.%.o > M M B B B B B B B B B B M m m n m n m m b x x x x x ; o %.v.v.v.v.v.v.v.v.v.",
"v.v.v.v.v.v.v.v.v.$.o > B B B B B B B B B M B M m b x x x x x x x x x x x x ; o #.v.v.v.v.v.v.v.v.v.",
"v.v.v.v.v.v.v.v.v.$.o > B B B B B n b b b b b b b x x x x x x x x x x x x x ; o %.v.v.v.v.v.v.v.v.v.",
"v.v.v.v.v.v.v.v.v.%.o > B B B n n b x x x x x x x x x x x x x x x x x x x x ; o %.v.v.v.v.v.v.v.v.v.",
"v.v.v.v.v.v.v.v.v.%.o < B b x x x x x x x x x x x x x x x x x x x x x x x x ; o %.v.v.v.v.v.v.v.v.v.",
"v.v.v.v.v.v.v.v.v.%.o : b c x x x x x x x x x x x x x x x x x x x x x x x x ; o %.v.v.v.v.v.v.v.v.v.",
"v.v.v.v.v.v.v.v.v.8.f e h l x x x x x x x x x x x x x x x x x x x x x x j h e Q 8.v.v.v.v.v.v.v.v.v.",
"v.v.v.v.v.v.v.v.v.z.h.o.  : x x x x x x x x x x x x x x x x x x x x x x , . o.h.x.v.v.v.v.v.v.v.v.v.",
"v.v.v.v.v.v.v.v.v.v.c.i.#.I ; ; ; j x x x x x x x x x x j , ; ; ; ; ; ; I #.i.v.c.v.v.v.v.v.v.v.v.v.",
"v.v.v.v.v.v.v.v.v.v.v.v.v.o.  . @ , j j j j j j j j j j > + o   . o     o.v.v.v.v.v.v.v.v.v.v.v.v.v.",
"v.v.v.v.v.v.v.v.v.v.v.v.v.o.  = w & O . O O O O . X O O $ 1 1 . * w =   o.v.v.v.v.v.v.v.v.v.v.v.v.v.",
"v.v.v.v.v.v.v.v.v.v.v.v.v.o.  * q % . # & & & & 1 & & & 3 t 5 . % w *   o.v.v.v.v.v.v.v.v.v.v.v.v.v.",
"v.v.v.v.v.v.v.v.v.v.v.k.h.o.% = 0 @ . 3 D D D D D D D D D D 4 . o 4 * # o.h.k.v.v.v.v.v.v.v.v.v.v.v.",
"v.v.v.v.v.v.v.v.v.v.v.6.s } >.:...r . 5 D Y Y F t D F Y L F 5 . 7 ..:.>.' s 6.v.v.v.v.v.v.v.v.v.v.v.",
"v.v.v.v.v.v.v.v.v.v.v.+.  ) e.3.>.y . 5 D H Y H L H H Y H D 4 . y <.3.e.)   @.v.v.v.v.v.v.v.v.v.v.v.",
"v.v.v.v.v.v.v.v.v.v.x.+.  { e.2.<.G o 5 D D F T W W T F D t 3 X G >.2.e.}   +.x.v.v.v.v.v.v.v.v.v.v.",
"v.v.v.v.v.v.v.v.v.q.^ ' X.<.1.} y o.*.f & N T W W W W T N 1 f *.O.y } 1.<.X.' ^ 0.v.v.v.v.v.v.v.v.v.",
"v.v.v.v.v.v.v.v.v.%.o ( r.2.<.P % 4.d.^ X 8 T E W W E T 8 X ^ f.*.% P <.3.r.( o $.v.v.v.v.v.v.v.v.v.",
"v.v.v.v.v.v.v.v.v.%.o ( r.w.<.P % 4.f.^ X 5 F T W W T F 5 X ^ f.4.% R <.3.r.( o $.v.v.v.v.v.v.v.v.v.",
"v.v.v.v.v.v.v.v.v.%.o ( r.w.2.R % 5.f.^ X 8 T T W W T T 8 X ^ g.*.% R 2.w.e.( o %.v.v.v.v.v.v.v.v.v.",
"v.v.v.v.v.v.v.v.v.7.i ) >.<.>.) d #.9.! $ N T E W W E T D $ Q 0.#.d ( <.<.<.) i 7.v.v.v.v.v.v.v.v.v.",
"v.v.v.v.v.v.v.v.v.l.d.O.* * 2 @.a.] 2 5 t D H Y W W T H D 8 5 2 ] a.@.= * * O.d.k.v.v.v.v.v.v.v.v.v.",
"v.v.v.v.v.v.v.v.v.v.v.y.O.O.+.p.j._ o 9 p p G F Y Y F G p p 0   _ j.i.#.O.O.u.v.v.v.v.v.v.v.v.v.v.v.",
"v.v.v.v.v.v.v.v.v.v.v.v.v.v.v.v.j._ . q f f a y r t y a f f 9 o _ j.v.v.v.v.v.v.v.v.v.v.v.v.v.v.v.v.",
"v.v.v.v.v.v.v.v.v.v.v.v.v.v.v.v.h._ o q f f i = X X * i f f 9 o _ j.v.v.v.v.v.v.v.v.v.v.v.v.v.v.v.v.",
"v.v.v.v.v.v.v.v.v.v.v.v.v.v.x.y.#.Q = u d i q o     o q i s u = Q $.u.v.v.v.v.v.v.v.v.v.v.v.v.v.v.v.",
"v.v.v.v.v.v.v.v.v.v.v.v.v.v.z.]   9 Q Q s w 2 X     X 2 w s Q f 9   [ k.v.v.v.v.v.v.v.v.v.v.v.v.v.v.",
"v.v.v.v.v.v.v.v.v.v.v.v.v.v.z.[ . 9 f f s w 2 X     o 2 w a f Q 9   [ x.v.v.v.v.v.v.v.v.v.v.v.v.v.v.",
"v.v.v.v.v.v.v.v.v.v.v.v.v.v.z.[ . 0 P P i 4 2 f ~ ~ f 4 2 p P P 0   ] x.v.v.v.v.v.v.v.v.v.v.v.v.v.v.",
"v.v.v.v.v.v.v.v.v.v.v.v.v.v.z.[ . 8 T H r # w 0.x.x.0.w # 7 H E 8 X [ z.v.v.v.v.v.v.v.v.v.v.v.v.v.v.",
"v.v.v.v.v.v.v.v.v.v.v.v.v.8./ P N J E H t % w q.c.v.0.w # 7 H T Y 8 R ^ 8.v.v.v.v.v.v.v.v.v.v.v.v.v.",
"v.v.v.v.v.v.v.v.v.v.v.v.v.o.. 5 T T Y F 7 # w q.v.v.q.w # 7 H Y T T 5   o.v.v.v.v.v.v.v.v.v.v.v.v.v.",
"v.v.v.v.v.v.v.v.v.v.v.v.v.o.  3 D D D D 7 # w q.v.v.0.w # 7 D D D D 3   o.v.v.v.v.v.v.v.v.v.v.v.v.v.",
"v.v.v.v.v.v.v.v.v.v.v.v.v.o.  X & & $ & $ . w q.v.v.q.w o # $ & & & X   o.v.v.v.v.v.v.v.v.v.v.v.v.v.",
"v.v.v.v.v.v.v.v.v.v.v.v.v.o.                w q.v.v.q.w                 o.v.v.v.v.v.v.v.v.v.v.v.v.v."
};
