/* XPM */
static char *_24891707299926[] = {
/* columns rows colors chars-per-pixel */
"50 50 147 2 ",
"   c #3C4C5C",
".  c #404F5F",
"X  c #445363",
"o  c #485766",
"O  c #465668",
"+  c #4C5B6B",
"@  c #505F6F",
"#  c #52606E",
"$  c #546373",
"%  c #596776",
"&  c #5C6A77",
"*  c #576678",
"=  c #586778",
"-  c #5B6A7A",
";  c #616E7B",
":  c #64717E",
">  c #5B6D85",
",  c #5C6E88",
"<  c #5D718A",
"1  c #667382",
"2  c #697683",
"3  c #6C7987",
"4  c #61738C",
"5  c #68778A",
"6  c #67788F",
"7  c #6B7A8D",
"8  c #717D8A",
"9  c #637893",
"0  c #6D7D92",
"q  c #677C98",
"w  c #75818D",
"e  c #6B809E",
"r  c #748394",
"t  c #798593",
"y  c #7E8995",
"u  c #748599",
"i  c #798798",
"p  c #77889D",
"a  c #79899D",
"s  c #6F85A4",
"d  c #7689A2",
"f  c #7D8DA2",
"g  c #748BAA",
"h  c #798EAA",
"j  c #7F90A3",
"k  c #7A93B3",
"l  c #7D97B9",
"z  c #7E98BA",
"x  c #818C97",
"c  c #828F9F",
"v  c #87929C",
"b  c #8A949E",
"n  c #8592A3",
"m  c #8A96A5",
"M  c #8D99A6",
"N  c #8595A9",
"B  c #8997AA",
"V  c #8D9AAC",
"C  c #929CA6",
"Z  c #929DAD",
"A  c #8599B3",
"S  c #8D9DB2",
"D  c #8098B8",
"F  c #8B9EB9",
"G  c #929EB1",
"H  c #96A1AD",
"J  c #9AA4AF",
"K  c #8BA1BD",
"L  c #97A2B4",
"P  c #99A4B5",
"I  c #9DA8B5",
"U  c #94A4BA",
"Y  c #9AA7B9",
"T  c #96A8BF",
"R  c #9DAABC",
"E  c #A2ABB5",
"W  c #A3ADBB",
"Q  c #A7B0BB",
"!  c #ACB4BD",
"~  c #849EC1",
"^  c #86A1C4",
"/  c #8EA4C1",
"(  c #89A5CA",
")  c #96ABC7",
"_  c #9BACC2",
"`  c #99AEC9",
"'  c #90ACD1",
"]  c #92B0D7",
"[  c #95B3DC",
"{  c #98B6DF",
"}  c #A1AEC1",
"|  c #A5B2C4",
" . c #ABB5C4",
".. c #AEB9C5",
"X. c #A6B5CA",
"o. c #A9B6C9",
"O. c #ABB9CD",
"+. c #B0B7C0",
"@. c #B3BBC4",
"#. c #B2BBCB",
"$. c #B8BFCE",
"%. c #A0B5D1",
"&. c #AEBCD2",
"*. c #B2BED3",
"=. c #9AB9E2",
"-. c #BAC0C7",
";. c #B7C0CB",
":. c #BCC3CB",
">. c #B4C1D5",
",. c #BCC4D3",
"<. c #BFC8D2",
"1. c #B5C4DA",
"2. c #BAC7DB",
"3. c #BCC9DC",
"4. c #BDCCE3",
"5. c #C0C7CE",
"6. c #C2C9CF",
"7. c #C0C7D4",
"8. c #C4CBD4",
"9. c #C9CFD5",
"0. c #C5CEDC",
"q. c #C8CEDA",
"w. c #CBD1D7",
"e. c #C7D2DF",
"r. c #CCD2DE",
"t. c #D0D5DF",
"y. c #C2CFE4",
"u. c #C6D1E4",
"i. c #CDD4E1",
"p. c #C4D4EC",
"a. c #CAD6E9",
"s. c #D1D6E1",
"d. c #D5DBE5",
"f. c #D9DDE5",
"g. c #D9DFE9",
"h. c #C9D9F2",
"j. c #DCE3EB",
"k. c #DCE4F0",
"l. c #E2E6EE",
"z. c #E5E9EF",
"x. c #E5EAF1",
"c. c #EAEEF4",
"v. c #EEF0F4",
"b. c #EDF2F9",
"n. c #F2F3F6",
"m. c #F2F6FB",
"M. c #F5FAFF",
/* pixels */
"w.w.w.w.w.w.w.w.9.$.! I H Z Z H Z H H H H H H H L H L L J L J J Z J Z L P P I Q @.:.w.r.9.9.r.w.w.w.",
"w.w.w.w.w.9.-.Q +.7.d.l.c.c.c.x.l.j.j.d.d.s.e.w.w.8.<.<.,.;.;.;.#.#.@.+. .Q W L V V C Q 5.r.w.w.w.w.",
"w.w.w.w.9.Q #.j.M.M.M.M.M.M.M.M.M.M.M.M.M.M.M.M.M.M.M.M.M.M.M.M.M.M.M.M.M.M.n.c.x.s.#.P 8 8 6.9.w.w.",
"w.w.w.8. .q.r.m.M.M.M.M.M.M.M.M.M.M.M.M.M.M.M.M.M.M.M.M.M.M.M.M.M.M.M.M.M.M.M.M.M.M.M.j.c o $ $.w.w.",
"w.w.9. .q.r.r.x.M.M.M.M.m.m.b.b.x.x.x.z.k.l.j.j.j.k.j.j.j.j.j.d.d.f.f.l.n.M.M.M.M.M.c.i.r.E O 8 w.w.",
"w.w.@.q.s.z.f.r.z.M.n.d. .A c c f d j a j a p p a a p a p p p p a f f d n G ,.c.j.d.r.r.q.i.m . E w.",
"w.9.,.q.n.z.s.n.v.s.G a d a 0 c p p p a p p p p p a p p p p p p d p p a d a q 0 ;.s.r.r.i.i.7.* 2 w.",
"w.:.9.r.f.d.m.l.7.n f a a a c m B B V V G L L L L U L L H S V B N c c p a a d c 7 W d.r.q.i.q.m . 6.",
"w.@.r.r.t.v.l.7.c p p c V G G G L L L L P L L L L L L L L L L L Y G G G m 0 c 0 a 6 Q d.q.s.q. .  J ",
"w.! r.r.d.v.s.n d a B G G P Y P L L L P L L L L L L L L L L L L G G Y Y Y G N 0 a a 6 7.s.q.#.G X x ",
"9.E 9.q.z.f.Q a f V P L G Y G Y L L L L L L L L L L L L L L L P G } G Y Y P G c p a u c d.+.L G @ ; ",
"q.M Y ,.x.i.n p N L L L Y G Y G P L L L L L L P L L L P I L L L G G E G G P P G f p f 6 7.Y L P % $ ",
"w.t L W x.$.p f G L G P G P G Y L L P P L L I P P P P P P P P P P G P P G P G G a a p u W  .G G ; @ ",
"q.3 L Y g.W a B L L P P G P Y G P P P P U P P Y R Y R P Y P P Y P P Y G P P G n p p p c V $.P G % o ",
"w.1 L L t.Z p B L G P G P G P G P U P Y Y R R R R R R R R R R Y P P P G G N f p p p p B V 7.L V & o ",
"w.; L L ,.N p p c N B B B N B B B V V U L Z K L U R } } R R R U S A B n h c f f c a f G V 7.G c & + ",
"q.- L L #.N p p f f N B S L L Y R R R W } } | | | | | | | | } W } R _ R R Y P P L G f G B 7.m c % @ ",
"9.- L L +.B a B S L L P Y Y R } _ | } | | | | X.o.| X.X.| X.X.| | } } W _ R Y Y Y P N L V +.c c % @ ",
"6.= L L #.N V L L P Y Y R R W _ | | X.X.o.o.O.&.O.&.O.O.O.O.o.o.o.| | } } } W R Y Y V L a Q c c % # ",
"5.= L G #.B G L P P Y R W _ } | | X.o.O.&.&.&.&.*.*.*.*.*.&.&.&.&.O.o.| | } } _ R R B c i Q c c % & ",
"$.% L L #.B L Y Y Y R _ _ | | o.o.&.&.*.>.>.1.1.2.4.2.2.1.1.1.>.*.*.O.O.o.| } _ L m c c t W c c $ & ",
"@.% L L #.V L Y R R W | | | O.O.&.*.>.1.1.4.4.4.4.4.4.4.4.4.3.4.1.1.*.*.O._ G m c c c a i Q c c $ ; ",
"@.% L L +.S I R R } } | X.O.&.*.>.1.4.4.4.4.p.h.h.p.h.p.p.4.1.>.O.} L B n c c c c c c m i Q c c $ ; ",
"+.% P P #.S Y R _ } | X.O.&.*.>.2.4.4.p.h.h.h.4.&.X.R L V N c c c c c c c c c c c c c m i W c c $ : ",
"! * L L #.S R } } | o.O.&.*.1.4.4.p.p.4.| Z n c f v c c c f c c c c c c c c c c c c m m y W c c $ 2 ",
"Q * L Y $.L R } } o.O.&.>.2.4.y.1.U n c n c c c v f c c c v c c c c c c c c c c c c m m i Q c c # 8 ",
"E $ P L $.U } } X.O.&.>.1.1.O.B c c c c c c c c f c c c c c c c c c c c c c c c c c V B i W c c $ w ",
"E @ P P ,.Y } | X.&.*.>.X.B c c c c c c c c c c v f c c c c c c c c c c c c c c c c C B y W c c @ t ",
"E + V Y ,._ } o.O.&.X.V c c c c c c c c c c c c c c a n c c c c c c c c c c c c c c G B a E c c @ x ",
"I + c Z ,.Y | O.X.G c c c c c c c c c c c c c c c c n c c c c c c c c c c c c c c c I B i W c c # x ",
"J + c r H m V B c c c c c c c c v c v a c c c c c c c c c c c c c c c c c c c c c M W B i E c c # b ",
"C + r 5 Z a c c c c c c c c c c c c c n c c c c c c c c c c c c c c c c c c c c m P } m y E c c @ m ",
"b o 5 5 Z a v c c c c c c c c c c c c c c c c c c c c c c c c c n n b m V C L W  . .#.m i P v c @ C ",
"x o 5 5 H y n v c c c c c c c c c c c c c c c c c c c c c c n m m Z Z G L L L Y Y  . .m i P c c @ J ",
"8 + 5 5 J a m v c c c c c c c c c c c c c c c c n m B V G L L L L L L L L L L L L Y  .m y G c c @ J ",
"1 + 5 5 Z a n n c c c c c c c c c c c c n m V G G L L L L L L L L L L L L L L L L W  .m i C c c $ E ",
"; $ 5 5 M v n m c c c c c c c c c c m G Y G W G L L L L L L L L L L L L L L L L L  . .m y c c n % E ",
"- - 5 5 i Z x Z c c c c c c c c m G G P G G G G L L P L L L P L L L L L L L L L R  . .m m 0 y c & ! ",
": 3 7 5 7 E 5 P n v c c c c c B P P G Y Y G G E L L L L L L L L P Y L Y P P L Y  . .W m L 5 6 r : ! ",
"8 3 i 5 5 Z t Z H n c c c c c V G P Y G P Y G G L L L L L P P P Y Y Y Y Y R  . .#.#.Y Y c 5 6 y 2 @.",
"b % M 5 5 0 I 8 P Z m c c c c c C G L G P G G E P G P P P Y Y R } } } | O.*.*.$.#. .R f.0 5 5 G ; 6.",
"!   Z 5 5 5 i M a H Z Z M n b n b m m V Z G G G P P W | X...O.;.*.*.7.0.7.7.0.7.#.} s.$.u 0 0 #.; w.",
"w.X n i 5 5 5 n C i Z Z Z J Z Z Z Z Z Z G C G E W  .#.#.;.,.2.3.u.u.y.u.u.u.y.*.o.f.q.N f f V $.x w.",
"w.x & L 5 5 5 5 i I i m Z Z J J J P E W !  .+. .|  .#.>.2.3.e.4.a.a.a.p.y.y.*.*.q./ A N N c 7.v ! w.",
"w.-.o m r 5 5 5 5 3 P Z M B Z G G G G G G G Z G G U Y _ | X.O.>.*.*.y.p.p.3.*._ A / F S N P $.x w.w.",
"w.w.C . m 7 5 5 5 5 5 u 7 B Z B B V Z B B B B S S B B N B K K K / / ) ` ~ ~ D D &.} / F / $.8 9.w.w.",
"w.w.9.w X c 8 5 5 5 5 P > > > > > > > , > , , , 9 9 q q e g k z ~ ~ ~ ' ( ( ~ ~ 2.%.} ) $.t 5.q.w.w.",
"w.w.w.w.x . 8 c c a P l.0 > > > , , 4 6 0 0 u u d d h h k z K ( ] [ { =.{ { ] ' b.k.q.E y 6.w.w.w.w.",
"w.w.w.w.w.J # o w J -.w.8.I H H M m M H J E E ! ! Q E E J I E I _ W | #.*.1.&.>.-.H v J 9.w.w.w.w.w.",
"w.w.w.w.w.w.9.E 8 # X X X + $ : 7 v M C H J E E E Q ! ! ! ! ! ! +. .! Q Q E E E ! 6.w.w.w.w.w.w.w.w."
};
