/* XPM */
static char *_3d82e6583244f0298b0c2dd1bb471a7Cc3RJlhen0lcqHeB[] = {
/* columns rows colors chars-per-pixel */
"50 50 132 2 ",
"   c #FF8C01",
".  c #FA8D0C",
"X  c #FE9404",
"o  c #FF9801",
"O  c #F98D12",
"+  c #F58E1B",
"@  c #F5941A",
"#  c #FFA301",
"$  c #FFAB02",
"%  c #FAA90C",
"&  c #FFB401",
"*  c #FFBB01",
"=  c #FAB70B",
"-  c #F3BD1A",
";  c #F18F26",
":  c #EF942D",
">  c #F0952A",
",  c #EE9736",
"<  c #EC983C",
"1  c #EEB530",
"2  c #FFB435",
"3  c #FFC301",
"4  c #FFCA01",
"5  c #FECC0C",
"6  c #FDCD13",
"7  c #F3C519",
"8  c #F5C81A",
"9  c #FFD016",
"0  c #FFD11B",
"q  c #EFC82F",
"w  c #F2C724",
"e  c #F4C924",
"r  c #F2C72A",
"t  c #F3CA2B",
"y  c #FFD322",
"u  c #FFD52B",
"i  c #EEC731",
"p  c #EEC832",
"a  c #EAC73C",
"s  c #FFD732",
"d  c #FFD83A",
"f  c #E79946",
"g  c #EA9942",
"h  c #E69D4D",
"j  c #E89C49",
"k  c #E59E51",
"l  c #E9B943",
"z  c #FFBE44",
"x  c #E0A25F",
"c  c #E1AB5B",
"v  c #E5BF51",
"b  c #DDA66B",
"n  c #DEB465",
"m  c #DBBA6E",
"M  c #D9A773",
"N  c #D7AB7E",
"B  c #D8AB7D",
"V  c #DEC55C",
"C  c #E8C744",
"Z  c #E6C74B",
"A  c #E7C84D",
"S  c #FFDA42",
"D  c #FFDC4C",
"F  c #E3C654",
"G  c #E5C851",
"H  c #E1C75C",
"J  c #E4C95C",
"K  c #FFDE53",
"L  c #FFDF58",
"P  c #FFE05C",
"I  c #DCC464",
"U  c #D7C36E",
"Y  c #DAC56E",
"T  c #D7C470",
"R  c #D6C57B",
"E  c #FFE264",
"W  c #FFE46B",
"Q  c #FFE674",
"!  c #FFE779",
"~  c #FFE87C",
"^  c #D3AC83",
"/  c #D3AE8A",
"(  c #D1B58E",
")  c #CFB195",
"_  c #CFB49C",
"`  c #D2B190",
"'  c #CCB5A2",
"]  c #C9B9AD",
"[  c #C6BFBA",
"{  c #D4C684",
"}  c #D2C68F",
"|  c #CFC696",
" . c #D0C492",
".. c #D3C890",
"X. c #C8C7B1",
"o. c #C5C4BD",
"O. c #C6C8BD",
"+. c #C4BFC0",
"@. c #C4BFC0",
"#. c #BFC7D1",
"$. c #BFC7D4",
"%. c #BEC7D5",
"&. c #BFC7D5",
"*. c #BEC7D6",
"=. c #BEC7D7",
"-. c #BEC7D6",
";. c #BFC8D6",
":. c #BEC7D8",
">. c #BEC7D9",
",. c #BEC7D8",
"<. c #BEC8D8",
"1. c #BEC8D9",
"2. c #BEC8DA",
"3. c #BEC8DA",
"4. c #C3C7C2",
"5. c #C3C1C5",
"6. c #C3C7C5",
"7. c #C2C6C7",
"8. c #C2C1C6",
"9. c #C4C8C3",
"0. c #C3C8C6",
"q. c #C2C2C8",
"w. c #C2C3CA",
"e. c #C2C3CB",
"r. c #C2C7C8",
"t. c #C1C3CC",
"y. c #C2C3CC",
"u. c #C1C4CF",
"i. c #C0C4CF",
"p. c #C0C7D0",
"a. c #C0C6D2",
"s. c #C0C8D3",
/* pixels */
"2.2.2.2.2.2.2.2.2.2.2.2.2.2.2.2.2.2.2.2.2.2.2.2.2.2.2.2.2.2.2.2.2.2.2.2.2.2.2.2.2.2.2.2.2.2.2.2.2.2.",
"2.2.2.2.2.2.2.2.2.2.2.2.2.2.2.2.2.2.2.2.2.2.2.2.2.2.2.2.2.2.2.2.2.2.2.2.2.2.2.2.2.2.2.2.2.2.2.2.2.2.",
"2.2.2.2.2.2.2.2.2.2.2.2.2.2.2.2.2.2.2.2.2.2.2.2.2.2.2.2.2.2.2.2.2.2.2.2.2.2.2.2.2.2.2.2.2.2.2.2.2.2.",
"2.2.2.2.2.2.2.2.2.2.2.2.2.2.2.2.2.2.2.2.2.2.2.2.2.2.2.2.2.2.2.2.2.2.2.2.2.2.2.2.2.2.2.2.2.2.2.2.2.2.",
"2.2.2.2.2.2.2.2.2.2.2.2.2.2.2.2.2.2.2.2.2.2.2.2.2.2.2.2.2.2.2.2.2.2.2.2.2.2.2.2.2.2.2.2.2.2.2.2.2.2.",
"2.2.2.2.2.2.2.2.2.2.2.2.2.2.2.2.2.2.2.2.2.2.2.2.2.2.2.2.2.2.2.2.2.2.2.2.2.2.2.2.2.2.2.2.2.2.2.2.2.2.",
"2.2.2.2.2.2.2.2.2.2.2.2.2.2.2.2.2.2.2.2.2.2.2.2.2.2.2.2.2.2.2.2.2.2.2.2.2.2.2.2.2.2.2.2.2.2.2.2.2.2.",
"2.2.2.2.2.2.2.2.2.2.2.2.2.2.2.2.2.2.2.2.2.2.2.2.2.2.2.2.2.2.2.2.2.2.2.2.2.2.2.2.2.2.2.2.2.2.2.2.2.2.",
"2.2.2.2.2.2.2.2.2.2.2.2.2.2.2.2.2.2.2.2.2.2.2.2.2.2.2.2.2.2.2.2.2.2.2.2.2.2.2.2.2.2.2.2.2.2.2.2.2.2.",
"2.2.2.2.2.2.2.2.2.2.2.2.2.;.2.2.2.2.2.2.2.2.2.2.2.2.2.2.2.2.2.2.2.2.2.2.2.2.2.2.2.2.2.2.2.2.2.2.2.2.",
"2.2.2.2.2.2.2.2.2.2.*...J t T *.2.2.2.2.2.2.2.2.2.2.2.2.2.2.2.2.2.2.2.2.2.2.2.2.2.2.2.2.2.2.2.2.2.2.",
"2.2.2.2.2.2.2.2.2.*.I 4 4 4 4 R 2.2.2.2.2.2.2.2.2.2.2.2.2.2.2.2.2.2.2.2.2.2.2.2.2.2.2.2.2.2.2.2.2.2.",
"2.2.2.2.2.2.2.2.2.[ $ 4 4 4 4 4 U *.2.2.2.2.2.2.2.2.2.2.2.2.2.2.2.2.2.2.2.2.2.2.2.2.2.2.2.2.2.2.2.2.",
"2.2.2.2.2.2.2.2.2.t.> 3 5 4 4 4 4 T 2.2.2.2.2.2.2.2.2.2.2.2.2.2.2.2.2.2.2.2.2.2.2.2.2.2.2.2.2.2.2.2.",
"2.2.2.2.2.2.2.2.2.O.r S E 5 4 4 4 5 T *.2.2.2.2.2.2.2.2.2.2.2.2.2.2.2.2.2.2.2.2.2.2.2.2.2.2.2.2.2.2.",
"2.2.2.2.2.2.2.2.0.t D Q 9 4 4 4 4 4 4 U 2.2.2.2.2.2.2.2.2.2.2.2.2.2.2.2.2.2.2.2.2.2.2.2.2.2.2.2.2.2.",
"2.2.2.2.2.2.2.9.e S Q 0 4 3 & 4 4 4 4 4 U *.2.2.2.2.2.2.2.2.2.2.2.2.2.2.2.2.2.2.2.2.2.2.2.2.2.2.2.2.",
"2.2.2.2.2.2.2.l D Q 9 4 3 X + $ 4 4 4 4 4 T *.2.2.2.2.2.2.2.2.2.2.2.2.2.2.2.2.2.2.2.2.2.2.2.2.2.2.2.",
"2.2.2.2.2.2.2.k z y 4 3 X B 5.: 3 5 4 4 4 5 I *.2.2.2.2.2.2.2.2.2.2.2.2.2.2.2.2.2.2.2.2.2.2.2.2.2.2.",
"2.2.2.2.2.2.2.t.> $ 3 X ` :.2.Z 5 P 9 4 4 4 4 U *.2.2.2.2.2.2.2.2.2.2.2.2.2.2.2.2.2.2.2.2.2.2.2.2.2.",
"2.2.2.2.2.2.2.2.q., X ^ 2.s.H 6 E L 5 4 4 4 4 4 I *.2.2.2.2.2.2.2.2.2.2.2.2.2.2.2.2.2.2.2.2.2.2.2.2.",
"2.2.2.2.2.2.2.2.2.t._ 2.s.A 6 W L 5 4 & 4 4 4 4 4 I *.2.2.2.2.2.2.2.2.2.2.2.2.2.2.2.2.2.2.2.2.2.2.2.",
"2.2.2.2.2.2.2.2.2.2.2.2.m 6 E L 5 4 # O $ 4 4 4 4 5 I *.X.Y C q p Z R O.2.2.2.2.2.2.2.2.2.2.2.2.2.2.",
"2.2.2.2.2.2.2.2.2.2.2.2.x 2 K 5 4 # k +.< $ 4 4 4 4 4 w 6 s D P P D u 6 H 7.2.2.2.2.2.2.2.2.2.2.2.2.",
"2.2.2.2.2.2.2.2.2.2.2.2.q., $ 4 $ j a.2.q.: $ 4 4 4 4 u E ~ E L L W ~ P 9 i 7.2.2.2.2.2.2.2.2.2.2.2.",
"2.2.2.2.2.2.2.2.2.2.2.2.2.t.g X h a.2.2.2.q.f $ 4 5 d ! D 5 4 4 4 4 9 P ! s q *.2.2.2.2.2.2.2.2.2.2.",
"2.2.2.2.2.2.2.2.2.2.2.2.2.2.q.b u.2.2.2.2.2.q.: * s ! d 5 4 4 4 4 4 4 5 K Q 9 R 2.2.2.2.2.2.2.2.2.2.",
"2.2.2.2.2.2.2.2.2.2.2.2.2.2.2.2.2.2.2.2.2.2.2. .6 Q D 4 4 5 H | } Z 5 4 5 E P 6 4.2.2.2.2.2.2.2.2.2.",
"2.2.2.2.2.2.2.2.2.2.2.2.2.2.2.2.2.2.2.2.2.2.2.H u Q 9 4 5 | 2.2.2.2.Y 4 4 y ~ 5  .2.2.2.2.2.2.2.2.2.",
"2.2.2.2.2.2.2.2.2.2.2.2.2.2.2.2.2.2.2.2.2.2.2.q D P 4 4 F 2.2.2.2.2.2.w 4 4 Q u I 2.2.2.2.2.2.2.2.2.",
"2.2.2.2.2.2.2.2.2.2.2.2.2.2.2.2.2.2.2.2.2.2.2.7 L D 4 4 { 2.2.2.2.2.2.F 4 4 E d G 2.2.2.2.2.2.2.2.2.",
"2.2.2.2.2.2.2.2.2.2.2.2.2.2.2.2.2.2.2.2.2.2.2.7 K D 4 4 R 2.2.2.2.2.2.Z 4 4 W d G 2.2.2.2.2.2.2.2.2.",
"2.2.2.2.2.2.2.2.2.2.2.2.2.2.2.2.2.2.2.2.2.2.2.- S E 4 4 a 2.2.2.2.2.a.5 4 5 ! y v 2.2.2.2.2.2.2.2.2.",
"2.2.2.2.2.2.2.2.2.2.2.2.2.2.2.2.2.2.2.2.2.2.2.1 0 Q y 4 4 I #.2.2.r.C 4 4 s Q 5 n 2.2.2.2.2.2.2.2.2.",
"2.2.2.2.2.2.2.2.2.2.2.2.2.2.2.2.2.2.2.2.2.2.2.c 3 E E 5 4 4 8 V F 5 4 4 6 Q D 3 ( 2.2.2.2.2.2.2.2.2.",
"2.2.2.2.2.2.2.2.2.2.2.2.2.2.2.2.2.2.2.2.2.2.2.' % y Q K 5 4 4 4 4 4 4 6 E W 5 = o.2.2.2.2.2.2.2.2.2.",
"2.2.2.2.2.2.2.2.2.2.2.2.2.2.2.2.2.2.2.2.2.2.2.:.h * y ! W u 5 4 4 5 d ! W 6 4 4 V *.2.2.2.2.2.2.2.2.",
"2.2.2.2.2.2.2.2.2.2.2.2.2.2.2.2.2.2.2.2.2.2.2.2.+.@ & 6 D ! ~ Q Q ~ Q S 5 4 4 4 3 ( 2.2.2.2.2.2.2.2.",
"2.2.2.2.2.2.2.2.2.2.2.2.2.2.2.2.2.2.2.2.2.2.2.2.2.] + # 3 5 0 u u 9 4 * $ 4 4 3 X ) 2.2.2.2.2.2.2.2.",
"2.2.2.2.2.2.2.2.2.2.2.2.2.2.2.2.2.2.2.2.2.2.2.2.2.2.[ f . o # $ $ # X O : # 3 X M *.2.2.2.2.2.2.2.2.",
"2.2.2.2.2.2.2.2.2.2.2.2.2.2.2.2.2.2.2.2.2.2.2.2.2.2.2.:.[ N f ; : k / 5.u.h   ^ *.2.2.2.2.2.2.2.2.2.",
"2.2.2.2.2.2.2.2.2.2.2.2.2.2.2.2.2.2.2.2.2.2.2.2.2.2.2.2.2.2.2.2.2.2.2.2.2.*.) 2.2.2.2.2.2.2.2.2.2.2.",
"2.2.2.2.2.2.2.2.2.2.2.2.2.2.2.2.2.2.2.2.2.2.2.2.2.2.2.2.2.2.2.2.2.2.2.2.2.2.2.2.2.2.2.2.2.2.2.2.2.2.",
"2.2.2.2.2.2.2.2.2.2.2.2.2.2.2.2.2.2.2.2.2.2.2.2.2.2.2.2.2.2.2.2.2.2.2.2.2.2.2.2.2.2.2.2.2.2.2.2.2.2.",
"2.2.2.2.2.2.2.2.2.2.2.2.2.2.2.2.2.2.2.2.2.2.2.2.2.2.2.2.2.2.2.2.2.2.2.2.2.2.2.2.2.2.2.2.2.2.2.2.2.2.",
"2.2.2.2.2.2.2.2.2.2.2.2.2.2.2.2.2.2.2.2.2.2.2.2.2.2.2.2.2.2.2.2.2.2.2.2.2.2.2.2.2.2.2.2.2.2.2.2.2.2.",
"2.2.2.2.2.2.2.2.2.2.2.2.2.2.2.2.2.2.2.2.2.2.2.2.2.2.2.2.2.2.2.2.2.2.2.2.2.2.2.2.2.2.2.2.2.2.2.2.2.2.",
"2.2.2.2.2.2.2.2.2.2.2.2.2.2.2.2.2.2.2.2.2.2.2.2.2.2.2.2.2.2.2.2.2.2.2.2.2.2.2.2.2.2.2.2.2.2.2.2.2.2.",
"2.2.2.2.2.2.2.2.2.2.2.2.2.2.2.2.2.2.2.2.2.2.2.2.2.2.2.2.2.2.2.2.2.2.2.2.2.2.2.2.2.2.2.2.2.2.2.2.2.2.",
"2.2.2.2.2.2.2.2.2.2.2.2.2.2.2.2.2.2.2.2.2.2.2.2.2.2.2.2.2.2.2.2.2.2.2.2.2.2.2.2.2.2.2.2.2.2.2.2.2.2."
};
