/* XPM */
static char *door_o1708546998[] = {
/* columns rows colors chars-per-pixel */
"50 50 213 2 ",
"   c #3E2E3D",
".  c #3A2B36",
"X  c #3E303F",
"o  c #422E3C",
"O  c #4D2D3C",
"+  c #592C3A",
"@  c #44323E",
"#  c #4A313E",
"$  c #58323E",
"%  c #6F2A36",
"&  c #7B2C3A",
"*  c #772837",
"=  c #64303D",
"-  c #6D353E",
";  c #613B3F",
":  c #76393E",
">  c #3F2E40",
",  c #3D3240",
"<  c #422E40",
"1  c #433542",
"2  c #4C3543",
"3  c #443B45",
"4  c #473B4A",
"5  c #4A3D4B",
"6  c #493A46",
"7  c #573B47",
"8  c #693744",
"9  c #6C3B44",
"0  c #6E3E48",
"q  c #7C3541",
"w  c #703D44",
"e  c #7D3A46",
"r  c #474048",
"t  c #4B444C",
"y  c #4C494E",
"u  c #57404D",
"i  c #4E4452",
"p  c #4E4B51",
"a  c #554453",
"s  c #514D55",
"d  c #5B4954",
"f  c #5A4E5D",
"g  c #564856",
"h  c #555258",
"j  c #5B515C",
"k  c #545157",
"l  c #68454C",
"z  c #724245",
"x  c #7B484C",
"c  c #654B59",
"v  c #66525F",
"b  c #7F535F",
"n  c #774A50",
"m  c #5C5463",
"M  c #5F5966",
"N  c #625663",
"B  c #6C5363",
"V  c #625B66",
"C  c #635C6A",
"Z  c #6D5B6A",
"A  c #6B5A66",
"S  c #755C6E",
"D  c #765667",
"F  c #765C70",
"G  c #785F72",
"H  c #65626D",
"J  c #6C636E",
"K  c #6B6473",
"L  c #696973",
"P  c #6F6978",
"I  c #676770",
"U  c #7D6273",
"Y  c #736E7B",
"T  c #756976",
"R  c #6F707B",
"E  c #73737E",
"W  c #78727B",
"Q  c #8F1B2F",
"!  c #961B2D",
"~  c #951E30",
"^  c #831E32",
"/  c #AB1529",
"(  c #AC1A2B",
")  c #A41529",
"_  c #9F232F",
"`  c #8B2430",
"'  c #842833",
"]  c #9B2432",
"[  c #972734",
"{  c #82353D",
"}  c #8A383C",
"|  c #8C3136",
" . c #993839",
".. c #87282E",
"X. c #B4232D",
"o. c #B9252F",
"O. c #B7292F",
"+. c #A32D35",
"@. c #AA2930",
"#. c #BB2731",
"$. c #BC2A31",
"%. c #B52C33",
"&. c #A73639",
"*. c #BE3132",
"=. c #B63A39",
"-. c #B5312F",
";. c #C43534",
":. c #C73B35",
">. c #CC3C36",
",. c #CE3F38",
"<. c #95403D",
"1. c #B4423D",
"2. c #BB423C",
"3. c #BA493E",
"4. c #AD413B",
"5. c #CD4237",
"6. c #CF4239",
"7. c #C5463D",
"8. c #D24439",
"9. c #D6493B",
"0. c #D74A3B",
"q. c #873848",
"w. c #973842",
"e. c #814349",
"r. c #934B4B",
"t. c #994246",
"y. c #9B5150",
"u. c #8D495C",
"i. c #AA4943",
"p. c #BB4744",
"a. c #A2514E",
"s. c #BE5651",
"d. c #8B586A",
"f. c #826475",
"g. c #856A7C",
"h. c #886B7D",
"j. c #916275",
"k. c #A06E7C",
"l. c #767382",
"z. c #7B7583",
"x. c #7A7B87",
"c. c #7D7D8A",
"v. c #8E6F83",
"b. c #906F85",
"n. c #8D7184",
"m. c #857988",
"M. c #917185",
"N. c #9A7486",
"B. c #94768A",
"V. c #9C7689",
"C. c #95798C",
"Z. c #997A8C",
"A. c #8C7F90",
"S. c #9C7E92",
"D. c #A17F94",
"F. c #A67E88",
"G. c #81838F",
"H. c #8C8D9C",
"J. c #888595",
"K. c #9F8194",
"L. c #938C9C",
"P. c #9B8999",
"I. c #8D909E",
"U. c #A18396",
"Y. c #AA8B95",
"T. c #A68599",
"R. c #AB8A9D",
"E. c #A88798",
"W. c #AB8B95",
"Q. c #8E90A0",
"!. c #9495A3",
"~. c #9B96A5",
"^. c #9C9AAA",
"/. c #9699A8",
"(. c #AE8CA2",
"). c #B18EA4",
"_. c #A295A5",
"`. c #A59BAC",
"'. c #AB9DAC",
"]. c #A894A8",
"[. c #B491A7",
"{. c #B695AA",
"}. c #A69FB0",
"|. c #BC9DB1",
" X c #9EA3B3",
".X c #AEA1AD",
"XX c #A2A4B4",
"oX c #ACA5B5",
"OX c #A4A9BA",
"+X c #ABACBC",
"@X c #A9A7B8",
"#X c #B2ACBD",
"$X c #B4A3B4",
"%X c #C09FB5",
"&X c #C4A9BB",
"*X c #AEAFC0",
"=X c #B9AEC0",
"-X c #AEB4C4",
";X c #AFB7C8",
":X c #B2B1C2",
">X c #B4BBCC",
",X c #BBB9CA",
"<X c #B7B7C8",
"1X c #B7BFD1",
"2X c #CBB9CA",
"3X c #C1BFD0",
"4X c #D3B8CB",
"5X c #BBC3D5",
"6X c #BDC6D8",
"7X c #BEC8DA",
"8X c #B7C0D1",
"9X c #C3C4D5",
"0X c #C3C7D9",
/* pixels */
"7X7X7X7X7X7X7X7X7X7X7X7X7X7X7X7X7X7X7X7X7X7X7X7X7X7X7X7X7X7X7X7X7X7X7X7X7X7X7X7X7X7X7X7X7X7X7X7X7X7X",
"7X7X7X7X7X7X7X7X7X7X7X7X7X7X7X7X7X7X7X7X7X7X7X7X7X7X7X7X7X7X7X7X7X7X7X7X7X7X7X7X7X7X7X7X7X7X7X7X7X7X",
"7X7X7X7X7X7X7X7X7X7X7X7X7X7X7X7X7X7X7X7X7X7X7X7X7X7X7X7X7X7X7X7X7X7X7X7X7X7X7X7X7X7X7X7X7X7X7X7X7X7X",
"7X7X7X7X7X7X7X7X7X7X7X7X7X7X7X7X7X7X7X7X7X7X7X7X7X7X7X7X7X7X7X7X7X7X7X7X7X7X7X7X7X7X7X7X7X7X7X7X7X7X",
"7X7X7X7X7X7X7X7X7X7X7X7X7X7X7X7X7X7X7X7X7X7X5X7X9X6X0X6X7X7X7X7X7X7X7X7X7X7X7X7X7X7X7X7X7X7X7X7X7X7X",
"7X7X7X7X7X7X7X7X7X7X7X7X7X7X7X7X7X7X7X7X7X6X,X2X&X2X2X3X9X7X7X7X7X7X7X7X7X7X7X7X7X7X7X7X7X7X7X7X7X7X",
"7X7X7X7X7X7X7X7X7X7X7X7X7X7X7X7X7X7X7X5X*XK.Z.D.(.|.).).|.2X9X7X7X7X7X7X7X7X7X7X7X7X7X7X7X7X7X7X7X7X",
"7X7X7X7X7X7X7X7X7X7X7X7X7X7X7X7X7X7X5X~.v.v.b.b.B.(.(.).[.|.4X9X7X7X7X7X7X7X7X7X7X7X7X7X7X7X7X7X7X7X",
"7X7X7X7X7X7X7X7X7X7X7X7X7X7X7X7X7X@XB.M.v.b.b.v.v.(.).(.(.(.[.%X2X1X6X7X7X7X7X7X7X7X7X7X7X7X7X7X7X7X",
"7X7X7X7X7X7X7X7X7X7X7X7X7X7X7X5XoXn.v.v.v.v.v.b.v.S.).).(.(.(.(.).$X,X7X7X7X7X7X7X7X7X7X7X7X7X7X7X7X",
"7X7X7X7X7X5X/./.6X7X7X7X7X7X5Xm.U n.f.v.b.b.v.g.c u g.E.(.(.(.(.D.B.U.<X7X7X7X7X7X7X-XQ.OX7X7X7X7X7X",
"7X7X7X7X0X;Xh 7 XX7X7X7X7X5XA.S S g.B.f.v.v.B 2 2 5 o 7 b.(.).D.b.v.b.S.,X7X7X7X7X7XA k G.7X7X7X7X7X",
"7X7X7X7X7X;Xh 8 q.1X7X7X7XL.F F S G B.f.v 2 o Y -X>X!.6 O B h.g.v.b.v.n.R.8X7X7X7X^.' s c.7X7X7X7X7X",
"7X7X7X7X6X;Xk 8 ! P.7X7X~.F S F J G g.A .   o < , , 1 1 o o . G v.b.b.v.M.).5X7X8Xe Q k c.7X7X7X7X7X",
"7X7X7X7X7X;Xk 8 / u.3X*XG F F S F F F 2 K Q., J. X X Xi K /.u 2 U v.v.v.n.B.$X7X].! Q s c.7X7X7X7X7X",
"7X7X7X7X7X;Xk 8 / ! +XP.F F F S S c # m.6X;Xr XX7X7X6Xm c.7X>Xd 2 f.b.v.v.M.(.0Xd./ Q s c.7X7X7X7X7X",
"7X7X7X7X7X;Xh 8 ( ( u.|.v.S F F N 2 Y 9X7X-X4  X7X7X7Xf c.7X7X1Xf 7 g.B.v.B.{.{.~ ) ~ s c.6X7X7X7X7X",
"7X7X7X7X7X;Xh 8 ( ( ~ [.&XS.B c 2 t 1X6X7X;X4  X7X7X7Xm c.7X7X7Xx.o 7 v.v.(.).j.) ( ~ s c.7X7X7X7X7X",
"7X7X7X7X7X;Xh 8 / ( ( N.).{.v.< < 4 f m m f 4 f M M M 5 s M M C k 4 o 7 Z.(.).q./ / ~ s c.7X7X7X7X7X",
"7X7X7X7X7X;Xh 8 w.q * d.).).G 4 l., A.H.Q.c., l.Q.H.H.5 M Q.Q.Q.C p c.  b.).E.% q e [ s c.7X7X7X7X7X",
"7X7X7X7X7X;Xh 8 c 1 1 7 [.D.7 !.OXi 1X6X6X-X5  X7X7X7Xf c.7X7X7Xx.C 7XK c T.v.  1 4 e s c.7X7X7X7X7X",
"7X7X7X7X6X;Xh 8 7 < < < D.c l.6XOXi 1X7X6X-X5  X7X7X7Xf c.7X7X7Xc.C 7X5Xd S S   , 3 * s c.7X7X7X7X7X",
"7X7X7X7X7X;Xf 8 +.` ` ` D 5 >X7XOX5 1X6X7X-X4  X7X7X7Xf c.6X7X7Xx.C 7X7XH.2 e ` ` ` [ s x.7X7X7X7X7X",
"7X7X7X7X7X;Xk 8 X.( o.X.8 a K P C 4 K P P K 4 C P l.P i m l.l.l.m k l.E Y 1 [ X.X.X.~ s x.7X7X7X7X7X",
"7X7X7X7X7X;Xk 9 o.( O.X.q m N M f > m C M M , m M H H 4 i H H I p i I I L M @.X.X.X.[ s x.7X7X7X7X7X",
"7X7X7X7X7X;Xk w #.X.#.X.w.5X7X7X;XM 6X7X7X1Xm ;X7X7X7XK Q.7X7X7XH.x.6X7X7X}.X.X.X.O.+.p x.7X7X7X7X7X",
"7X7X7X7X7X;Xs w o.X.#.O.&.<X7X7X1Xx.7X7X7X7Xl.7X7X7X7Xc. X7X7X7X X!.7X7X7XE.#.X.X.o.+.p x.7X7X7X7X7X",
"7X7X7X7X7X+Xs 9 $.o.$.O.%.<X7X7X7XOX7X7X7X7X X7X7X7X7XOX>X7X7X7X>X;X7X7X7Xk.$.X.o.O.+.s W 7X7X7X7X7X",
"7X7X7X7X7XXXy w $.o.$.O.%.:X7X7X7X7X7X7X7X7X7X7X7X7X7X7X7X7X7X7X7X7X7X7X0Xk.$.X.O.O.+.p T 5X5X7X7X7X",
"7X7X7X7X7X~.p w =.} q - 2 -X7X7X7X7X7X7X7X7X7X7X7X7X7X7X7X7X7X7X7X7X7X7X6Xz.$ - {  .+.p J 8X0X7X7X7X",
"7X7X7X7X6XP.s 9 n 4 2 < < :X7X7X7X7X7X7X7X7X7X7X7X7X7X7X7X7X7X7X7X7X6X6X7Xl.  1 6 t t.y H #X7X7X7X7X",
"7X7X0X#X_.J.s 9 7 6 < < + *X7X7X7X7X7X7X7X7X7X7X7X7X7X7X7X7X7X7X7X7X7X6X6Xm.+ # @ r : p J '..X>X7X7X",
"7X7X7XJ.S Z p 0  .| +.-.=.:X7X7X7X7X7X7X7X7X7X7X7X7X7X7X7X7X7X7X7X7X7X7X0XF.*.@.[ ' &.y m U g.oX7X7X",
"7X7X0Xg.S S p z q.{ -.*.=.:X7X7X7X7X7X7X7X7X7X7X7X7X7X7X7X7X7X7X7X7X7X7X9XK.;.*.&.;  .y j S G XX7X7X",
"7X7X7Xg.S Z y l 6 P { *.2.:X7X7X7X7X7X7X7X7X7X7X7X7X7X7X7X7X7X7X7X7X7X7X7XW.;.=.n J 7 p j S S ~.7X7X",
"7X6X6Xm.F Z p l a # - *.p.<X7X7X7X7X7X7X7X7X7X7X7X7X7X7X7X7X7X7X7X7X7X7X9XY.:.&.# 4 l s j S S `.7X7X",
"7X7X7X-XJ.W y z 0 ..e ;.p.<X5X6X7X7X7X7X7X7X7X7X7X7X7X7X7X7X7X7X7X7X7X7X7XY.>.&.| % e.y V m.~.6X7X7X",
"7X7X7X7X0X@Xp z { : { :.p.<X7X6X7X7X7X7X7X7X7X7X7X7X7X7X7X7X7X7X7X7X7X7X7XY.,.=.: -  .y W 6X7X6X7X7X",
"7X7X7X7X7XXXy z :.&.>.:.p.<X7X7X7X7X7X7X7X7X7X7X7X7X7X7X7X7X7X7X7X7X7X7X7XW.6.:.=.-.&.y W 6X7X7X7X7X",
"7X7X7X7X7XXXy z >.>.,.:.p.>X7X7X7X7X7X7X7X7X7X7X7X7X7X7X7X7X7X7X7X7X7X7X7XW.6.>.,.8.=.y T 6X7X7X7X7X",
"7X7X6X9X9XoXp z ,.,.5.:.p.>X0X7X7X7X7X7X7X7X7X7X7X7X7X7X7X7X7X7X7X7X7X7X7XR.5.:.>.,.=.y R ,X,X6X7X7X",
"7X7X7X$X(.U.p z 8.5.8.7.r.>X7X7X7X7X7X7X7X7X7X7X7X7X7X7X7X7X7X7X7X7X7X7X7X_.1.5.,.5.4.y A Z.U.#X7X7X",
"7X7X7X[.(.U.p z 8.p.x @ 5 >X7X7X7X7X7X7X7X7X7X7X7X7X7X7X7X7X7X7X7X7X7X7X7X/.X 7 t.7.2.t v v.h.'.7X7X",
"7X7X0XR.R.U.p z y.6 1   5 1X7X7X7X7X7X7X7X7X7X7X7X7X7X7X7X7X7X7X7X7X7X7X7X/.. @ 3 d i.t N v.b._.7X7X",
"7X6X5X.XY.K.y z d r @ = y.1X0X7X7X7X7X7X7X7X7X6X7X7X7X7X7X7X7X7X7X7X7X7X7X.X<.# @ r x t N M.h.#X5X9X",
"#XT.E.Z.C.C.y z : : 4.6.s.1X7X7X7X7X7X7X7X7X7X9X7X7X7X7X6X6X7X7X7X7X7X7X7X.X8.1.<.; <.y A B.Z.K.K._.",
"_.M.n.M.h.h.y z 0.8.0.6.a.#X:X:X:X=X#X:X<X,X,X,X,X<X,X,X<X,X+X#X:X=X:X#X#XP.7.5.0.7.1.t v v.n.M.M.C.",
"`.v.v.v.h.g.y z 0.5.2.e.f.N.V.V.V.V.V.E.(.[.).).).[.).[.).[.K.N.V.V.V.Z.C.k.b <.7.0.3.t v v.v.n.h.C.",
"}.B.B.B.B.n.t 9 i.n Z g.g.g.h.h.h.n.n.P.K.K.K.Z.K.Z.K.K.K.K.U.Z.Z.Z.Z.C.V.Z.Z.n.D r.4.t j h.h.m.h.h.",
"<X-X-X*X:XXXL J !.OX+X+X+X@X+X@X+X+X+X-X#X-X:X-X-X+X+X+X-X:X:X:X:X:X-X:X+X:X+X#X-X+XG.H G.+X+X+X+X+X"
};
