/* XPM */
static char *door_c1708546999[] = {
/* columns rows colors chars-per-pixel */
"50 50 214 2 ",
"   c #2E1B2E",
".  c #321C2E",
"X  c #3E1D2E",
"o  c #3B1F30",
"O  c #321E31",
"+  c #342233",
"@  c #3C2433",
"#  c #3C2936",
"$  c #3E2C3B",
"%  c #3C313E",
"&  c #750D1C",
"*  c #7C0D1E",
"=  c #6C121A",
"-  c #43192B",
";  c #4D1928",
":  c #5D1625",
">  c #571A2A",
",  c #7D0D21",
"<  c #671D2B",
"1  c #791929",
"2  c #6E1F31",
"3  c #680F24",
"4  c #422434",
"5  c #432D3B",
"6  c #4C2837",
"7  c #5E2935",
"8  c #522A3A",
"9  c #5C2D3A",
"0  c #5E2631",
"q  c #44313E",
"w  c #49323F",
"e  c #58323C",
"r  c #692B37",
"t  c #782634",
"y  c #61343D",
"u  c #67393F",
"i  c #762F37",
"p  c #3F3040",
"a  c #423342",
"s  c #4C3442",
"d  c #443C45",
"f  c #4C3B44",
"g  c #4B3B49",
"h  c #553542",
"j  c #543A44",
"k  c #5A3B47",
"l  c #543C4A",
"z  c #5B3F4A",
"x  c #673C46",
"c  c #783D45",
"v  c #464148",
"b  c #4D434A",
"n  c #464147",
"m  c #5C434B",
"M  c #56414E",
"N  c #5C4251",
"B  c #5A4F5C",
"V  c #754248",
"C  c #634C5A",
"Z  c #604655",
"A  c #68505F",
"S  c #63454D",
"D  c #5E5361",
"F  c #6B5362",
"G  c #6E5868",
"H  c #715565",
"J  c #755C6E",
"K  c #7B5D6E",
"L  c #725768",
"P  c #755C70",
"I  c #785F71",
"U  c #6C4F62",
"Y  c #7C6274",
"T  c #7F6C7B",
"R  c #6C6270",
"E  c #820D1F",
"W  c #810E21",
"Q  c #8A0D23",
"!  c #8B1423",
"~  c #8E1925",
"^  c #851725",
"/  c #9D1921",
"(  c #971A29",
")  c #911D30",
"_  c #A31527",
"`  c #A11B23",
"'  c #AB1529",
"]  c #A51D29",
"[  c #AC1B2A",
"{  c #B01F2B",
"}  c #962329",
"|  c #9B252A",
" . c #9C2B2D",
".. c #842532",
"X. c #8A2B34",
"o. c #952A38",
"O. c #853B3E",
"+. c #89353C",
"@. c #9A3539",
"#. c #92363A",
"$. c #842C2E",
"%. c #A52329",
"&. c #AC212B",
"*. c #AC2A2A",
"=. c #A2282A",
"-. c #B5232D",
";. c #B9242F",
":. c #B52A2D",
">. c #BA2C2E",
",. c #BD342E",
"<. c #A42332",
"1. c #A82532",
"2. c #BB2630",
"3. c #BC2A31",
"4. c #B52E30",
"5. c #AC3331",
"6. c #AA3636",
"7. c #BE3231",
"8. c #BC3B35",
"9. c #B63A37",
"0. c #C12D32",
"q. c #C43434",
"w. c #C43A34",
"e. c #CB3C36",
"r. c #C43B39",
"t. c #CE3E38",
"y. c #C93736",
"u. c #D03E38",
"i. c #90413F",
"p. c #BB413A",
"a. c #C74236",
"s. c #CC4136",
"d. c #C4463B",
"f. c #CD4339",
"g. c #C6483C",
"h. c #CB493D",
"j. c #D34339",
"k. c #D3493B",
"l. c #DA4D3C",
"z. c #813D41",
"x. c #973542",
"c. c #932F40",
"v. c #834243",
"b. c #8A4444",
"n. c #894749",
"m. c #924544",
"M. c #9E4343",
"N. c #934949",
"B. c #B54A44",
"V. c #826476",
"C. c #836779",
"Z. c #85697B",
"A. c #8B6B7E",
"S. c #88707F",
"D. c #D05042",
"F. c #8F6F84",
"G. c #906F84",
"H. c #8E7184",
"J. c #857788",
"K. c #917286",
"L. c #957589",
"P. c #957A8C",
"I. c #997A8E",
"U. c #9D7D92",
"Y. c #967D91",
"T. c #A07F94",
"R. c #948495",
"E. c #9D8A9B",
"W. c #998698",
"Q. c #8D8192",
"!. c #A28195",
"~. c #A6869A",
"^. c #A9869A",
"/. c #AB899E",
"(. c #A78C9E",
"). c #9F8FA0",
"_. c #9893A3",
"`. c #AF8CA2",
"'. c #A68EA1",
"]. c #B18DA3",
"[. c #A79BAD",
"{. c #AC9AAD",
"}. c #A392A4",
"|. c #B291A6",
" X c #B693A9",
".X c #BA98AD",
"XX c #B698AC",
"oX c #AF9FB0",
"OX c #BC9DB1",
"+X c #B29FB1",
"@X c #A3A3B4",
"#X c #AAA5B6",
"$X c #ABA9BA",
"%X c #A8A7B8",
"&X c #B3A6B9",
"*X c #B2AABB",
"=X c #B9A4B7",
"-X c #C4A6B9",
";X c #C6ABBE",
":X c #AEAFC0",
">X c #B6BACB",
",X c #BBBCCD",
"<X c #B7B4C5",
"1X c #BBBED0",
"2X c #B3B1C3",
"3X c #C9B7C8",
"4X c #D1BACC",
"5X c #C0BFD0",
"6X c #C0AFC2",
"7X c #BCC3D5",
"8X c #BEC7D8",
"9X c #BEC8DA",
"0X c #C3C4D5",
"qX c #C2C6D8",
/* pixels */
"9X9X9X9X9X9X9X9X9X9X9X9X9X9X9X9X9X9X9X9X9X9X9X9X9X9X9X9X9X9X9X9X9X9X9X9X9X9X9X9X9X9X9X9X9X9X9X9X9X9X",
"9X9X9X9X9X9X9X9X9X9X9X9X9X9X9X9X9X9X9X9X9X9X9X9X9X9X9X9X9X9X9X9X9X9X9X9X9X9X9X9X9X9X9X9X9X9X9X9X9X9X",
"9X9X9X9X9X9X9X9X9X9X9X9X9X9X9X9X9X9X9X9X9X9X9X9X9X9X9X9X9X9X9X9X9X9X9X9X9X9X9X9X9X9X9X9X9X9X9X9X9X9X",
"9X9X9X9X9X9X9X9X9X9X9X9X9X9X9X9X9X9X9X9X9X9X9X9X9X9X9X9X9X9X9X9X9X9X9X9X9X9X9X9X9X9X9X9X9X9X9X9X9X9X",
"9X9X9X9X9X9X9X9X9X9X9X9X9X9X9X9X9X9X9X9X9X9XqX9X9X8XqXqX9X9X9X9X9X9X9X9X9X9X9X9X9X9X9X9X9X9X9X9X9X9X",
"9X9X9X9X9X9X9X9X9X9X9X9X9X9X9X9X9X9X9X9X9X8X5X6X6X4X4X5X8X9X9X9X9X9X9X9X9X9X9X9X9X9X9X9X9X9X9X9X9X9X",
"9X9X9X9X9X9X9X9X9X9X9X9X9X9X9X9X9X9X9X7X:XE.U.~. XOX]. X-X0X9X9X9X9X9X9X9X9X9X9X9X9X9X9X9X9X9X9X9X9X",
"9X9X9X9X9X9X9X9X9X9X9X9X9X9X9X8X9X9X8X).F.F.F.F.P.].].].].6X4XqX9X9X9X9X9X9X9X9X9X9X9X9X9X9X9X9X9X9X",
"9X9X9X9X9X9X9X9X9X9X9X9X9X9X9X8X9X@XP.G.G.G.G.G.L.`.]./.]./..X-X,X7XqX9X9X9X9X9X9X9X9X9X9X9X9X9X9X9X",
"9X9X9X9X9X9X9X9X9X9X9X9X9X9X9X8X$XF.G.G.G.G.G.G.K.!.].].].].`.].|.*X7X9X9X9X9X9X9X9X9X9X9X9X9X9X9X9X",
"9X9X9X9X9X9X9X9X9X9X9X9X9X9X7XJ.Y L.I G.G.G.G.C.U C K./.`.].`./.T.U.'.1X9X9X9X9X9X9X9X9X9X9X9X9X9X9X",
"9X9X9X9X9X9X9X9X9X9X9X9X9X8XJ.P P F.F.C.G.F.L a # # 5 F I.].].T.G.F.K.'.1X9X9X9X9X9X9X9X9X9X9X9X9X9X",
"9X9X9X9X9X9X9X9X9X9X9X9X8XR.J J P Y Y.I H s 5 X : : - # s V.K.A.G.F.F.K.{.7X9X9X9X9X9X9X9X9X9X9X9X9X",
"9X9X9X9X9X9X9X9X9X9X9X9XE.J P J P P F.C $ 4 ; , & & * ; o 5 q C.G.G.F.G.L.=X8X8X9X9X9X9X9X9X9X9X9X9X",
"9X9X9X9X9X9X9X9X9X9X9X%XR P P J J J J s 4 1 Q W * & W & 3 o # N C.G.F.F.H.U.<XqX9X9X9X9X9X9X9X9X9X9X",
"9X9X9X9X9X9X9X9X9X9X9XQ.P P P P J C s 6 ^ ' ' _ Q & * * * = - 4 l F.G.F.F.G.#XqX9X9X9X9X9X9X9X9X9X9X",
"9X9X9X9X9X9X9X9X9X7XOX XI L P P U s 6 ( %.' ' ' [ ! W W W = , - # Z H.G.F.I..X-XqXqX9X9X9X9X9X9X9X9X",
"9X9X9X9X9X9X9X9X9X&X`..X-XZ.G C w 8 _ ' &.' ' ' ' ' ' Q W & , , - # A G.K.`.`.].3XqX9X9X9X9X9X9X9X9X",
"9X9X9X9X9X9X9X9X1X|.`.]. X.XG s s ) ' [ [ ' [ ' [ _ [ ' ( & ^ ^ , o q B !.].].`.-XqX9X9X9X9X9X9X9X9X",
"9X9X9X9X9X9X9X9X+X].`.`.]. XU @ 9 o.c.c.c.x.<.[ [ ] ' { o.t 2 < 2 > . q !.].`.`..X4X9X9X9X9X9X9X9X9X",
"9X9X9X9X9X9X9X1X].`.`.`.`.L.s a p a a a d d x <.[ [ { x g d p + O O   # L /.`.`.]..XqXqXqX9X9X9X9X9X",
"9X9X9X9X9X9X9X&X`.`.`.`.`.z a o $ $ a a d v h <.&.[ [ x v d p $ + O     q K.].`.].].=XqX9X9X9X9X9X9X",
"9X9X9X9X9X9X7X`.`.`.`.`.I s t ..1 ......t X.<.-.{ [ -.[ ..t ....1 < : : 4 m ^.`.].`.].7X9X9X9X9X9X9X",
"9X9X9X9X9X9X7X'.^.].].U.s r -.2._ -.-.-.[ -.-.-.{ 1.-.-.2./ -.:.-.| E ! < # V.].`.`.|.,X9X9X9X9X9X9X",
"9X9X9X9X9X9X[.`. X^.!.H 5 | 2.-.` ;.;.-.[ -.-.2.-.[ -.;.;.` ;.;.-.4.! ! 1 o N !.^.T.U.{.9X9X9X9X9X9X",
"9X9X9X9X9X7XY.F.U./.P.q r :.2.2.` ;.2.2.[ 2.2.2.-.&.0.;.0.` -.;.-.:.] ~ ! < # C F.G.K.~.7X9X9X9X9X9X",
"9X9X9X9XqX>XF.F.F.K.P.5 1.2.2.2.` 2.2.3.&.:.3.3.-.&.;.;.;./ ;.-.:.:.&.%.~ ^ @ M F.F.H.U.<X9X9X9X9X9X",
"9X9X9X9X9X$XF.F.G.K.J 8 2.3.3.0.%.0.3.3.&.2.3.3.>.-.3.0.0./ 2.0.2.&.-.2.( ~ > d C.F.H.K.&X9X9X9X9X9X",
"9X9X9X9X9X[.F.F.F.F.N 9 3.3.3.q.%.3.0.3.&.3.3.3.:.-.0.0.0./ 2.0.2.%.:.3.} ~ > w V.G.F.G.'.qX9X9X9X9X",
"9X9X9X9X9X).F.F.F.F.l 5 8 h h h j k z m m S v.3.>.-.q.x.S m m z k j h h 4 4 + 5 J F.F.F.R.qX9X9X9X9X",
"9X9X9X9X9XR.F.F.F.Z.s 5 $ p a p p q a d n n b @.:.-.9.b n n d s a q % a +   . 5 H A.F.G.R.7X9X9X9X9X",
"9X9X9X2X[.W.H.L.L.Z.5 5 7 7 7 9 9 y 9 x e u +.q.>.:.q.@.u e y e y 9 9 7 ; - + # L C.K.K.E.oX$X7X9X9X",
"9X9X9XH.P P I Y I F.l e 7.q.q.q.*.q.*.q.>.q.y.q.3.>.q.y.7.%.q.q.7.:.3.q.} } > q H J Y Z.Z.T H.>X9X9X",
"9X9X9XY J P P J J P l e r.y.q.q.:.y.*.q.:.@.k x 6.6.c l $.%.q.q.q.>.7.q.| } 6 5 G J J P P P Y <X9X9X",
"9X9X8XY J P P P J P l w r.y.q.y.:.y.,.y.,.y D B z.#.g R h %.y.y.q.7.q.q.| | 6 q H J J J P P J :X9X9X",
"9X9X9XY P J J P P J s a r.e.y.y.>.y.y.e.5.j q f z.#.g s h X.e.e.e.a.q.w.| } 4 $ F J J J P P R :X9X9X",
"9X9X9X@XJ.T I I J G $ q r.e.t.y.,.e.e.e.6.n.6.M.v.x.N.9.M.X.e.e.t.h.w.e.| | 4 # U Y C.C.Z.J._.9X9X9X",
"9X9X9X9X9X$XG.L.L.P.g q r.t.t.t.3.u.e.t.q.z.V c 6.9.c V c 5.t.t.u.f.w.e.=.| 4 q ~. X X|.<XqX9X9X9X9X",
"9X9X9X9X9X[.H.F.K.G.l s 8.t.u.t.,.u.j.t.r.f.8.w.s.e.d.7.e.7.t.t.s.s.w.t. . .@ w !.`.`.`.=X9X9X9X9X9X",
"9X9X9X9X9X@XF.F.G.F.l s p.t.j.t.,.j.j.u.a.t.j.s.a.e.j.j.u.q.j.j.t.e.e.e.5. .4 w !.`.`.`.=X9X9X9X9X9X",
"9X8X8X8X0X&XL.L.K.A.q q p.k.u.j.q.k.j.j.s.j.k.j.s.e.j.f.j.,.j.j.j.w.t.a.=. .@ # H.~.^.~.+X,X7XqX9X9X",
"9X8X8XOX]. X.X.X.XOXJ q u O.z.i.V v.b.b.n.n.B.k.j.f.k.D.N.v.n.n.b.V O.O.r 0 # b W.I.L.I.U.U.!.,X9X9X",
"9X9X7X`.`.`.`.`.].|.V.w $ 5 a $ q a d n n n b p.k.s.h.M v v d d q q q $ O   # j G.G.G.F.F.F.H.*X9X9X",
"9X9X1X`.`.`.`.`.]./.J w a 5 5 5 w w w w f b V d.k.f.h.i.b f f s w w 5 5 . . # w A.G.G.F.F.F.F.#X9X9X",
"9X8X8X'.~.~.!.~.~.~.l 5 #.d.d.g.5.f.d.g.p.g.l.l.f.f.l.l.h.5.h.g.p.p.8.p. .i @ % V.S.A.C.C.A.H.>X9X9X",
"*X(.~.!.P.~.P.A.P.I.K w M.l.l.l.w.l.l.l.a.l.l.l.a.k.l.l.l.,.l.l.l.a.s.k.5.X.# j Y C.C.F.U.L.U.W.!.XX",
").F.F.F.F.L.C.J J J A w c m.m.m.O.m.m.i.i.b.m.N.i.i.m.m.m.O.m.m.b.i.i.i.t 0 $ s J Y J P F.G.F.G.K.W.",
").K.F.F.F.F.Y J J J C K A.A.A.A.A.A.A.I.W.!.!.!.W.!.W.!.T.T.Z.A.A.A.A.A.V.V.U l L J J J A.F.F.F.S.R.",
"}.F.F.L.L.H.F.T J J Y V.C.C.C.Z.A.A.H.W.U.U.I.U.U.I.U.U.U.U.!.I.L.L.L.L.L.L.L.L.S.S.K.Y Z.S.A.Z.Z.Q.",
":X$X%X$X$X$X%X@X@X@X@X@X@X@X@X@X@X@X@X$X$X$X$X$X#X@X#X$X$X$X$X$X%X%X%X$X#X#X#X$X$X$X$X@X@X@X@X@X@X@X"
};
