/* XPM */
static char *player_l1708544671[] = {
/* columns rows colors chars-per-pixel */
"50 50 191 2 ",
"   c #010101",
".  c #0B0403",
"X  c #0B0805",
"o  c #0C0B0B",
"O  c #120504",
"+  c #140F0C",
"@  c #190D0C",
"#  c #180706",
"$  c #14110E",
"%  c #1A100C",
"&  c #0F1111",
"*  c #141212",
"=  c #191613",
"-  c #1B1C1D",
";  c #1D1915",
":  c #2D0C0A",
">  c #230907",
",  c #390F0C",
"<  c #370C0B",
"1  c #3B100E",
"2  c #211C19",
"3  c #271B15",
"4  c #341412",
"5  c #27211F",
"6  c #28221F",
"7  c #2A2117",
"8  c #332A1F",
"9  c #3B251B",
"0  c #322709",
"q  c #232526",
"w  c #2B2521",
"e  c #2C2824",
"r  c #26292B",
"t  c #2B2B2C",
"y  c #302721",
"u  c #342B24",
"i  c #3C2D22",
"p  c #3F2626",
"a  c #3E3124",
"s  c #37312A",
"d  c #3C342C",
"f  c #2E2F31",
"g  c #333233",
"h  c #3A3B3D",
"j  c #383537",
"k  c #580C0C",
"l  c #44110F",
"z  c #451311",
"x  c #4D1411",
"c  c #531714",
"v  c #581714",
"b  c #5D1916",
"n  c #541A16",
"m  c #501D08",
"M  c #601A16",
"N  c #6E1D1A",
"B  c #631D1A",
"V  c #751E1A",
"C  c #7A1E1A",
"Z  c #46341F",
"A  c #4F290D",
"S  c #7B201C",
"D  c #652713",
"F  c #423425",
"G  c #4A3A29",
"H  c #523E29",
"J  c #443C33",
"K  c #513536",
"L  c #592422",
"P  c #6E312C",
"I  c #7D2E28",
"U  c #7C4A0B",
"Y  c #574027",
"T  c #55412C",
"R  c #5A442A",
"E  c #494136",
"W  c #4A4239",
"Q  c #57453B",
"!  c #63492C",
"~  c #60472B",
"^  c #764736",
"/  c #3B3E41",
"(  c #3E4246",
")  c #554D41",
"_  c #5A4B47",
"`  c #5B544B",
"'  c #484D52",
"]  c #4E5258",
"[  c #56585A",
"{  c #464549",
"}  c #63584B",
"|  c #695F50",
" . c #6E6251",
".. c #786956",
"X. c #645D62",
"o. c #61656A",
"O. c #686E76",
"+. c #666C74",
"@. c #6B7179",
"#. c #8F1A0D",
"$. c #9A0E0E",
"%. c #BF1111",
"&. c #84211C",
"*. c #8C231D",
"=. c #96251F",
"-. c #8F2F28",
";. c #932823",
":. c #A5322C",
">. c #CD1313",
",. c #D51515",
"<. c #D52B13",
"1. c #D33D13",
"2. c #816617",
"3. c #A8770F",
"4. c #A9453B",
"5. c #D34C13",
"6. c #D55913",
"7. c #D56313",
"8. c #D56C14",
"9. c #D46C1A",
"0. c #D57413",
"q. c #D04231",
"w. c #CE6A22",
"e. c #D1702A",
"r. c #CE793D",
"t. c #D26C22",
"y. c #CD3E41",
"u. c #8F5C59",
"i. c #8E795D",
"p. c #927C5F",
"a. c #916657",
"s. c #A66D5D",
"d. c #B06F5F",
"f. c #8D7E6A",
"g. c #827462",
"h. c #AD504B",
"j. c #CD7B41",
"k. c #C95C62",
"l. c #C96867",
"z. c #C1736F",
"x. c #D5A513",
"c. c #CEA427",
"v. c #D1A525",
"b. c #C8A237",
"n. c #D58C13",
"m. c #97846C",
"M. c #9D8B72",
"N. c #958774",
"B. c #A38A6A",
"V. c #A28E76",
"C. c #A99479",
"Z. c #B4967F",
"A. c #CC824F",
"S. c #C2A252",
"D. c #C8A64C",
"F. c #C88B6F",
"G. c #767D86",
"H. c #787F88",
"J. c #7A818C",
"K. c #858D98",
"L. c #888F9B",
"P. c #818993",
"I. c #9E929E",
"U. c #AE858F",
"Y. c #AE9A83",
"T. c #B49E85",
"R. c #B89E87",
"E. c #B6A38A",
"W. c #B9A68D",
"Q. c #B7A387",
"!. c #979FAC",
"~. c #929BA7",
"^. c #9AA1AE",
"/. c #A3ACBB",
"(. c #A0A9B7",
"). c #A7B1BF",
"_. c gray71",
"`. c #C2B19C",
"'. c #C298A4",
"]. c #C1A2AD",
"[. c #C1B1AD",
"{. c #C0AAB8",
"}. c #CF8E8A",
"|. c #A9B3C2",
" X c #B2BCCC",
".X c #BEBDCE",
"XX c #B7C1D1",
"oX c #BAC4D4",
"OX c #BEC8DA",
"+X c #F2E0DF",
"@X c #F8F6F3",
/* pixels */
"OXOXOXOXOXOXOXOXOXOXOXOXOXOXOXOXOXOXOXOXOXOXOXOXOXOXOXOXOXOXOXOXOXOXOXOXOXOXOXOXOXOXOXOXOXOXOXOXOXOX",
"OXOXOXOXOXOXOXOXOXOXOXOXOXOXOXOXOXOXOXOXH.t t r r r r r ~.OXOXOXOXOXOXOXOXOXOXOXOXOXOXOXOXOXOXOXOXOX",
"OXOXOXOXOXOXOXOXOXOXOXOXOXOXOXOXOXOXOXG._ , < < , < , < X.G.G.|.OXOXOXOXOXOXOXOXOXOXOXOXOXOXOXOXOXOX",
"OXOXOXOXOXOXOXOXOXOXOXOXOXOXOXOXOXOXXX  z =.=.=.;.=.;.=.:     K.OXOXOXOXOXOXOXOXOXOXOXOXOXOXOXOXOXOX",
"OXOXOXOXOXOXOXOXOXOXOXOXOXOXOXOXOXo.t C &.=.=.=.=.=.=.=.&.C V F / oXOXOXOXOXOXOXOXOXOXOXOXOXOXOXOXOX",
"OXOXOXOXOXOXOXOXOXOXOXOXOXOXOXOXOX'   =.=.=.=.=.=.=.=.=.=.=.=.: - oXOXOXOXOXOXOXOXOXOXOXOXOXOXOXOXOX",
"OXOXOXOXOXOXOXOXOXOXOXOXOXOXOXOXOX'   ;.=.=.=.=.=.=.=.=.=.=.=.: - OXOXOXOXOXOXOXOXOXOXOXOXOXOXOXOXOX",
"OXOXOXOXOXOXOXOXOXOXOXOXOXOXOX(.f L V > > : *.=.=.=.=.=.=.=.=.C N f H.OXOXOXOXOXOXOXOXOXOXOXOXOXOXOX",
"OXOXOXOXOXOXOXOXOXOXOXOXOXOXOX!.  z V 2 3 3 V C C =.=.=.=.=.=.=.&.  +.OXOXOXOXOXOXOXOXOXOXOXOXOXOXOX",
"OXOXOXOXOXOXOXOXOXOXOXOXOXOXOX!.    . B.B.p.$     &.*.;.=.=.=.=.&.  +.OXOXOXOXOXOXOXOXOXOXOXOXOXOXOX",
"OXOXOXOXOXOXOXOXOXOXOXOXOXOXOX!.    . ^ ^ ^  .K < , x ;.&.;.&.=.*.M K ]  XOXOXOXOXOXOXOXOXOXOXOXOXOX",
"OXOXOXOXOXOXOXOXOXOXOXOXOXOXOX!.      B B P Z.a.M @ : S V C C *.;.;.z o |.OXOXOXOXOXOXOXOXOXOXOXOXOX",
"OXOXOXOXOXOXOXOXOXOXOXOXOXOXOX^.      :.}.@X`.d.:.+X_.  v C S S S S 1 o |.OXOXOXOXOXOXOXOXOXOXOXOXOX",
"OXOXOXOXOXOXOXOXOXOXOXOXOXOXOX!.    . =.h.}.R.s.;.z.u.  v C S S S S 1 o |.OXOXOXOXOXOXOXOXOXOXOXOXOX",
"OXOXOXOXOXOXOXOXOXOXOXOXOXOXOX!.    . C ;.4.Y.s.-.:.I * n V S S S S l $ ^. XOXOXOXOXOXOXOXOXOXOXOXOX",
"OXOXOXOXOXOXOXOXOXOXOXOXOXOXOX!.  < c . ) R.V.C.R.E.R.Y.s # b b B S V V $ [ OXOXOXOXOXOXOXOXOXOXOXOX",
"OXOXOXOXOXOXOXOXOXOXOXOXOXOXOX!.  , b   ) W.C.Q.W.W.W.W.s O b b M N V V . ' OXOXOXOXOXOXOXOXOXOXOXOX",
"OXOXOXOXOXOXOXOXOXOXOXOXOXOXOX!.  , v   ) E.W.W.W.W.E.Q.s O b b M b V V . ' OXOXOXOXOXOXOXOXOXOXOXOX",
"OXOXOXOXOXOXOXOXOXOXOXOXOXOXOX!.  1 b c 4 w C.W.W.W.f.; X O b b b b b b . ' OXOXOXOXOXOXOXOXOXOXOXOX",
"OXOXOXOXOXOXOXOXOXOXOXOXOXOXOX!.  , b b z 4 } |  .| ` J $ O b b b b b n . ' OXOXOXOXOXOXOXOXOXOXOXOX",
"OXOXOXOXOXOXOXOXOXOXOXOXOXOXOX!.  , b b b v .       8 B.u O b b b b b b X ] OXOXOXOXOXOXOXOXOXOXOXOX",
"OXOXOXOXOXOXOXOXOXOXOXOXOXOXOXoX).{ . b 1 @ ..i.i.i.m.E.` t . z b b < + ~. XOXOXOXOXOXOXOXOXOXOXOXOX",
"OXOXOXOXOXOXOXOXOXOXOXOX.X'..XOXOX@.h z 9 J m.C.C.C.V.N.] g * 4 l b : X U.{.OXOXOXOXOXOXOXOXOXOXOXOX",
"OXOXOXOXOXOXOXOXOXOXOXOX].,.'.oXOXOXXX  ) E.W.W.W.Q.N.h h h h * X v : O >.k.OXOXOXOXOXOXOXOXOXOXOXOX",
"OXOXOXOXOXOXOXOXOXOXOXOX_.,.y.l.OXOXXX  w } Y.W.W.} J t - - h f e # k $.,.k.OXOXOXOXOXOXOXOXOXOXOXOX",
"OXOXOXOXOXOXOXOXOXOXOXOX].<.<.q.'.I.P.o * g ..m.m.u 6 5 $ $ t j j < #.<.<.l.OXOXOXOXOXOXOXOXOXOXOXOX",
"OXOXOXOXOXOXOXOXOXOXOXOX[.7.7.6.,.k . w w 5 w w w 6 5 5 6 2   t K >.1.6.7.F.oXOXOXOXOXOXOXOXOXOXOXOX",
"OXOXOXOXOXOXOXOXOXOXOXF.r.7.7.6.5.m   5 5 5 6 6 5 5 w 5 6 -   - 9 5.6.7.7.e.A..XOXOXOXOXOXOXOXOXOXOX",
"OXOXOXOXOXOXOXOXOXOXOXr.8.9.9.9.w.A   5 6 5 w w w w w 6 6 2   ; F w.9.8.8.8.8.oXOXOXOXOXOXOXOXOXOXOX",
"OXOXOXOXOXOXOXOXOXOXOXr.0.x.x.c.W.E   w 5 w i F F w 2 w 6 2    .V.W.D.x.x.n.7.OXOXOXOXOXOXOXOXOXOXOX",
"OXOXOXOXOXOXOXOXOXOXOX^ U x.x.c.W...Q & $ = H H H i u i ; o    .V.E.D.x.x.3.A oXOXOXOXOXOXOXOXOXOXOX",
"OXOXOXOXOXOXOXOXOXOXOXr 0 v.v.b.W.N.g.- + X H ! ! G F F $   - | f.E.S.c.x.2.  XXOXOXOXOXOXOXOXOXOXOX",
"OXOXOXOXOXOXOXOXOXOXOXt 6 W.C.V.M.d & XX+.X Y ! ! ! R F + q XX( ; M.M.M.W...  XXOXOXOXOXOXOXOXOXOXOX",
"OXOXOXOXOXOXOXOXOXOXOXH.o.Q E E E [ @.OXO.X Y ! ! T G F + q OXJ.o.E E E Q [ +.oXOXOXOXOXOXOXOXOXOXOX",
"OXOXOXOXOXOXOXOXOXOXOXOX^.o o o o J.OXOXO.X Y ! ~ G F F $ q OXOX).& o o o ] OXOXOXOXOXOXOXOXOXOXOXOX",
"OXOXOXOXOXOXOXOXOXOXOXOXXX|.|.|.|.XXOXOXO.X Y ! ! ~ T F $ q OXOXOX|.|.).). XOXOXOXOXOXOXOXOXOXOXOXOX",
"OXOXOXOXOXOXOXOXOXOXOXOXOXOXOXOXOXOXOXOXO.X Y ! ! R H a 3 6 G.|.OXOXOXOXOXOXOXOXOXOXOXOXOXOXOXOXOXOX",
"OXOXOXOXOXOXOXOXOXOXOXOXOXOXOXOXOXOXOXOXO.X Y ! ! F F Z F 8   K.OXOXOXOXOXOXOXOXOXOXOXOXOXOXOXOXOXOX",
"OXOXOXOXOXOXOXOXOXOXOXOXOXOXOXOXOXOXOXOXO.X a F F h h h h g   K.OXOXOXOXOXOXOXOXOXOXOXOXOXOXOXOXOXOX",
"OXOXOXOXOXOXOXOXOXOXOXOXOXOXOXOXOXOXOXJ.' - d d J h h h h g   K.OXOXOXOXOXOXOXOXOXOXOXOXOXOXOXOXOXOX",
"OXOXOXOXOXOXOXOXOXOXOXOXOXOXOXOXOXOXXX  - h h h h / h h h f   K.OXOXOXOXOXOXOXOXOXOXOXOXOXOXOXOXOXOX",
"OXOXOXOXOXOXOXOXOXOXOXOXOXOXOXOXOXOXXX  - h h g r * = e j h f f ( oXOXOXOXOXOXOXOXOXOXOXOXOXOXOXOXOX",
"OXOXOXOXOXOXOXOXOXOXOXOXOXOXOXOXOXOXXX  - h h f 2 X X 5 g h h * - oXOXOXOXOXOXOXOXOXOXOXOXOXOXOXOXOX",
"OXOXOXOXOXOXOXOXOXOXOXOXOXOXOXOXOXOXXX  - h h s w . o 5 j h h * - oXOXOXOXOXOXOXOXOXOXOXOXOXOXOXOXOX",
"OXOXOXOXOXOXOXOXOXOXOXOXOXOXOXOXOXOXoX  7 T t ; o J.G.. F T e o - oXOXOXOXOXOXOXOXOXOXOXOXOXOXOXOXOX",
"OXOXOXOXOXOXOXOXOXOXOXOXOXOXOXOXOX).~.% 9 ~ y =   /.L.  Z R 6 o - oXOXOXOXOXOXOXOXOXOXOXOXOXOXOXOXOX",
"OXOXOXOXOXOXOXOXOXOXOXOXOXOXOXOXOX'   ! ! R e *   /.L.  F R 6 o - oXOXOXOXOXOXOXOXOXOXOXOXOXOXOXOXOX",
"OXOXOXOXOXOXOXOXOXOXOXOXOXOXOXOXOX'   a F a w * X (.L.  7 i 6 o - oXOXOXOXOXOXOXOXOXOXOXOXOXOXOXOXOX",
"OXOXOXOXOXOXOXOXOXOXOXOXOXOXOXOXOX'   - 2 2 2 +   ).L.  * 2 2 X - oXOXOXOXOXOXOXOXOXOXOXOXOXOXOXOXOX",
"OXOXOXOXOXOXOXOXOXOXOXOXOXOXOXOXOX'             . (.L.          - oXOXOXOXOXOXOXOXOXOXOXOXOXOXOXOXOX"
};
